<?xml version="1.0" encoding="utf-8"?>
<!-- Generator: Adobe Illustrator 16.1.0, SVG Export Plug-In . SVG Version: 6.00 Build 0)  -->
<!DOCTYPE svg PUBLIC "-//W3C//DTD SVG 1.1//EN" "http://www.w3.org/Graphics/SVG/1.1/DTD/svg11.dtd">
<svg version="1.1" xmlns="http://www.w3.org/2000/svg" xmlns:xlink="http://www.w3.org/1999/xlink" x="0px" y="0px"
	 width="268.532px" height="145.021px" viewBox="0 0 268.532 145.021" enable-background="new 0 0 268.532 145.021"
	 xml:space="preserve">
<g id="Layer_1">
	<g id="Layer_2_1_" display="none">
	</g>
	<g id="Layer_1_1_">
	</g>
	<g>
		<path fill="#EBECD3" d="M-26.234-23.99v187h322v-187H-26.234z M236.515,138.448c-0.044,1.386-0.731,2.576-1.955,3.256
			c-1.218,0.676-2.455,1.271-3.946,1.36c-1.595,0.098-3.171,0.567-4.746,0.904c-1.281,0.271-2.578,0.066-3.861,0.179
			c-0.055,0.005-0.111-0.035-0.172-0.039c-1.873-0.146-3.746-0.358-5.621-0.416c-2.213-0.07-4.43,0.08-6.637-0.034
			c-1.117-0.057-2.209-0.066-3.322,0.014c-1.486,0.108-2.984,0.059-4.479,0.104c-2.67,0.083-5.34,0.176-8.01,0.287
			c-1.786,0.074-3.568,0.188-5.354,0.286c-1.404,0.073-2.808,0.151-4.207,0.228c-0.146,0.008-0.289-0.014-0.433-0.018
			c-1.709-0.057-3.42-0.197-5.125-0.137c-1.444,0.056-2.881,0.085-4.319-0.051c-0.756-0.071-1.543-0.211-2.271-0.08
			c-1.354,0.244-2.692,0.062-4.039,0.079c-2.054,0.025-4.106,0.068-6.16,0.115c-1.207,0.028-2.414,0.058-3.618,0.128
			c-1,0.058-1.994,0.229-2.992,0.25c-1.59,0.03-3.181-0.057-4.771-0.037c-1.793,0.022-3.588,0.121-5.382,0.16
			c-1.524,0.033-3.051,0.045-4.575,0.035c-0.776-0.007-1.553-0.032-2.33-0.055c-0.569,0.01-1.139,0.023-1.708,0.028
			c-0.591,0.005-1.182-0.012-1.772-0.03c-0.591,0.019-1.181,0.035-1.772,0.03c-0.57-0.005-1.139-0.019-1.708-0.028
			c-0.777,0.022-1.554,0.048-2.33,0.055c-1.524,0.01-3.051-0.002-4.575-0.035c-1.794-0.039-3.589-0.138-5.382-0.16
			c-1.59-0.02-3.181,0.067-4.771,0.037c-0.998-0.021-1.992-0.192-2.992-0.25c-1.204-0.07-2.411-0.1-3.618-0.128
			c-2.054-0.047-4.106-0.09-6.16-0.115c-1.347-0.017-2.685,0.165-4.039-0.079c-0.728-0.131-1.515,0.009-2.271,0.08
			c-1.438,0.136-2.875,0.106-4.319,0.051c-1.705-0.061-3.416,0.08-5.125,0.137c-0.144,0.004-0.287,0.025-0.433,0.018
			c-1.399-0.076-2.803-0.154-4.207-0.228c-1.785-0.099-3.567-0.212-5.354-0.286c-2.67-0.111-5.34-0.204-8.01-0.287
			c-1.494-0.045-2.992,0.005-4.479-0.104c-1.113-0.08-2.205-0.07-3.322-0.014c-2.207,0.114-4.424-0.036-6.637,0.034
			c-1.875,0.058-3.748,0.27-5.621,0.416c-0.061,0.004-0.117,0.044-0.172,0.039c-1.283-0.112-2.58,0.093-3.861-0.179
			c-1.575-0.337-3.151-0.807-4.746-0.904c-1.491-0.09-2.729-0.685-3.946-1.36c-1.224-0.68-1.911-1.87-1.955-3.256
			c-0.054-1.731,0.069-3.469,0.146-5.204c0.025-0.528,0.16-1.049,0.222-1.577c0.161-1.481,0.325-2.97,0.465-4.457
			c0.138-1.429,0.164-2.873,0.384-4.287c0.342-2.262,0.771-4.512,1.235-6.753c0.177-0.856,0.563-1.669,0.815-2.515
			c0.148-0.506,0.188-1.046,0.336-1.553c0.186-0.614,0.48-1.194,0.646-1.812c0.295-1.104,0.525-2.224,0.791-3.336
			c0.07-0.287,0.174-0.562,0.229-0.849c0.104-0.505,0.371-0.959,0.25-1.536c-0.067-0.33,0.229-0.719,0.281-1.092
			c0.238-1.649,0.891-3.161,1.426-4.715c0.562-1.638,1.289-3.219,1.529-4.958c0.074-0.54,0.357-1.051,0.525-1.578
			c0.287-0.895,0.547-1.793,0.83-2.688c0.426-1.341,0.873-2.675,1.289-4.019c0.451-1.46,0.882-2.932,1.32-4.396
			c0.123-0.418,0.231-0.839,0.368-1.253c0.479-1.479,0.933-2.966,1.462-4.426c0.446-1.241,0.987-2.447,1.491-3.667
			c0.054-0.135,0.101-0.287,0.197-0.391c0.774-0.862,1.063-1.954,1.42-3.011c0.856-2.534,1.754-5.06,2.53-7.62
			c0.666-2.188,1.742-4.184,2.871-6.127c0.752-1.3,1.404-2.643,2.133-3.949c0.449-0.812,0.722-1.724,1.109-2.574
			c0.902-1.983,1.82-3.957,2.748-5.926c0.188-0.398,0.471-0.747,0.688-1.133c0.678-1.195,1.385-2.369,1.972-3.627
			c0.907-1.942,1.979-3.814,2.987-5.712c0.44-0.832,0.935-1.635,1.344-2.481c0.354-0.738,0.608-1.522,0.938-2.271
			c0.553-1.265,1.053-2.558,1.709-3.765c0.686-1.261,1.525-2.444,2.312-3.648c0.663-1.006,1.364-1.981,2.02-2.989
			c0.188-0.291,0.281-0.647,0.408-0.974c0.053-0.135,0.053-0.299,0.125-0.418c1.045-1.729,1.825-3.621,3.213-5.147
			c0.52-0.575,0.981-1.289,1.215-2.021c0.492-1.568,1.58-2.585,2.813-3.519c0.654-0.493,1.29-1.019,1.979-1.453
			c0.492-0.313,1.039-0.588,1.599-0.721c1.918-0.447,3.854-0.824,5.783-1.23c0.058-0.014,0.116-0.022,0.17-0.045
			c1.856-0.789,3.826-0.666,5.774-0.736c0.728-0.023,1.447-0.188,2.17-0.293c0.062,0,0.119,0,0.179,0
			c0.737,0.119,1.476,0.304,2.217,0.345c1.794,0.103,3.591,0.188,5.384,0.188c2.735-0.002,5.473-0.098,8.207-0.123
			c1.028-0.011,2.062,0.049,3.088,0.093c1.408,0.061,2.813,0.157,4.219,0.194c0.668,0.019,1.342-0.098,2.012-0.092
			c1.066,0.01,2.14,0.014,3.197,0.123c0.165-0.006,0.33-0.014,0.495-0.019c0.941-0.022,1.888-0.029,2.828-0.021
			c0.569,0.005,1.139,0.007,1.708,0.013c0.57-0.006,1.139-0.008,1.708-0.013c0.94-0.009,1.887-0.002,2.828,0.021
			c0.165,0.004,0.33,0.012,0.495,0.019c1.057-0.109,2.131-0.113,3.197-0.123c0.67-0.006,1.344,0.11,2.012,0.092
			c1.405-0.037,2.811-0.134,4.219-0.194c1.025-0.044,2.06-0.104,3.088-0.093c2.734,0.025,5.472,0.121,8.207,0.123
			c1.793,0,3.59-0.086,5.384-0.188c0.741-0.041,1.479-0.226,2.217-0.345c0.06,0,0.117,0,0.179,0c0.723,0.104,1.442,0.27,2.17,0.293
			c1.948,0.07,3.918-0.053,5.774,0.736c0.054,0.022,0.112,0.031,0.17,0.045c1.929,0.406,3.865,0.783,5.783,1.23
			c0.56,0.133,1.106,0.407,1.599,0.721c0.689,0.435,1.325,0.96,1.979,1.453c1.233,0.934,2.321,1.95,2.813,3.519
			c0.233,0.732,0.695,1.446,1.215,2.021c1.388,1.526,2.168,3.418,3.213,5.147c0.072,0.119,0.072,0.283,0.125,0.418
			c0.127,0.326,0.221,0.683,0.408,0.974c0.655,1.008,1.356,1.983,2.02,2.989c0.787,1.204,1.627,2.388,2.312,3.648
			c0.656,1.207,1.156,2.5,1.709,3.765c0.33,0.749,0.584,1.533,0.938,2.271c0.409,0.847,0.903,1.649,1.344,2.481
			c1.009,1.897,2.08,3.77,2.987,5.712c0.587,1.258,1.294,2.432,1.972,3.627c0.218,0.386,0.5,0.734,0.688,1.133
			c0.928,1.969,1.846,3.942,2.748,5.926c0.388,0.851,0.66,1.762,1.109,2.574c0.729,1.307,1.381,2.649,2.133,3.949
			c1.129,1.943,2.205,3.938,2.871,6.127c0.776,2.561,1.674,5.086,2.53,7.62c0.356,1.057,0.646,2.148,1.42,3.011
			c0.097,0.104,0.144,0.256,0.197,0.391c0.504,1.22,1.045,2.426,1.491,3.667c0.529,1.46,0.982,2.947,1.462,4.426
			c0.137,0.414,0.245,0.835,0.368,1.253c0.438,1.464,0.869,2.936,1.32,4.396c0.416,1.344,0.863,2.678,1.289,4.019
			c0.283,0.896,0.543,1.794,0.83,2.688c0.168,0.527,0.451,1.038,0.525,1.578c0.24,1.739,0.967,3.32,1.529,4.958
			c0.535,1.554,1.188,3.065,1.426,4.715c0.052,0.373,0.349,0.762,0.281,1.092c-0.121,0.577,0.146,1.031,0.25,1.536
			c0.055,0.287,0.158,0.562,0.229,0.849c0.266,1.112,0.496,2.232,0.791,3.336c0.166,0.617,0.461,1.197,0.646,1.812
			c0.147,0.507,0.188,1.047,0.336,1.553c0.252,0.846,0.639,1.658,0.815,2.515c0.464,2.241,0.894,4.491,1.235,6.753
			c0.22,1.414,0.246,2.858,0.384,4.287c0.14,1.487,0.304,2.976,0.465,4.457c0.062,0.528,0.196,1.049,0.222,1.577
			C236.446,134.979,236.569,136.717,236.515,138.448z"/>
		<path fill="#EBECD3" d="M232.075,123.445c-0.705-2.303-0.58-4.713-1.033-7.042c-0.184-0.947-0.43-1.889-0.723-2.811
			c-0.434-1.369-0.973-2.705-1.396-4.077c-0.44-1.433-0.781-2.894-1.207-4.326c-0.689-2.338-1.271-4.712-2.264-6.953
			c-0.787-1.781-1.3-3.646-1.732-5.539c-0.125-0.541-0.36-1.056-0.528-1.587c-0.479-1.514-0.919-3.042-1.438-4.543
			c-0.354-1.021-0.828-2-1.225-3.008c-0.654-1.669-1.27-3.355-1.939-5.019c-0.688-1.688-1.411-3.36-2.141-5.034
			c-0.912-2.104-1.904-4.174-2.756-6.302c-0.783-1.963-1.386-3.999-2.14-5.976c-0.642-1.671-1.354-3.313-2.085-4.947
			c-1.072-2.411-2.206-4.796-3.279-7.206c-0.652-1.473-1.248-2.971-1.871-4.457c-0.021-0.054-0.056-0.103-0.082-0.156
			c-0.658-1.274-1.227-2.612-2.006-3.812c-0.665-1.014-1.225-2.069-1.771-3.137c-0.215-0.416-0.387-0.855-0.582-1.281
			c-0.269-0.583-0.539-1.167-0.815-1.746c-0.498-1.031-0.987-2.069-1.507-3.09c-0.688-1.361-1.406-2.707-2.1-4.066
			c-0.811-1.596-1.561-3.225-2.42-4.793c-0.746-1.362-1.6-2.666-2.418-3.988c-0.727-1.176-1.457-2.35-2.213-3.506
			c-0.621-0.952-1.295-1.87-1.924-2.816c-1.1-1.656-2.645-2.897-4.016-4.298c-0.906-0.926-2.041-1.433-3.332-1.646
			c-2.115-0.349-4.209-0.887-6.338-1.107c-1.437-0.146-2.908-0.52-4.379-0.031c-0.328,0.107-0.816,0.064-1.111-0.107
			c-1.088-0.645-2.287-0.428-3.439-0.545c-0.604-0.062-1.223,0.035-1.834,0.028c-2.646-0.029-5.293-0.083-7.941-0.1
			c-0.672-0.004-1.348,0.145-2.021,0.155c-1.972,0.035-3.938-0.012-5.907,0.146c-0.279,0.022-0.56,0.029-0.84,0.042l-6.219,0.583
			c-1.149-0.031-2.302-0.017-3.446-0.078c-0.315-0.018-0.63-0.043-0.945-0.064c-0.315,0.021-0.63,0.046-0.945,0.064l-9.666-0.505
			c-0.28-0.013-0.56-0.021-0.839-0.042c-1.969-0.158-3.936-0.111-5.907-0.146c-0.673-0.011-1.349-0.159-2.021-0.155
			c-2.648,0.017-5.296,0.07-7.941,0.1c-0.611,0.007-1.23-0.09-1.834-0.028c-1.152,0.117-2.352-0.1-3.439,0.545
			c-0.295,0.172-0.783,0.215-1.111,0.107c-1.471-0.488-2.942-0.115-4.379,0.031c-2.129,0.221-4.223,0.759-6.338,1.107
			C89,6.497,87.865,7.004,86.958,7.929c-1.371,1.4-2.916,2.642-4.016,4.298c-0.629,0.946-1.303,1.864-1.924,2.816
			c-0.756,1.156-1.486,2.33-2.213,3.506c-0.818,1.322-1.672,2.626-2.418,3.988c-0.859,1.568-1.609,3.197-2.42,4.793
			c-0.693,1.359-1.412,2.705-2.1,4.066c-0.52,1.021-1.009,2.059-1.507,3.09c-0.276,0.579-0.547,1.163-0.815,1.746
			c-0.195,0.426-0.367,0.865-0.582,1.281c-0.547,1.067-1.106,2.123-1.771,3.137c-0.779,1.199-1.348,2.537-2.006,3.812
			c-0.026,0.054-0.061,0.103-0.082,0.156c-0.623,1.486-1.219,2.984-1.871,4.457c-1.073,2.41-2.207,4.795-3.279,7.206
			c-0.73,1.634-1.443,3.276-2.085,4.947c-0.754,1.977-1.356,4.013-2.14,5.976c-0.852,2.128-1.844,4.198-2.756,6.302
			c-0.729,1.674-1.453,3.347-2.141,5.034c-0.67,1.663-1.285,3.35-1.939,5.019c-0.396,1.008-0.871,1.986-1.225,3.008
			c-0.52,1.501-0.959,3.029-1.438,4.543c-0.168,0.531-0.403,1.046-0.528,1.587c-0.433,1.893-0.945,3.758-1.732,5.539
			c-0.992,2.241-1.574,4.615-2.264,6.953c-0.426,1.433-0.767,2.894-1.207,4.326c-0.424,1.372-0.963,2.708-1.396,4.077
			c-0.293,0.922-0.539,1.863-0.723,2.811c-0.453,2.329-0.328,4.739-1.033,7.042c-0.291,0.946-0.24,1.994-0.504,2.952
			c-0.777,2.778-0.988,5.619-1.155,8.678c0.065,0.534,0.11,1.272,0.252,1.992c0.229,1.164,1.223,1.666,2.09,2.262
			c0.063,0.042,0.174,0.031,0.261,0.021c0.856-0.109,1.61-0.429,2.026-1.225c0.295-0.563,0.549-1.171,0.705-1.788
			c0.313-1.219,0.58-2.458,0.799-3.697c0.367-2.058,0.666-4.121,1.021-6.181c0.334-1.94,0.619-3.896,1.076-5.81
			c0.493-2.062,0.83-4.146,1.159-6.234c0.05-0.314,0.046-0.65,0.149-0.952c0.421-1.22,0.886-2.427,1.31-3.646
			c0.509-1.465,1.009-2.935,1.488-4.41c0.282-0.862,0.515-1.744,0.782-2.612c0.24-0.78,0.5-1.559,0.75-2.338
			c0.408-1.279,0.785-2.573,1.232-3.842c0.37-1.048,0.825-2.069,1.232-3.104c0.814-2.072,1.605-4.156,2.445-6.219
			c0.723-1.77,1.496-3.516,2.25-5.271c0.487-1.134,0.985-2.268,1.467-3.405c0.582-1.378,1.15-2.764,1.729-4.146
			c0.135-0.327,0.256-0.659,0.403-0.979c0.671-1.468,1.317-2.951,2.032-4.396c0.504-1.026,1.1-2.012,1.662-3.006
			c0.199-0.353,0.515-0.658,0.64-1.031c0.407-1.199,0.935-2.338,1.431-3.498c0.987-2.299,2.094-4.527,3.387-6.656
			c1.15-1.899,1.818-4.012,2.828-5.967c0.418-0.807,0.666-1.691,1.338-2.371c0.576-0.58,1.104-1.223,1.572-1.896
			c0.705-1.011,1.268-2.115,2.139-3.013c0.279-0.288,0.444-0.686,0.674-1.024c0.184-0.267,0.385-0.519,0.588-0.771
			c0.312-0.39,0.671-0.747,0.938-1.164c0.684-1.061,1.399-2.1,2.082-3.164c1.489-2.324,3.153-4.537,4.764-6.781
			c1.338-1.853,3.066-3.347,4.744-4.854c1.385-1.244,2.978-2.281,4.572-3.256c1.805-1.101,3.68-2.093,5.586-3.002
			c1.321-0.631,2.735-1.082,4.258-0.953c0.729,0.06,1.471,0.063,2.205,0.062c0.854-0.002,1.705-0.059,2.559-0.063
			c1.029-0.006,2.039-0.125,3.062-0.271c1.553-0.216,3.161-0.151,4.741-0.069c2.003,0.101,3.976-0.11,5.95-0.337h21.291
			c1.975,0.227,3.947,0.438,5.95,0.337c1.58-0.082,3.188-0.146,4.741,0.069c1.023,0.146,2.033,0.266,3.062,0.271
			c0.854,0.005,1.705,0.062,2.559,0.063c0.734,0.002,1.476-0.002,2.205-0.062c1.522-0.129,2.937,0.322,4.258,0.953
			c1.906,0.909,3.781,1.901,5.586,3.002c1.595,0.975,3.188,2.012,4.572,3.256c1.678,1.507,3.406,3.001,4.744,4.854
			c1.61,2.244,3.274,4.457,4.764,6.781c0.683,1.064,1.398,2.104,2.082,3.164c0.267,0.417,0.625,0.774,0.938,1.164
			c0.203,0.252,0.404,0.504,0.588,0.771c0.229,0.339,0.395,0.736,0.674,1.024c0.871,0.897,1.434,2.002,2.139,3.013
			c0.469,0.674,0.996,1.316,1.572,1.896c0.672,0.68,0.92,1.564,1.338,2.371c1.01,1.955,1.678,4.067,2.828,5.967
			c1.293,2.129,2.399,4.357,3.387,6.656c0.496,1.16,1.023,2.299,1.431,3.498c0.125,0.373,0.44,0.679,0.64,1.031
			c0.562,0.994,1.158,1.979,1.662,3.006c0.715,1.444,1.361,2.928,2.032,4.396c0.147,0.32,0.269,0.652,0.403,0.979
			c0.578,1.382,1.146,2.768,1.729,4.146c0.481,1.138,0.979,2.271,1.467,3.405c0.754,1.755,1.527,3.501,2.25,5.271
			c0.84,2.062,1.631,4.146,2.445,6.219c0.407,1.034,0.862,2.056,1.232,3.104c0.447,1.269,0.824,2.562,1.232,3.842
			c0.25,0.779,0.51,1.558,0.75,2.338c0.268,0.868,0.5,1.75,0.782,2.612c0.479,1.476,0.979,2.945,1.488,4.41
			c0.424,1.219,0.889,2.426,1.31,3.646c0.104,0.302,0.1,0.638,0.149,0.952c0.329,2.088,0.666,4.172,1.159,6.234
			c0.457,1.914,0.742,3.869,1.076,5.81c0.354,2.06,0.653,4.123,1.021,6.181c0.219,1.239,0.485,2.479,0.799,3.697
			c0.156,0.617,0.41,1.225,0.705,1.788c0.416,0.796,1.17,1.115,2.026,1.225c0.087,0.01,0.197,0.021,0.261-0.021
			c0.867-0.596,1.86-1.098,2.09-2.262c0.142-0.72,0.187-1.458,0.252-1.992c-0.167-3.059-0.378-5.899-1.155-8.678
			C232.315,125.439,232.366,124.391,232.075,123.445z"/>
	</g>
	<path fill="#BABAA0" d="M236.37,133.244c-0.025-0.528-0.16-1.049-0.222-1.577c-0.161-1.481-0.325-2.97-0.465-4.457
		c-0.138-1.429-0.164-2.873-0.384-4.287c-0.342-2.262-0.771-4.512-1.235-6.753c-0.177-0.856-0.563-1.669-0.815-2.515
		c-0.148-0.506-0.188-1.046-0.336-1.553c-0.186-0.614-0.48-1.194-0.646-1.812c-0.295-1.104-0.525-2.224-0.791-3.336
		c-0.07-0.287-0.174-0.562-0.229-0.849c-0.104-0.505-0.371-0.959-0.25-1.536c0.067-0.33-0.229-0.719-0.281-1.092
		c-0.238-1.649-0.891-3.161-1.426-4.715c-0.562-1.638-1.289-3.219-1.529-4.958c-0.074-0.54-0.357-1.051-0.525-1.578
		c-0.287-0.895-0.547-1.793-0.83-2.688c-0.426-1.341-0.873-2.675-1.289-4.019c-0.451-1.46-0.882-2.932-1.32-4.396
		c-0.123-0.418-0.231-0.839-0.368-1.253c-0.479-1.479-0.933-2.966-1.462-4.426c-0.446-1.241-0.987-2.447-1.491-3.667
		c-0.054-0.135-0.101-0.287-0.197-0.391c-0.774-0.862-1.063-1.954-1.42-3.011c-0.856-2.534-1.754-5.06-2.53-7.62
		c-0.666-2.188-1.742-4.184-2.871-6.127c-0.752-1.3-1.404-2.643-2.133-3.949c-0.449-0.812-0.722-1.724-1.109-2.574
		c-0.902-1.983-1.82-3.957-2.748-5.926c-0.188-0.398-0.471-0.747-0.688-1.133c-0.678-1.195-1.385-2.369-1.972-3.627
		c-0.907-1.942-1.979-3.814-2.987-5.712c-0.44-0.832-0.935-1.635-1.344-2.481c-0.354-0.738-0.608-1.522-0.938-2.271
		c-0.553-1.265-1.053-2.558-1.709-3.765c-0.686-1.261-1.525-2.444-2.312-3.648c-0.663-1.006-1.364-1.981-2.02-2.989
		c-0.188-0.291-0.281-0.647-0.408-0.974c-0.053-0.135-0.053-0.299-0.125-0.418c-1.045-1.729-1.825-3.621-3.213-5.147
		c-0.52-0.575-0.981-1.289-1.215-2.021c-0.492-1.568-1.58-2.585-2.813-3.519c-0.654-0.493-1.29-1.019-1.979-1.453
		c-0.492-0.313-1.039-0.588-1.599-0.721c-1.918-0.447-3.854-0.824-5.783-1.23c-0.058-0.014-0.116-0.022-0.17-0.045
		c-1.856-0.789-3.826-0.666-5.774-0.736c-0.728-0.023-1.447-0.188-2.17-0.293c-0.062,0-0.119,0-0.179,0
		c-0.737,0.119-1.476,0.304-2.217,0.345c-1.794,0.103-3.591,0.188-5.384,0.188c-2.735-0.002-5.473-0.098-8.207-0.123
		c-1.028-0.011-2.062,0.049-3.088,0.093c-1.408,0.061-2.813,0.157-4.219,0.194c-0.668,0.019-1.342-0.098-2.012-0.092
		c-1.066,0.01-2.141,0.014-3.197,0.123c-0.165-0.006-0.33-0.014-0.495-0.019c-0.941-0.022-1.888-0.029-2.828-0.021
		c-0.569,0.005-1.139,0.007-1.708,0.013c-0.57-0.006-1.139-0.008-1.708-0.013c-0.94-0.009-1.887-0.002-2.828,0.021
		c-0.165,0.004-0.33,0.012-0.495,0.019c-1.057-0.109-2.131-0.113-3.197-0.123c-0.67-0.006-1.344,0.11-2.012,0.092
		c-1.405-0.037-2.811-0.134-4.219-0.194c-1.025-0.044-2.06-0.104-3.088-0.093c-2.734,0.025-5.472,0.121-8.207,0.123
		c-1.793,0-3.59-0.086-5.384-0.188c-0.741-0.041-1.479-0.226-2.217-0.345c-0.06,0-0.117,0-0.179,0
		c-0.723,0.104-1.442,0.27-2.17,0.293c-1.948,0.07-3.918-0.053-5.774,0.736c-0.054,0.022-0.112,0.031-0.17,0.045
		c-1.929,0.406-3.865,0.783-5.783,1.23c-0.56,0.133-1.106,0.407-1.599,0.721c-0.689,0.435-1.325,0.96-1.979,1.453
		c-1.233,0.934-2.321,1.95-2.813,3.519c-0.233,0.732-0.695,1.446-1.215,2.021c-1.388,1.526-2.168,3.418-3.213,5.147
		c-0.072,0.119-0.072,0.283-0.125,0.418c-0.127,0.326-0.221,0.683-0.408,0.974c-0.655,1.008-1.356,1.983-2.02,2.989
		c-0.787,1.204-1.627,2.388-2.312,3.648c-0.656,1.207-1.156,2.5-1.709,3.765c-0.33,0.749-0.584,1.533-0.938,2.271
		c-0.409,0.847-0.903,1.649-1.344,2.481c-1.009,1.897-2.08,3.77-2.987,5.712c-0.587,1.258-1.294,2.432-1.972,3.627
		c-0.218,0.386-0.5,0.734-0.688,1.133c-0.928,1.969-1.846,3.942-2.748,5.926c-0.388,0.851-0.66,1.762-1.109,2.574
		c-0.729,1.307-1.381,2.649-2.133,3.949c-1.129,1.943-2.205,3.938-2.871,6.127c-0.776,2.561-1.674,5.086-2.53,7.62
		c-0.356,1.057-0.646,2.148-1.42,3.011c-0.097,0.104-0.144,0.256-0.197,0.391c-0.504,1.22-1.045,2.426-1.491,3.667
		c-0.529,1.46-0.982,2.947-1.462,4.426c-0.137,0.414-0.245,0.835-0.368,1.253c-0.438,1.464-0.869,2.936-1.32,4.396
		c-0.416,1.344-0.863,2.678-1.289,4.019c-0.283,0.896-0.543,1.794-0.83,2.688c-0.168,0.527-0.451,1.038-0.525,1.578
		c-0.24,1.739-0.967,3.32-1.529,4.958c-0.535,1.554-1.188,3.065-1.426,4.715c-0.052,0.373-0.349,0.762-0.281,1.092
		c0.121,0.577-0.146,1.031-0.25,1.536c-0.055,0.287-0.158,0.562-0.229,0.849c-0.266,1.112-0.496,2.232-0.791,3.336
		c-0.166,0.617-0.461,1.197-0.646,1.812c-0.147,0.507-0.188,1.047-0.336,1.553c-0.252,0.846-0.639,1.658-0.815,2.515
		c-0.464,2.241-0.894,4.491-1.235,6.753c-0.22,1.414-0.246,2.858-0.384,4.287c-0.14,1.487-0.304,2.976-0.465,4.457
		c-0.062,0.528-0.196,1.049-0.222,1.577c-0.076,1.735-0.199,3.473-0.146,5.204c0.044,1.386,0.731,2.576,1.955,3.256
		c1.218,0.676,2.455,1.271,3.946,1.36c1.595,0.098,3.171,0.567,4.746,0.904c1.281,0.271,2.578,0.066,3.861,0.179
		c0.055,0.005,0.111-0.035,0.172-0.039c1.873-0.146,3.746-0.358,5.621-0.416c2.213-0.07,4.43,0.08,6.637-0.034
		c1.117-0.057,2.209-0.066,3.322,0.014c1.486,0.108,2.984,0.059,4.479,0.104c2.67,0.083,5.34,0.176,8.01,0.287
		c1.786,0.074,3.568,0.188,5.354,0.286c1.404,0.073,2.808,0.151,4.207,0.228c0.146,0.008,0.289-0.014,0.433-0.018
		c1.709-0.057,3.42-0.197,5.125-0.137c1.444,0.056,2.881,0.085,4.319-0.051c0.756-0.071,1.543-0.211,2.271-0.08
		c1.354,0.244,2.692,0.062,4.039,0.079c2.054,0.025,4.106,0.068,6.16,0.115c1.207,0.028,2.414,0.058,3.618,0.128
		c1,0.058,1.994,0.229,2.992,0.25c1.59,0.03,3.181-0.057,4.771-0.037c1.793,0.022,3.588,0.121,5.382,0.16
		c1.524,0.033,3.051,0.045,4.575,0.035c0.776-0.007,1.553-0.032,2.33-0.055c0.569,0.01,1.138,0.023,1.708,0.028
		c0.591,0.005,1.181-0.012,1.772-0.03c0.59,0.019,1.181,0.035,1.772,0.03c0.569-0.005,1.139-0.019,1.708-0.028
		c0.777,0.022,1.554,0.048,2.33,0.055c1.524,0.01,3.051-0.002,4.575-0.035c1.794-0.039,3.589-0.138,5.382-0.16
		c1.59-0.02,3.181,0.067,4.771,0.037c0.998-0.021,1.992-0.192,2.992-0.25c1.204-0.07,2.411-0.1,3.618-0.128
		c2.054-0.047,4.106-0.09,6.16-0.115c1.347-0.017,2.685,0.165,4.039-0.079c0.728-0.131,1.515,0.009,2.271,0.08
		c1.438,0.136,2.875,0.106,4.319,0.051c1.705-0.061,3.416,0.08,5.125,0.137c0.144,0.004,0.287,0.025,0.433,0.018
		c1.399-0.076,2.803-0.154,4.207-0.228c1.785-0.099,3.567-0.212,5.354-0.286c2.67-0.111,5.34-0.204,8.01-0.287
		c1.494-0.045,2.992,0.005,4.479-0.104c1.113-0.08,2.205-0.07,3.322-0.014c2.207,0.114,4.424-0.036,6.637,0.034
		c1.875,0.058,3.748,0.27,5.621,0.416c0.061,0.004,0.117,0.044,0.172,0.039c1.283-0.112,2.58,0.093,3.861-0.179
		c1.575-0.337,3.151-0.807,4.746-0.904c1.491-0.09,2.729-0.685,3.946-1.36c1.224-0.68,1.911-1.87,1.955-3.256
		C236.569,136.717,236.446,134.979,236.37,133.244z M224.504,140.268c-1.146-0.021-2.291-0.14-3.438-0.142
		c-1.771-0.004-3.529-0.037-5.299-0.197c-1.581-0.144-3.18-0.121-4.77-0.161c-0.795-0.021-1.592-0.015-2.389-0.025
		c-1.966-0.027-3.927-0.153-5.893,0.062c-1.131,0.125-2.271,0.133-3.409,0.187c-0.67,0.033-1.343,0.046-2.015,0.083
		c-1.412,0.075-2.821,0.167-4.233,0.236c-0.588,0.026-1.179,0.008-1.769,0.028c-0.791,0.028-1.58,0.102-2.371,0.104
		c-1.229,0.005-2.459-0.044-3.688-0.048c-1.024-0.003-2.051,0.018-3.075,0.039c-1.535,0.029-3.066,0.051-4.597,0.106
		c-2.271,0.083-4.537,0.194-6.806,0.289c-0.502,0.021-1.006,0-1.504,0.037c-1.022,0.079-2.045,0.205-3.071,0.271
		c-1.375,0.093-2.748,0.159-4.136,0.056c-1.459-0.109-2.932-0.031-4.396-0.052c-1.674-0.026-3.348-0.125-5.021-0.092
		c-2.053,0.048-4.102,0.149-6.151,0.237c-1.308,0.024-2.615,0.049-3.924,0.063c-0.931,0.009-1.861,0.002-2.792,0.006
		c-0.941-0.054-1.881-0.145-2.821-0.158c-0.739-0.01-1.484,0.127-2.226,0.157c-0.741-0.03-1.486-0.167-2.226-0.157
		c-0.94,0.014-1.88,0.104-2.821,0.158c-0.931-0.004-1.862,0.003-2.792-0.006c-1.308-0.015-2.616-0.039-3.923-0.063
		c-2.05-0.088-4.099-0.189-6.152-0.237c-1.674-0.033-3.348,0.065-5.021,0.092c-1.465,0.021-2.938-0.058-4.396,0.052
		c-1.388,0.104-2.761,0.037-4.136-0.056c-1.026-0.065-2.049-0.191-3.071-0.271c-0.498-0.037-1.002-0.016-1.504-0.037
		c-2.269-0.095-4.535-0.206-6.806-0.289c-1.53-0.056-3.062-0.077-4.597-0.106c-1.024-0.021-2.051-0.042-3.075-0.039
		c-1.229,0.004-2.459,0.053-3.688,0.048c-0.791-0.003-1.58-0.076-2.371-0.104c-0.59-0.021-1.181-0.002-1.769-0.028
		c-1.412-0.069-2.821-0.161-4.233-0.236c-0.672-0.037-1.345-0.05-2.015-0.083c-1.138-0.054-2.278-0.062-3.409-0.187
		c-1.966-0.216-3.927-0.09-5.893-0.062c-0.797,0.011-1.594,0.005-2.389,0.025c-1.59,0.04-3.188,0.018-4.77,0.161
		c-1.77,0.16-3.527,0.193-5.299,0.197c-1.146,0.002-2.291,0.121-3.438,0.142c-1.029,0.016-1.514-0.376-1.521-1.399
		c-0.01-0.84,0.195-1.685,0.326-2.523c0.154-0.984,0.305-1.975,0.508-2.948c0.195-0.951,0.484-1.884,0.688-2.832
		c0.262-1.234,0.473-2.479,0.715-3.719c0.121-0.626,0.248-1.254,0.4-1.868c0.309-1.229,0.646-2.446,0.951-3.674
		c0.062-0.255,0.027-0.531,0.078-0.791c0.299-1.492,0.605-2.986,0.918-4.479c0.107-0.515,0.273-1.018,0.354-1.536
		c0.338-2.258,1.217-4.343,2.018-6.457c0.752-1.979,1.426-3.988,1.879-6.062c0.107-0.516,0.344-1.001,0.545-1.49
		c0.626-1.521,1.271-3.033,1.896-4.556c0.178-0.432,0.276-0.896,0.476-1.318c0.715-1.514,1.481-3.001,2.178-4.522
		c0.562-1.229,1.06-2.494,1.563-3.751c0.117-0.295,0.171-0.621,0.242-0.935c0.396-1.748,1.388-3.24,2.076-4.864
		c0.057-0.136,0.192-0.268,0.187-0.396c-0.056-1.059,0.608-1.812,1.084-2.643c1.063-1.859,2.112-3.729,2.883-5.735
		c0.847-2.199,1.881-4.304,3.017-6.37c0.869-1.586,1.584-3.259,2.18-4.984c0.488-1.417,1.105-2.796,1.766-4.146
		c1.366-2.808,2.991-5.471,4.818-7.994c1.359-1.876,2.837-3.665,4.262-5.493c1.245-1.604,2.445-3.246,3.747-4.803
		c1.959-2.346,3.994-4.628,5.991-6.939c0.902-1.045,1.779-2.115,2.701-3.143c0.916-1.021,1.789-2.053,3.172-2.566
		c1.059-0.393,2-1.095,2.979-1.69c0.812-0.492,1.625-0.956,2.582-1.105c0.145-0.024,0.311-0.045,0.416-0.129
		c1.278-1.004,2.83-1.076,4.338-1.26c1.283-0.154,2.578-0.208,3.867-0.33c1.463-0.142,2.924-0.323,4.389-0.455
		c0.998-0.09,1.998-0.126,3.053-0.188c1.607-0.014,3.273,0.01,4.933-0.025c0.854-0.018,1.705-0.129,2.558-0.191
		c0.588-0.045,1.176-0.104,1.766-0.112c1.701-0.018,3.406,0.049,5.105-0.031c0.572-0.027,1.143-0.077,1.713-0.132
		c0.571,0.055,1.141,0.105,1.713,0.132c1.699,0.08,3.404,0.014,5.105,0.031c0.59,0.009,1.178,0.067,1.766,0.112
		c0.853,0.062,1.703,0.174,2.558,0.191c1.659,0.035,3.325,0.012,4.933,0.025c1.055,0.062,2.055,0.099,3.053,0.188
		c1.465,0.132,2.926,0.313,4.389,0.455c1.289,0.122,2.584,0.176,3.867,0.33c1.508,0.184,3.06,0.256,4.338,1.26
		c0.105,0.084,0.271,0.104,0.416,0.129c0.957,0.149,1.77,0.613,2.582,1.105c0.979,0.596,1.92,1.298,2.979,1.69
		c1.383,0.514,2.256,1.545,3.172,2.566c0.922,1.027,1.799,2.098,2.701,3.143c1.997,2.312,4.032,4.594,5.991,6.939
		c1.302,1.557,2.502,3.198,3.747,4.803c1.425,1.828,2.902,3.617,4.262,5.493c1.827,2.523,3.452,5.187,4.818,7.994
		c0.66,1.35,1.277,2.729,1.766,4.146c0.596,1.726,1.311,3.398,2.18,4.984c1.136,2.066,2.17,4.171,3.017,6.37
		c0.771,2.007,1.819,3.876,2.883,5.735c0.476,0.831,1.14,1.584,1.084,2.643c-0.006,0.128,0.13,0.26,0.187,0.396
		c0.688,1.624,1.681,3.116,2.076,4.864c0.071,0.313,0.125,0.64,0.242,0.935c0.504,1.257,1.002,2.521,1.563,3.751
		c0.696,1.521,1.463,3.009,2.178,4.522c0.199,0.422,0.298,0.887,0.476,1.318c0.625,1.522,1.271,3.034,1.896,4.556
		c0.201,0.489,0.438,0.975,0.545,1.49c0.453,2.074,1.127,4.084,1.879,6.062c0.801,2.114,1.68,4.199,2.018,6.457
		c0.08,0.519,0.246,1.021,0.354,1.536c0.312,1.493,0.619,2.987,0.918,4.479c0.051,0.26,0.016,0.536,0.078,0.791
		c0.305,1.228,0.643,2.444,0.951,3.674c0.152,0.614,0.279,1.242,0.4,1.868c0.242,1.239,0.453,2.484,0.715,3.719
		c0.203,0.948,0.492,1.881,0.688,2.832c0.203,0.974,0.354,1.964,0.508,2.948c0.131,0.839,0.336,1.684,0.326,2.523
		C226.018,139.892,225.534,140.284,224.504,140.268z M124.065,16.01c-1.974,0.227-3.947,0.438-5.95,0.337
		c-1.58-0.082-3.188-0.146-4.741,0.069c-1.023,0.146-2.033,0.266-3.062,0.271c-0.854,0.005-1.705,0.062-2.559,0.063
		c-0.734,0.002-1.476-0.002-2.205-0.062c-1.522-0.129-2.937,0.322-4.258,0.953c-1.906,0.909-3.781,1.901-5.586,3.002
		c-1.595,0.975-3.188,2.012-4.572,3.256c-1.678,1.507-3.406,3.001-4.744,4.854c-1.61,2.244-3.274,4.457-4.764,6.781
		c-0.683,1.064-1.398,2.104-2.082,3.164c-0.267,0.417-0.625,0.774-0.938,1.164c-0.203,0.252-0.404,0.504-0.588,0.771
		c-0.229,0.339-0.395,0.736-0.674,1.024c-0.871,0.897-1.434,2.002-2.139,3.013c-0.469,0.674-0.996,1.316-1.572,1.896
		c-0.672,0.68-0.92,1.564-1.338,2.371c-1.01,1.955-1.678,4.067-2.828,5.967c-1.293,2.129-2.399,4.357-3.387,6.656
		c-0.496,1.16-1.023,2.299-1.431,3.498c-0.125,0.373-0.44,0.679-0.64,1.031c-0.562,0.994-1.158,1.979-1.662,3.006
		c-0.715,1.444-1.361,2.928-2.032,4.396c-0.147,0.32-0.269,0.652-0.403,0.979c-0.578,1.382-1.146,2.768-1.729,4.146
		c-0.481,1.138-0.979,2.271-1.467,3.405c-0.754,1.755-1.527,3.501-2.25,5.271c-0.84,2.062-1.631,4.146-2.445,6.219
		c-0.407,1.034-0.862,2.056-1.232,3.104c-0.447,1.269-0.824,2.562-1.232,3.842c-0.25,0.779-0.51,1.558-0.75,2.338
		c-0.268,0.868-0.5,1.75-0.782,2.612c-0.479,1.476-0.979,2.945-1.488,4.41c-0.424,1.219-0.889,2.426-1.31,3.646
		c-0.104,0.302-0.1,0.638-0.149,0.952c-0.329,2.088-0.666,4.172-1.159,6.234c-0.457,1.914-0.742,3.869-1.076,5.81
		c-0.354,2.06-0.653,4.123-1.021,6.181c-0.219,1.239-0.485,2.479-0.799,3.697c-0.156,0.617-0.41,1.225-0.705,1.788
		c-0.416,0.796-1.17,1.115-2.026,1.225c-0.087,0.01-0.197,0.021-0.261-0.021c-0.867-0.596-1.86-1.098-2.09-2.262
		c-0.142-0.72-0.187-1.458-0.252-1.992c0.167-3.059,0.378-5.899,1.155-8.678c0.264-0.958,0.213-2.006,0.504-2.952
		c0.705-2.303,0.58-4.713,1.033-7.042c0.184-0.947,0.43-1.889,0.723-2.811c0.434-1.369,0.973-2.705,1.396-4.077
		c0.44-1.433,0.781-2.894,1.207-4.326c0.689-2.338,1.271-4.712,2.264-6.953c0.787-1.781,1.3-3.646,1.732-5.539
		c0.125-0.541,0.36-1.056,0.528-1.587c0.479-1.514,0.919-3.042,1.438-4.543c0.354-1.021,0.828-2,1.225-3.008
		c0.654-1.669,1.27-3.355,1.939-5.019c0.688-1.688,1.411-3.36,2.141-5.034c0.912-2.104,1.904-4.174,2.756-6.302
		c0.783-1.963,1.386-3.999,2.14-5.976c0.642-1.671,1.354-3.313,2.085-4.947c1.072-2.411,2.206-4.796,3.279-7.206
		c0.652-1.473,1.248-2.971,1.871-4.457c0.021-0.054,0.056-0.103,0.082-0.156c0.658-1.274,1.227-2.612,2.006-3.812
		c0.665-1.014,1.225-2.069,1.771-3.137c0.215-0.416,0.387-0.855,0.582-1.281c0.269-0.583,0.539-1.167,0.815-1.746
		c0.498-1.031,0.987-2.069,1.507-3.09c0.688-1.361,1.406-2.707,2.1-4.066c0.811-1.596,1.561-3.225,2.42-4.793
		c0.746-1.362,1.6-2.666,2.418-3.988c0.727-1.176,1.457-2.35,2.213-3.506c0.621-0.952,1.295-1.87,1.924-2.816
		c1.1-1.656,2.645-2.897,4.016-4.298C87.865,7.004,89,6.497,90.291,6.283c2.115-0.349,4.209-0.887,6.338-1.107
		c1.437-0.146,2.908-0.52,4.379-0.031c0.328,0.107,0.816,0.064,1.111-0.107c1.088-0.645,2.287-0.428,3.439-0.545
		c0.604-0.062,1.223,0.035,1.834,0.028c2.646-0.029,5.293-0.083,7.941-0.1c0.672-0.004,1.348,0.145,2.021,0.155
		c1.972,0.035,3.938-0.012,5.907,0.146c0.279,0.022,0.56,0.029,0.839,0.042l9.666,0.505c0.315-0.018,0.63-0.043,0.945-0.064
		c0.315,0.021,0.629,0.046,0.945,0.064c1.145,0.062,2.297,0.047,3.446,0.078l6.219-0.583c0.28-0.013,0.561-0.021,0.84-0.042
		c1.969-0.158,3.936-0.111,5.907-0.146c0.673-0.011,1.349-0.159,2.021-0.155c2.648,0.017,5.296,0.07,7.941,0.1
		c0.611,0.007,1.23-0.09,1.834-0.028c1.152,0.117,2.352-0.1,3.439,0.545c0.295,0.172,0.783,0.215,1.111,0.107
		c1.471-0.488,2.942-0.115,4.379,0.031c2.129,0.221,4.223,0.759,6.338,1.107c1.291,0.214,2.426,0.721,3.332,1.646
		c1.371,1.4,2.916,2.642,4.016,4.298c0.629,0.946,1.303,1.864,1.924,2.816c0.756,1.156,1.486,2.33,2.213,3.506
		c0.818,1.322,1.672,2.626,2.418,3.988c0.859,1.568,1.609,3.197,2.42,4.793c0.693,1.359,1.412,2.705,2.1,4.066
		c0.52,1.021,1.009,2.059,1.507,3.09c0.276,0.579,0.547,1.163,0.815,1.746c0.195,0.426,0.367,0.865,0.582,1.281
		c0.547,1.067,1.106,2.123,1.771,3.137c0.779,1.199,1.348,2.537,2.006,3.812c0.026,0.054,0.061,0.103,0.082,0.156
		c0.623,1.486,1.219,2.984,1.871,4.457c1.073,2.41,2.207,4.795,3.279,7.206c0.73,1.634,1.443,3.276,2.085,4.947
		c0.754,1.977,1.356,4.013,2.14,5.976c0.852,2.128,1.844,4.198,2.756,6.302c0.729,1.674,1.453,3.347,2.141,5.034
		c0.67,1.663,1.285,3.35,1.939,5.019c0.396,1.008,0.871,1.986,1.225,3.008c0.52,1.501,0.959,3.029,1.438,4.543
		c0.168,0.531,0.403,1.046,0.528,1.587c0.433,1.893,0.945,3.758,1.732,5.539c0.992,2.241,1.574,4.615,2.264,6.953
		c0.426,1.433,0.767,2.894,1.207,4.326c0.424,1.372,0.963,2.708,1.396,4.077c0.293,0.922,0.539,1.863,0.723,2.811
		c0.453,2.329,0.328,4.739,1.033,7.042c0.291,0.946,0.24,1.994,0.504,2.952c0.777,2.778,0.988,5.619,1.155,8.678
		c-0.065,0.534-0.11,1.272-0.252,1.992c-0.229,1.164-1.223,1.666-2.09,2.262c-0.063,0.042-0.174,0.031-0.261,0.021
		c-0.856-0.109-1.61-0.429-2.026-1.225c-0.295-0.563-0.549-1.171-0.705-1.788c-0.313-1.219-0.58-2.458-0.799-3.697
		c-0.367-2.058-0.666-4.121-1.021-6.181c-0.334-1.94-0.619-3.896-1.076-5.81c-0.493-2.062-0.83-4.146-1.159-6.234
		c-0.05-0.314-0.046-0.65-0.149-0.952c-0.421-1.22-0.886-2.427-1.31-3.646c-0.509-1.465-1.009-2.935-1.488-4.41
		c-0.282-0.862-0.515-1.744-0.782-2.612c-0.24-0.78-0.5-1.559-0.75-2.338c-0.408-1.279-0.785-2.573-1.232-3.842
		c-0.37-1.048-0.825-2.069-1.232-3.104c-0.814-2.072-1.605-4.156-2.445-6.219c-0.723-1.77-1.496-3.516-2.25-5.271
		c-0.487-1.134-0.985-2.268-1.467-3.405c-0.582-1.378-1.15-2.764-1.729-4.146c-0.135-0.327-0.256-0.659-0.403-0.979
		c-0.671-1.468-1.317-2.951-2.032-4.396c-0.504-1.026-1.1-2.012-1.662-3.006c-0.199-0.353-0.515-0.658-0.64-1.031
		c-0.407-1.199-0.935-2.338-1.431-3.498c-0.987-2.299-2.094-4.527-3.387-6.656c-1.15-1.899-1.818-4.012-2.828-5.967
		c-0.418-0.807-0.666-1.691-1.338-2.371c-0.576-0.58-1.104-1.223-1.572-1.896c-0.705-1.011-1.268-2.115-2.139-3.013
		c-0.279-0.288-0.444-0.686-0.674-1.024c-0.184-0.267-0.385-0.519-0.588-0.771c-0.312-0.39-0.671-0.747-0.938-1.164
		c-0.684-1.061-1.399-2.1-2.082-3.164c-1.489-2.324-3.153-4.537-4.764-6.781c-1.338-1.853-3.066-3.347-4.744-4.854
		c-1.385-1.244-2.978-2.281-4.572-3.256c-1.805-1.101-3.68-2.093-5.586-3.002c-1.321-0.631-2.735-1.082-4.258-0.953
		c-0.729,0.06-1.471,0.063-2.205,0.062c-0.854-0.002-1.705-0.059-2.559-0.063c-1.029-0.006-2.039-0.125-3.062-0.271
		c-1.553-0.216-3.161-0.151-4.741-0.069c-2.003,0.101-3.976-0.11-5.95-0.337H124.065z"/>
</g>
<g id="Layer_2" display="none">
	<g id="Layer_1_4_" display="inline">
		<g id="Layer_1_5_">
		</g>
		<g id="Layer_2_3_">
			<path fill="#232020" d="M225.584,120.668c0.008-0.719-0.115-1.4-0.231-2.062c-0.037-0.209-0.074-0.418-0.106-0.626l-0.045-0.295
				c-0.14-0.887-0.281-1.802-0.47-2.704c-0.104-0.496-0.229-0.988-0.356-1.479c-0.117-0.45-0.234-0.899-0.33-1.354
				c-0.16-0.757-0.299-1.518-0.44-2.276c-0.089-0.477-0.179-0.952-0.271-1.428c-0.125-0.643-0.256-1.286-0.414-1.921
				c-0.154-0.621-0.317-1.24-0.481-1.858c-0.158-0.604-0.319-1.208-0.47-1.812c-0.01-0.039-0.014-0.146-0.018-0.225
				c-0.007-0.172-0.019-0.344-0.05-0.51c-0.301-1.508-0.608-3.004-0.922-4.498c-0.047-0.223-0.104-0.44-0.158-0.659
				c-0.071-0.273-0.146-0.547-0.188-0.824c-0.309-2.066-1.043-3.981-1.754-5.835l-0.313-0.823c-0.888-2.336-1.453-4.163-1.838-5.925
				c-0.104-0.502-0.306-0.968-0.479-1.379l-0.117-0.278c-0.297-0.717-0.596-1.433-0.896-2.146c-0.336-0.802-0.672-1.604-1.002-2.405
				c-0.069-0.168-0.123-0.342-0.179-0.514c-0.092-0.289-0.188-0.578-0.314-0.852c-0.308-0.649-0.623-1.289-0.938-1.931
				c-0.42-0.856-0.842-1.715-1.237-2.584c-0.478-1.044-0.916-2.14-1.343-3.198l-0.204-0.511c-0.067-0.169-0.103-0.357-0.144-0.545
				l-0.054-0.239c-0.286-1.272-0.848-2.39-1.389-3.47c-0.259-0.517-0.517-1.03-0.74-1.562c-0.026-0.065-0.063-0.135-0.104-0.204
				c-0.025-1.034-0.521-1.821-0.928-2.465c-0.101-0.157-0.197-0.313-0.289-0.475c-1.113-1.947-2.096-3.713-2.818-5.6
				c-0.78-2.032-1.758-4.096-3.071-6.491c-0.797-1.453-1.506-3.079-2.11-4.83c-0.433-1.261-1.007-2.613-1.812-4.261
				c-1.347-2.762-2.998-5.502-4.908-8.143c-0.944-1.309-1.961-2.586-2.94-3.822c-0.448-0.564-0.896-1.13-1.34-1.699
				c-0.385-0.494-0.766-0.993-1.146-1.493c-0.843-1.104-1.713-2.244-2.623-3.334c-1.326-1.589-2.688-3.146-4.047-4.705
				c-0.654-0.749-1.308-1.497-1.955-2.248c-0.332-0.386-0.662-0.771-0.99-1.159c-0.567-0.671-1.137-1.343-1.726-1.996l-0.143-0.16
				c-0.927-1.033-1.884-2.103-3.425-2.676c-0.692-0.259-1.354-0.686-2.056-1.135c-0.25-0.161-0.498-0.32-0.75-0.475
				c-0.866-0.528-1.807-1.062-2.946-1.242c-0.024-0.004-0.043-0.007-0.062-0.01c-1.342-0.999-2.887-1.174-4.254-1.328l-0.476-0.055
				c-0.778-0.096-1.562-0.152-2.347-0.21c-0.516-0.038-1.03-0.075-1.547-0.124c-0.68-0.065-1.358-0.14-2.037-0.213
				c-0.784-0.086-1.569-0.173-2.354-0.243c-0.704-0.063-1.409-0.102-2.135-0.139l-0.946-0.053l-2.953,0.006
				c-0.677,0-1.354-0.004-2.033-0.017c-0.541-0.01-1.082-0.062-1.623-0.112c-0.293-0.026-0.586-0.056-0.879-0.076l-0.424-0.033
				c-0.467-0.038-0.936-0.076-1.402-0.081l-0.711-0.004l-2.328,0.012c-0.676,0-1.354-0.009-2.03-0.041
				c-0.849-0.039-1.72-0.129-2.562-0.217c-0.854-0.088-1.735-0.179-2.619-0.223C127.543,0.055,125.459,0,123.471,0l-0.65,0.002
				c-0.818,0.006-1.613,0.117-2.385,0.226c-0.4,0.054-0.805,0.11-1.206,0.15c-0.498,0.051-1,0.088-1.5,0.126
				c-0.618,0.05-1.233,0.097-1.849,0.162c-1.748,0.189-3.354,0.384-4.91,0.595c-0.549,0.074-1.098,0.168-1.646,0.26
				c-0.693,0.118-1.385,0.234-2.08,0.312c-1.688,0.185-3.125,0.573-4.389,1.188c-0.744,0.362-1.57,0.735-2.524,1.143
				c-1.716,0.73-3.284,1.701-4.803,2.642c-0.384,0.237-0.769,0.476-1.155,0.71c-0.434,0.263-0.899,0.487-1.393,0.726
				c-0.304,0.148-0.607,0.295-0.906,0.451c-1.166,0.614-2.493,1.379-3.514,2.707c-0.365,0.475-0.826,0.902-1.316,1.356l-0.441,0.416
				c-1,0.951-1.666,2.081-2.311,3.175l-0.334,0.562c-0.519,0.86-1.153,1.854-1.937,2.693c-1.246,1.337-2.264,2.835-3.247,4.283
				l-0.229,0.339c-0.27,0.396-0.544,0.791-0.817,1.186c-0.592,0.854-1.204,1.737-1.773,2.638c-0.468,0.74-0.9,1.503-1.333,2.268
				c-0.27,0.476-0.538,0.95-0.816,1.419l-0.146,0.246c-0.349,0.59-0.678,1.146-1.067,1.637c-0.998,1.254-1.755,2.58-2.363,3.711
				c-0.377,0.7-0.726,1.416-1.075,2.132c-0.791,1.618-1.538,3.149-2.595,4.51c-0.712,0.918-1.167,2.077-1.315,3.349
				c-0.165,1.399-0.886,2.597-1.649,3.864l-0.284,0.473c-1.573,2.643-2.809,4.911-3.719,7.39c-0.159,0.437-0.333,0.866-0.506,1.297
				c-0.236,0.587-0.472,1.175-0.676,1.771c-0.85,2.479-1.788,4.645-2.868,6.617c-0.157,0.285-0.318,0.567-0.479,0.852
				c-0.774,1.364-1.574,2.774-1.938,4.45c-0.189,0.875-0.441,1.769-0.687,2.632c-0.188,0.672-0.377,1.343-0.544,2.02
				c-0.524,2.15-0.949,3.96-1.317,5.8c-0.163,0.813-0.283,1.636-0.404,2.459c-0.104,0.724-0.211,1.447-0.348,2.164
				c-0.195,1.023-0.451,2.066-0.699,3.076l-0.222,0.91c-0.028,0.118-0.093,0.389-0.172,0.512c-0.799,1.227-1.066,2.546-1.326,3.819
				c-0.08,0.392-0.159,0.782-0.255,1.169c-0.116,0.466-0.205,0.938-0.292,1.411l-0.055,0.291c-0.099,0.529-0.189,1.061-0.28,1.59
				c-0.188,1.092-0.383,2.221-0.641,3.299c-0.197,0.823-0.363,1.655-0.53,2.486c-0.315,1.581-0.614,3.072-1.117,4.527
				c-0.116,0.333-0.25,0.662-0.385,0.991c-0.167,0.411-0.334,0.821-0.473,1.243c-0.667,2.028-0.8,3.738-0.421,5.384
				c0.035,0.152,0.093,0.304,0.156,0.453c0.018,0.041,0.036,0.082,0.05,0.124c0.258,0.822,0.926,1.326,1.832,1.379
				c0.671,0.039,1.343,0.069,2.015,0.101c0.82,0.038,1.64,0.075,2.458,0.129l1.479,0.091c2.1,0.126,4.271,0.258,6.384,0.527
				c2.859,0.366,5.439,0.67,8.091,0.67h0.598c1.359,0,2.758,0.089,4.11,0.173c0.929,0.059,1.858,0.115,2.787,0.148
				c2.039,0.072,4.079,0.104,6.119,0.133l0.786,0.013c1.531,0.021,3.064,0.034,4.596,0.014c0.629-0.01,1.258-0.039,1.887-0.069
				c0.666-0.031,1.331-0.063,1.996-0.068l0.209-0.001c0.885,0,1.756,0.043,2.587,0.128c1.753,0.181,3.936,0.402,6.062,0.46
				l0.312,0.005c0.499,0,0.996-0.029,1.494-0.061c0.7-0.042,1.396-0.087,2.097-0.025c1.575,0.138,3.503,0.059,5.271-0.042
				c0.805-0.045,1.607-0.09,2.412-0.108c0.473-0.012,0.939-0.002,1.409,0.008c0.317,0.008,0.636,0.015,0.954,0.015l3.791-0.01
				c0.559,0,1.115,0.003,1.674,0.009c1.381,0.017,2.764,0.042,4.145,0.066c1.502,0.028,3.002,0.057,4.504,0.072
				c2.541,0.026,5.086,0.034,7.627,0.016c0.422-0.003,0.846-0.046,1.268-0.09c0.369-0.038,0.736-0.079,1.104-0.079
				c0.646,0.01,1.232,0.055,1.816,0.099c0.588,0.044,1.178,0.089,1.766,0.102c1.432,0.029,2.863,0.01,4.291-0.037
				c1.1-0.037,2.193-0.086,3.289-0.135c1.543-0.069,3.084-0.139,4.627-0.173c1.047-0.021,2.104,0.01,3.156,0.043
				c0.609,0.018,1.221,0.036,1.83,0.046l0.621,0.004l1.861-0.011c0.755,0,1.328,0.017,1.854,0.056
				c1.464,0.109,2.95,0.035,4.271-0.054c0.574-0.037,1.148-0.093,1.721-0.148c0.455-0.044,0.908-0.089,1.361-0.123
				c0.268-0.019,0.533-0.021,0.805-0.021c0.225-0.003,0.443-0.005,0.668-0.014l2.438-0.105c1.453-0.065,2.906-0.129,4.359-0.183
				c1.17-0.043,2.344-0.065,3.518-0.089l1.336-0.024c0.867-0.019,1.732-0.034,2.598-0.034h0.186
				c0.555,0.002,1.107,0.013,1.664,0.023c0.616,0.014,1.235,0.024,1.854,0.024h0.176c0.498-0.002,0.992-0.031,1.488-0.059
				c0.305-0.02,0.609-0.035,0.914-0.047c0.256-0.01,0.51-0.011,0.766-0.012c0.34-0.002,0.678-0.004,1.018-0.021
				c0.801-0.039,1.603-0.086,2.402-0.134l1.834-0.104c0.365-0.021,0.729-0.033,1.092-0.046c0.308-0.011,0.613-0.021,0.918-0.037
				c0.32-0.015,0.643-0.026,0.961-0.038c0.82-0.028,1.664-0.059,2.51-0.15c0.73-0.08,1.521-0.116,2.484-0.116
				c0.65,0,1.301,0.017,1.951,0.032c0.443,0.012,0.889,0.022,1.332,0.028l0.986,0.009c0.463,0.003,0.928,0.006,1.393,0.018
				c0.438,0.011,0.875,0.017,1.314,0.023c1.119,0.017,2.275,0.032,3.385,0.136c1.877,0.172,3.7,0.198,5.389,0.202
				c0.596,0.001,1.193,0.035,1.789,0.068c0.543,0.031,1.088,0.062,1.633,0.07h0.004C224.67,123.059,225.569,122.188,225.584,120.668
				z"/>
		</g>
	</g>
</g>
</svg>
