<?xml version="1.0" encoding="utf-8"?>
<!-- Generator: Adobe Illustrator 16.1.0, SVG Export Plug-In . SVG Version: 6.00 Build 0)  -->
<!DOCTYPE svg PUBLIC "-//W3C//DTD SVG 1.1//EN" "http://www.w3.org/Graphics/SVG/1.1/DTD/svg11.dtd">
<svg version="1.1" xmlns="http://www.w3.org/2000/svg" xmlns:xlink="http://www.w3.org/1999/xlink" x="0px" y="0px"
	 width="268.532px" height="145.021px" viewBox="0 0 268.532 145.021" enable-background="new 0 0 268.532 145.021"
	 xml:space="preserve">
<g id="Layer_2_1_">
</g>
<g id="Layer_1">
	<g id="Layer_1_1_">
	</g>
	<g>
		<path fill="#EBECD3" d="M69.343,90.51c-0.576-0.213-1.144-0.452-1.733-0.615c-0.44-0.122-0.911-0.136-1.366-0.208
			c-0.427-0.068-0.852-0.153-1.278-0.231c-0.007,0.048-0.013,0.097-0.021,0.145c-0.375-0.055-0.749-0.106-1.124-0.154
			c-0.146-0.02-0.306-0.064-0.438-0.025c-1.348,0.407-2.784,0.191-4.14,0.718c-1.135,0.438-2.404,0.523-3.601,0.812
			c-1.937,0.465-3.861,0.984-5.798,1.45c-1.49,0.356-2.963,0.753-4.332,1.463c-2.458,1.275-4.841,2.675-7.062,4.337
			c-1.768,1.321-3.532,2.644-5.292,3.974c-0.28,0.212-0.523,0.474-0.785,0.709c-0.306,0.276-0.577,0.612-0.926,0.818
			c-0.925,0.548-1.742,1.237-2.391,2.065c-1.124,1.432-2.343,2.843-3.155,4.445c-0.739,1.458-1.153,3.134-1.184,4.82
			c-0.02,1.045,0.308,2.032,0.779,2.965c0.703,1.398,1.676,2.614,2.622,3.847c0.072,0.094,0.178,0.17,0.224,0.271
			c0.455,1.028,1.382,1.466,2.312,1.931c1.021,0.512,1.995,1.115,3.015,1.627c1.159,0.582,2.403,0.888,3.69,1.096
			c0.883,0.142,1.721,0.554,2.592,0.797c0.675,0.188,1.371,0.327,2.063,0.44c0.899,0.148,1.807,0.246,2.708,0.373
			c1.443,0.204,2.861-0.062,4.287-0.207c1.757-0.177,3.521-0.293,5.275-0.505c1.603-0.191,3.203-0.441,4.793-0.729
			c1.729-0.314,3.22-1.233,4.777-1.987c0.894-0.432,1.144-1.275,1.34-2.074c0.349-1.419,0.543-2.855,0.508-4.354
			c-0.035-1.516,0.273-3.04,0.496-4.551c0.197-1.336,0.625-2.65,0.706-3.988c0.152-2.542,0.855-4.963,1.364-7.429
			c0.214-1.037,0.33-2.104,0.624-3.116c0.58-2,1.258-3.975,1.887-5.959C71.274,91.918,70.856,91.067,69.343,90.51z"/>
		<path fill="#EBECD3" d="M-26.234-23.99v187h322v-187H-26.234z M268.515,138.446c-0.044,1.386-0.731,2.576-1.955,3.256
			c-1.218,0.676-2.455,1.27-3.946,1.36c-1.595,0.098-3.171,0.568-4.746,0.905c-1.281,0.271-2.578,0.066-3.861,0.178
			c-0.055,0.005-0.112-0.035-0.172-0.039c-1.873-0.146-3.746-0.358-5.621-0.416c-2.213-0.07-4.43,0.08-6.637-0.034
			c-1.117-0.057-2.209-0.066-3.322,0.014c-1.487,0.108-2.985,0.058-4.479,0.103c-2.67,0.083-5.34,0.176-8.01,0.287
			c-1.786,0.075-3.568,0.188-5.353,0.286c-1.404,0.074-2.808,0.152-4.207,0.228c-0.146,0.008-0.289-0.014-0.433-0.018
			c-1.709-0.056-3.42-0.197-5.125-0.136c-1.444,0.055-2.881,0.085-4.319-0.051c-0.756-0.071-1.543-0.211-2.271-0.08
			c-1.354,0.244-2.693,0.062-4.039,0.079c-2.054,0.025-4.106,0.068-6.16,0.115c-1.207,0.028-2.414,0.058-3.619,0.128
			c-1,0.058-1.993,0.23-2.991,0.25c-1.591,0.03-3.181-0.057-4.771-0.037c-1.793,0.022-3.588,0.121-5.382,0.16
			c-1.524,0.033-3.051,0.045-4.575,0.035c-1.32-0.011-2.642-0.085-3.961-0.09c-1.207-0.007-2.414,0.075-3.621,0.064
			c-2.681-0.023-5.356-0.115-8.036-0.125c-2.911-0.01-5.822,0.049-8.736,0.061c-1.738,0.007-3.49,0.104-5.213-0.064
			c-1.986-0.196-3.938,0.063-5.906,0.109c-1.619,0.039-3.238,0.031-4.855-0.002c-1.059-0.022-2.113-0.18-3.172-0.189
			c-1.584-0.016-3.17,0.063-4.756,0.066c-1.352,0.003-2.705-0.041-4.058-0.07c-1.612-0.035-3.228-0.034-4.837-0.123
			c-1.729-0.096-3.447-0.315-5.174-0.412c-2.236-0.127-4.476-0.184-6.713-0.271c-0.968-0.039-1.961-0.229-2.901-0.084
			c-1.545,0.235-3.04-0.173-4.565-0.169c-1.831,0.004-3.662-0.425-5.495-0.646c-0.313-0.039-0.636,0.024-0.953,0.017
			c-0.821-0.015-1.644-0.019-2.463-0.07c-1.732-0.113-3.462-0.302-5.196-0.373c-1.844-0.076-3.693-0.045-5.54-0.079
			c-1.148-0.021-2.305-0.184-3.442-0.083c-1.11,0.098-2.209,0.168-3.324,0.146c-1.234-0.021-2.474,0.098-3.709,0.062
			c-2.41-0.068-4.819-0.25-7.229-0.291c-2.388-0.039-4.779,0.04-7.168,0.059c-0.501,0.004-1.006-0.002-1.505-0.049
			c-1.609-0.15-3.215-0.34-4.825-0.487c-1.024-0.093-2.057-0.112-3.082-0.205c-1.257-0.113-2.511-0.274-3.768-0.402
			c-2.369-0.241-4.743-0.432-7.106-0.723c-1.859-0.229-3.717-0.517-5.552-0.889c-1.344-0.271-2.65-0.722-3.974-1.095
			c-0.757-0.213-1.505-0.552-2.275-0.621c-1.954-0.175-3.736-0.851-5.445-1.722c-1.939-0.986-3.762-2.188-5.45-3.558
			c-0.952-0.773-1.851-1.647-2.628-2.597c-0.816-0.994-1.5-2.102-2.167-3.206c-1.352-2.241-2.615-4.527-3.241-7.104
			c-0.071-0.287-0.314-0.53-0.477-0.792C0,118.833,0,118.655,0,118.477c0.131-0.402,0.334-0.798,0.369-1.212
			c0.099-0.956,0.091-1.924,0.188-2.881c0.048-0.487,0.191-0.976,0.354-1.44c0.241-0.692,0.647-1.343,0.785-2.05
			c0.185-0.948,0.567-1.786,0.997-2.622c1.127-2.198,2.436-4.289,3.808-6.339c0.424-0.634,0.829-1.28,1.269-1.902
			c0.221-0.31,0.499-0.578,0.758-0.859c0.952-1.043,1.829-2.17,2.879-3.101c1.562-1.385,3.207-2.687,4.889-3.924
			c1.8-1.324,3.668-2.561,5.537-3.786c0.955-0.627,1.978-1.151,2.972-1.72c0.993-0.568,1.969-1.173,2.989-1.691
			c1.021-0.52,2.096-0.93,3.127-1.43c0.66-0.32,1.314-0.672,1.913-1.091c0.724-0.506,1.427-1.017,2.258-1.351
			c0.708-0.285,1.429-0.596,2.048-1.03c1.265-0.889,2.664-1.492,4.051-2.133c1.258-0.579,2.459-1.245,3.59-2.052
			c1.074-0.767,2.24-1.385,3.468-1.88c0.271-0.11,0.567-0.159,0.833-0.279c1.126-0.509,2.281-0.968,3.356-1.57
			c1.191-0.668,2.457-1.217,3.482-2.188c0.578-0.55,1.346-0.914,2.058-1.309c1.338-0.74,2.701-1.437,4.046-2.163
			c0.798-0.432,1.564-0.924,2.376-1.323c1.441-0.709,2.975-1.213,4.385-2.004c1.049-0.59,2.178-1.041,3.084-1.863
			c1.063-0.963,2.274-1.764,3.139-2.95c0.268-0.364,0.696-0.612,1.052-0.913c0.518-0.435,1.101-0.812,1.543-1.314
			c0.928-1.06,1.867-2.125,2.641-3.293c0.669-1.008,1.478-1.845,2.279-2.729c1.085-1.2,2.316-2.25,3.378-3.463
			c0.807-0.922,1.778-1.703,2.307-2.868c0.18-0.396,0.622-0.68,0.95-1.009c0.226-0.227,0.523-0.406,0.685-0.672
			c1.203-1.949,2.423-3.893,3.553-5.886c1.209-2.137,2.721-4.062,4.138-6.051c0.633-0.889,1.212-1.793,1.759-2.737
			c0.955-1.651,2.031-3.234,3.093-4.823c0.505-0.755,0.982-1.591,1.67-2.146c0.908-0.732,1.372-1.746,2.048-2.62
			c0.385-0.5,0.529-1.188,1.216-1.44c0.097-0.036,0.198-0.154,0.233-0.256c0.416-1.196,1.307-2.092,1.987-3.115
			c0.558-0.84,1.418-1.438,1.938-2.342c0.361-0.624,0.967-1.104,1.365-1.709c0.628-0.955,1.155-1.976,1.765-2.944
			c0.293-0.465,0.646-0.902,1.034-1.297c1.148-1.166,2.782-1.502,4.125-2.342c0.113-0.07,0.287-0.035,0.43-0.062
			c1.241-0.229,2.477-0.477,3.721-0.692c0.461-0.08,0.937-0.157,1.399-0.125c0.994,0.07,1.981,0.224,2.972,0.324
			c0.616,0.059,1.234,0.088,1.85,0.111c0.736,0.031,1.488-0.043,2.205,0.094c0.979,0.181,1.92,0.138,2.885-0.02
			c0.984-0.16,1.973-0.334,2.965-0.362c1.551-0.048,3.107,0.034,4.664,0.036c0.672,0,1.348-0.088,2.021-0.094
			c0.908-0.01,1.82,0.068,2.727,0.023c1.911-0.094,3.823-0.214,5.727-0.373c1.459-0.124,2.897-0.425,4.377-0.386
			c1.486,0.036,2.979-0.094,4.465-0.132c0.941-0.023,1.887-0.029,2.828-0.021c1.351,0.012,2.705,0,4.054,0.086
			c0.885,0.057,1.754,0.051,2.639-0.044c1.072-0.114,2.162-0.116,3.244-0.126c0.67-0.006,1.343,0.111,2.011,0.092
			c1.406-0.037,2.811-0.134,4.219-0.194c1.026-0.044,2.06-0.104,3.088-0.093c2.734,0.025,5.472,0.121,8.207,0.123
			c1.793,0,3.59-0.086,5.384-0.188c0.741-0.041,1.479-0.226,2.217-0.345c0.06,0,0.117,0,0.179,0c0.723,0.104,1.442,0.269,2.17,0.293
			c1.948,0.07,3.918-0.053,5.774,0.736c0.054,0.023,0.112,0.031,0.17,0.045c1.929,0.406,3.865,0.783,5.783,1.231
			c0.56,0.132,1.106,0.407,1.599,0.72c0.689,0.435,1.325,0.96,1.979,1.453c1.234,0.934,2.322,1.951,2.814,3.519
			c0.233,0.732,0.695,1.446,1.215,2.021c1.387,1.527,2.168,3.418,3.213,5.148c0.072,0.119,0.072,0.283,0.125,0.418
			c0.127,0.326,0.22,0.682,0.408,0.973c0.655,1.008,1.356,1.984,2.019,2.99c0.788,1.204,1.627,2.387,2.313,3.648
			c0.656,1.207,1.156,2.5,1.709,3.765c0.33,0.749,0.584,1.533,0.938,2.271c0.409,0.847,0.903,1.65,1.344,2.482
			c1.009,1.897,2.08,3.769,2.987,5.712c0.587,1.257,1.294,2.431,1.972,3.627c0.218,0.385,0.5,0.734,0.688,1.132
			c0.928,1.969,1.846,3.943,2.748,5.926c0.388,0.851,0.66,1.762,1.11,2.574c0.728,1.307,1.38,2.65,2.132,3.95
			c1.129,1.943,2.205,3.938,2.871,6.127c0.777,2.56,1.674,5.086,2.531,7.62c0.357,1.056,0.645,2.148,1.42,3.01
			c0.096,0.104,0.143,0.256,0.197,0.391c0.504,1.22,1.045,2.426,1.492,3.667c0.529,1.46,0.982,2.947,1.461,4.426
			c0.137,0.414,0.246,0.835,0.369,1.253c0.438,1.464,0.869,2.935,1.32,4.395c0.416,1.344,0.863,2.678,1.289,4.019
			c0.283,0.895,0.543,1.794,0.83,2.688c0.168,0.528,0.451,1.038,0.525,1.578c0.24,1.74,0.967,3.321,1.529,4.958
			c0.535,1.554,1.188,3.066,1.426,4.715c0.052,0.373,0.349,0.762,0.281,1.092c-0.121,0.577,0.146,1.031,0.25,1.536
			c0.055,0.287,0.159,0.562,0.229,0.849c0.266,1.112,0.496,2.232,0.791,3.336c0.166,0.617,0.461,1.197,0.646,1.811
			c0.148,0.507,0.188,1.047,0.336,1.553c0.252,0.846,0.639,1.658,0.816,2.515c0.464,2.241,0.893,4.491,1.236,6.753
			c0.219,1.414,0.246,2.858,0.383,4.287c0.14,1.487,0.304,2.975,0.465,4.457c0.061,0.528,0.197,1.049,0.221,1.577
			C268.447,134.977,268.57,136.715,268.515,138.446z"/>
		<path fill="#EBECD3" d="M264.075,123.445c-0.705-2.303-0.58-4.713-1.033-7.042c-0.184-0.947-0.43-1.889-0.723-2.81
			c-0.434-1.37-0.973-2.706-1.396-4.078c-0.441-1.432-0.782-2.893-1.207-4.326c-0.69-2.338-1.272-4.712-2.264-6.953
			c-0.787-1.781-1.3-3.646-1.733-5.539c-0.125-0.541-0.36-1.056-0.528-1.587c-0.479-1.514-0.919-3.042-1.438-4.543
			c-0.354-1.021-0.828-2-1.225-3.008c-0.654-1.669-1.27-3.355-1.939-5.018c-0.688-1.688-1.412-3.361-2.141-5.034
			c-0.912-2.104-1.904-4.174-2.756-6.302c-0.783-1.963-1.386-3.999-2.14-5.976c-0.642-1.671-1.354-3.313-2.084-4.947
			c-1.073-2.411-2.207-4.796-3.28-7.206c-0.652-1.473-1.248-2.971-1.871-4.457c-0.021-0.054-0.056-0.103-0.082-0.156
			c-0.658-1.275-1.227-2.613-2.006-3.812c-0.665-1.014-1.225-2.069-1.771-3.137c-0.215-0.416-0.387-0.855-0.582-1.281
			c-0.269-0.583-0.539-1.167-0.816-1.746c-0.498-1.031-0.988-2.069-1.507-3.09c-0.688-1.361-1.406-2.707-2.099-4.066
			c-0.811-1.596-1.561-3.225-2.42-4.793c-0.746-1.362-1.6-2.666-2.418-3.988c-0.727-1.176-1.457-2.35-2.213-3.506
			c-0.621-0.952-1.295-1.87-1.924-2.817c-1.1-1.656-2.645-2.897-4.016-4.298c-0.906-0.925-2.041-1.432-3.332-1.646
			c-2.115-0.349-4.209-0.887-6.338-1.107c-1.436-0.147-2.908-0.52-4.379-0.032c-0.328,0.108-0.816,0.065-1.111-0.107
			c-1.088-0.645-2.287-0.428-3.439-0.545c-0.604-0.062-1.223,0.035-1.834,0.028c-2.646-0.029-5.293-0.083-7.941-0.099
			c-0.672-0.004-1.348,0.144-2.021,0.155c-1.972,0.035-3.938-0.012-5.908,0.146c-2.047,0.161-4.109,0.06-6.162,0.146
			c-2.08,0.088-4.154,0.287-6.232,0.402c-1.145,0.062-2.297,0.047-3.446,0.078c-2.267,0.061-4.517,0.26-6.745,0.701
			c-1.257,0.249-2.507,0.181-3.77-0.058c-1.211-0.229-2.432-0.271-3.676-0.11c-1.215,0.155-2.416,0.413-3.67,0.361
			c-2.084-0.087-4.176-0.031-6.265-0.01c-1.978,0.021-3.947,0.071-5.922,0.12c-0.412,0.009-0.832,0.023-1.234,0.105
			c-1.696,0.341-3.393,0.461-5.131,0.332c-1.104-0.081-2.258-0.021-3.333,0.224c-1.426,0.323-2.779,0.901-3.989,1.798
			c-1.72,1.271-2.938,2.932-3.987,4.758c-0.395,0.685-0.863,1.342-1.38,1.943c-0.694,0.807-1.211,1.723-1.803,2.594
			c-0.708,1.047-1.525,2.02-2.273,3.043c-0.343,0.47-0.655,0.969-0.942,1.475c-0.638,1.127-1.178,2.316-1.896,3.389
			c-0.668,0.996-1.55,1.847-2.271,2.812c-1.129,1.509-2.216,3.049-3.289,4.598c-0.5,0.723-1.058,1.447-1.355,2.258
			c-0.434,1.184-1.092,2.226-1.821,3.207c-0.788,1.057-1.556,2.117-2.22,3.258c-0.103,0.176-0.222,0.343-0.298,0.53
			c-0.592,1.437-1.622,2.569-2.535,3.79c-0.646,0.864-1.159,1.833-1.745,2.745c-0.254,0.396-0.523,0.783-0.82,1.146
			c-0.783,0.955-1.573,1.903-2.383,2.836c-0.732,0.843-1.465,1.688-2.25,2.483c-1.654,1.679-3.285,3.389-5.033,4.966
			c-1.747,1.575-3.626,3.004-5.444,4.5c-0.296,0.242-0.582,0.497-0.872,0.746c-1.892,1.61-4.137,2.683-6.204,4.025
			c-1.9,1.235-3.921,2.254-5.956,3.244c-0.291,0.142-0.609,0.226-0.901,0.363c-0.799,0.377-1.618,0.721-2.379,1.162
			c-1.453,0.845-3.01,1.448-4.552,2.095c-1.438,0.602-2.844,1.28-4.258,1.935c-1.199,0.558-2.419,1.075-3.578,1.704
			c-1.625,0.88-3.166,1.915-4.804,2.766c-2.349,1.218-4.742,2.352-7.138,3.477c-1.547,0.727-3.094,1.433-4.516,2.403
			c-0.72,0.493-1.568,0.805-2.359,1.197c-0.209,0.104-0.433,0.184-0.629,0.309c-1.543,0.973-3.099,1.923-4.612,2.941
			c-1.876,1.263-3.767,2.515-5.546,3.905c-1.078,0.845-2.004,1.905-2.914,2.942c-0.737,0.839-1.424,1.713-2.299,2.419
			c-1.108,0.891-2.053,1.908-2.67,3.222c-0.204,0.438-0.619,0.778-0.959,1.146c-0.727,0.784-1.391,1.615-1.718,2.644
			c-0.382,1.202-0.694,2.426-1.034,3.644c-0.04,0.14-0.04,0.301-0.111,0.422c-0.729,1.227-0.584,2.532-0.391,3.854
			c0.068,0.462-0.011,0.95,0.076,1.407c0.317,1.669,0.921,3.196,2.06,4.518c0.604,0.703,1.063,1.555,1.479,2.393
			c0.321,0.647,0.711,1.208,1.251,1.674c0.825,0.712,1.68,1.392,2.471,2.14c0.81,0.771,1.858,1.123,2.778,1.7
			c1.066,0.669,2.137,1.353,3.275,1.88c1.858,0.864,3.769,1.619,5.779,2.084c1.087,0.251,2.165,0.55,3.261,0.756
			c1.328,0.251,2.664,0.508,4.008,0.619c1.891,0.159,3.791,0.185,5.686,0.274c0.854,0.042,1.707,0.105,2.559,0.166
			c1.228,0.086,2.457,0.15,3.682,0.272c0.788,0.079,1.566,0.261,2.352,0.367c0.934,0.129,1.873,0.223,2.808,0.345
			c0.758,0.101,1.516,0.212,2.271,0.337c2.1,0.349,4.205,0.51,6.334,0.267c1.443-0.165,2.874,0.109,4.312,0.2
			c1.605,0.102,3.208,0.269,4.83-0.068c1.019-0.211,2.099-0.188,3.151-0.169c1.096,0.021,2.093-0.289,3.054-0.728
			c0.732-0.333,1.175-0.852,1.17-1.782c-0.004-0.959,0.239-1.919,0.388-2.876c0.22-1.423,0.407-2.854,0.696-4.264
			c0.278-1.352,0.62-2.69,1.016-4.012c0.753-2.515,1.394-5.054,1.813-7.646c0.187-1.161,0.33-2.33,0.542-3.486
			c0.133-0.721,0.37-1.42,0.532-2.136c0.287-1.262,0.532-2.533,0.833-3.79c0.241-0.999,0.538-1.985,0.811-2.978
			c0.448-1.613,0.889-3.229,1.346-4.843c0.353-1.245,0.791-2.468,1.08-3.727c0.421-1.839,1.238-3.539,1.756-5.343
			c0.042-0.142,0.093-0.284,0.169-0.409c1.172-1.933,1.651-4.134,2.417-6.225c0.494-1.346,1.061-2.665,1.545-4.014
			c0.408-1.131,0.799-2.274,1.096-3.439c0.256-0.99,0.801-1.82,1.266-2.699c0.177-0.339,0.416-0.646,0.573-0.989
			c0.973-2.141,1.927-4.288,2.899-6.429c0.121-0.267,0.333-0.489,0.459-0.755c0.2-0.416,0.369-0.85,0.541-1.277
			c0.11-0.274,0.164-0.57,0.302-0.827c0.874-1.634,1.825-3.232,2.633-4.898c1.038-2.145,2.234-4.195,3.438-6.247
			c0.192-0.326,0.346-0.677,0.507-1.021c0.703-1.502,1.725-2.799,2.697-4.123c1.704-2.324,3.47-4.614,4.886-7.127
			c1.513-2.688,3.56-4.964,5.407-7.398c0.869-1.146,1.695-2.344,2.694-3.367c1.561-1.604,3.256-3.074,4.884-4.611
			c1.331-1.258,2.859-2.243,4.368-3.266c2.049-1.392,4.062-2.841,6.332-3.857c2.166-0.972,4.328-1.988,6.666-2.486
			c1.263-0.269,2.558-0.375,3.834-0.578c1.529-0.242,3.054-0.045,4.578,0.023c2.027,0.092,4.051,0.232,6.076-0.085
			c0.6-0.093,1.229,0.02,1.844,0.021c1.25,0.005,2.5-0.01,3.752-0.006c0.349,0,0.695,0.038,1.043,0.061
			c0.73,0.043,1.461,0.088,2.193,0.132c1.139,0.069,2.275,0.171,3.418,0.202c2.109,0.058,4.225,0.071,6.338,0.114
			c0.881,0.02,1.764,0.024,2.639,0.114c2.633,0.27,5.246,0.69,7.912,0.555c1.58-0.082,3.188-0.146,4.742,0.07
			c1.023,0.146,2.033,0.265,3.062,0.271c0.854,0.005,1.705,0.062,2.558,0.064c0.735,0.002,1.476-0.002,2.205-0.062
			c1.523-0.129,2.937,0.322,4.258,0.953c1.906,0.909,3.781,1.902,5.586,3.002c1.595,0.975,3.188,2.012,4.572,3.256
			c1.678,1.507,3.407,3.001,4.744,4.854c1.611,2.244,3.275,4.457,4.764,6.781c0.683,1.064,1.399,2.103,2.082,3.164
			c0.267,0.417,0.625,0.774,0.938,1.164c0.203,0.252,0.404,0.504,0.588,0.771c0.229,0.338,0.394,0.736,0.673,1.024
			c0.871,0.897,1.434,2.002,2.139,3.013c0.469,0.673,0.996,1.316,1.572,1.896c0.672,0.68,0.92,1.565,1.338,2.371
			c1.01,1.955,1.678,4.068,2.828,5.967c1.293,2.129,2.4,4.357,3.387,6.656c0.496,1.16,1.023,2.299,1.431,3.498
			c0.125,0.373,0.44,0.679,0.64,1.032c0.562,0.994,1.157,1.979,1.662,3.005c0.715,1.445,1.361,2.928,2.032,4.396
			c0.147,0.32,0.269,0.652,0.403,0.979c0.578,1.382,1.146,2.768,1.729,4.146c0.481,1.138,0.979,2.271,1.467,3.405
			c0.754,1.755,1.527,3.501,2.25,5.271c0.84,2.062,1.631,4.146,2.445,6.218c0.407,1.035,0.862,2.056,1.232,3.104
			c0.447,1.269,0.824,2.562,1.232,3.842c0.25,0.779,0.51,1.557,0.75,2.338c0.268,0.868,0.5,1.75,0.783,2.612
			c0.48,1.476,0.979,2.945,1.488,4.41c0.424,1.219,0.889,2.426,1.309,3.646c0.104,0.301,0.1,0.637,0.15,0.952
			c0.33,2.088,0.666,4.172,1.16,6.234c0.457,1.914,0.742,3.869,1.076,5.81c0.354,2.059,0.653,4.123,1.02,6.18
			c0.219,1.24,0.486,2.479,0.799,3.698c0.156,0.617,0.41,1.224,0.705,1.788c0.416,0.796,1.17,1.115,2.027,1.224
			c0.086,0.01,0.197,0.021,0.26-0.021c0.867-0.596,1.861-1.098,2.09-2.262c0.141-0.72,0.186-1.458,0.252-1.992
			c-0.166-3.059-0.377-5.899-1.154-8.678C264.315,125.439,264.366,124.391,264.075,123.445z M74.336,93.582
			c-0.143,0.213-0.255,0.461-0.32,0.71c-0.616,2.361-1.227,4.727-1.821,7.095c-0.107,0.426-0.136,0.87-0.195,1.309
			c-0.138,1.051-0.234,2.11-0.415,3.154c-0.218,1.266-0.751,2.46-0.874,3.755c-0.123,1.283-0.283,2.562-0.442,3.843
			c-0.062,0.492-0.165,0.979-0.258,1.469c-0.044,0.23-0.138,0.453-0.159,0.686c-0.14,1.524-0.258,3.054-0.4,4.58
			c-0.1,1.087-0.208,2.174-0.354,3.255c-0.057,0.431-0.191,0.86-0.359,1.264c-0.191,0.458-0.461,0.881-0.69,1.323
			c-0.194,0.376-0.444,0.657-0.844,0.861c-1.484,0.764-2.943,1.574-4.416,2.364c-0.15,0.082-0.316,0.146-0.48,0.191
			c-0.846,0.23-1.698,0.438-2.539,0.684c-0.704,0.205-1.38,0.565-2.094,0.656c-2.382,0.304-4.729,0.906-7.171,0.734
			c-1.333-0.095-2.682-0.176-4.026,0.095c-0.44,0.088-0.934-0.145-1.396-0.12c-1.253,0.065-2.438-0.294-3.638-0.539
			c-1.091-0.223-2.152-0.624-3.25-0.782c-1.933-0.276-3.802-0.783-5.653-1.37c-0.578-0.184-1.103-0.528-1.668-0.764
			c-1.013-0.418-1.964-0.931-2.745-1.71c-0.976-0.975-1.929-1.973-2.903-2.95c-1.356-1.356-2.263-3.011-3.034-4.731
			c-0.814-1.823-1.033-3.785-1.111-6.056c-0.081-0.874,0.108-1.993,0.602-3.044c0.391-0.825,0.83-1.627,1.254-2.436
			c0.299-0.571,0.545-1.186,0.927-1.695c0.562-0.751,1.215-1.432,1.839-2.135c0.293-0.33,0.657-0.604,0.906-0.962
			c0.833-1.203,2.041-2.029,3.035-3.068c1.037-1.085,2.299-1.894,3.506-2.765c1.48-1.069,2.942-2.178,4.514-3.097
			c1.67-0.977,3.342-1.968,5.162-2.684c1.115-0.438,2.127-1.131,3.225-1.622c0.604-0.27,1.291-0.348,1.938-0.534
			c1.3-0.371,2.583-0.821,3.901-1.125c2.204-0.505,4.426-0.937,6.648-1.361c0.98-0.188,1.972-0.366,2.964-0.404
			c0.995-0.037,1.996,0.146,2.997,0.162c2.119,0.035,4.107,0.694,6.124,1.223c0.17,0.044,0.34,0.112,0.489,0.204
			c1.099,0.685,2.147,1.443,2.992,2.433c0.217,0.255,0.328,0.621,0.416,0.954c0.098,0.366,0.048,0.778,0.175,1.132
			C74.951,92.463,74.716,93.022,74.336,93.582z"/>
	</g>
</g>
<g id="Layer_1_copy">
	<g id="Layer_1_3_">
	</g>
	<g id="Layer_2_2_">
		<g>
			<g>
				<path fill="#BABAA0" d="M0,118.477c0.131-0.402,0.334-0.798,0.369-1.212c0.099-0.956,0.091-1.924,0.188-2.881
					c0.048-0.487,0.191-0.976,0.354-1.44c0.241-0.692,0.647-1.343,0.785-2.05c0.185-0.948,0.567-1.786,0.997-2.622
					c1.127-2.198,2.436-4.289,3.808-6.339c0.424-0.634,0.829-1.28,1.269-1.902c0.221-0.31,0.499-0.578,0.758-0.859
					c0.952-1.043,1.829-2.17,2.879-3.101c1.562-1.385,3.207-2.687,4.889-3.924c1.8-1.324,3.668-2.561,5.537-3.786
					c0.955-0.627,1.978-1.151,2.972-1.72c0.993-0.568,1.969-1.173,2.989-1.691c1.021-0.52,2.096-0.93,3.127-1.43
					c0.66-0.32,1.314-0.672,1.913-1.091c0.724-0.506,1.427-1.017,2.258-1.351c0.708-0.285,1.429-0.596,2.048-1.03
					c1.265-0.889,2.664-1.492,4.051-2.133c1.258-0.579,2.459-1.245,3.59-2.052c1.074-0.767,2.24-1.385,3.468-1.88
					c0.271-0.11,0.567-0.159,0.833-0.279c1.126-0.509,2.281-0.968,3.356-1.57c1.191-0.668,2.457-1.217,3.482-2.188
					c0.578-0.55,1.346-0.914,2.058-1.309c1.338-0.74,2.701-1.437,4.046-2.163c0.798-0.432,1.564-0.924,2.376-1.323
					c1.441-0.709,2.975-1.213,4.385-2.004c1.049-0.59,2.178-1.041,3.084-1.863c1.063-0.963,2.274-1.764,3.139-2.95
					c0.268-0.364,0.696-0.612,1.052-0.913c0.518-0.435,1.101-0.812,1.543-1.314c0.928-1.06,1.867-2.125,2.641-3.293
					c0.669-1.008,1.478-1.845,2.279-2.729c1.085-1.2,2.316-2.25,3.378-3.463c0.807-0.922,1.778-1.703,2.307-2.868
					c0.18-0.396,0.622-0.68,0.95-1.009c0.226-0.227,0.523-0.406,0.685-0.672c1.203-1.949,2.423-3.893,3.553-5.886
					c1.209-2.137,2.721-4.062,4.138-6.051c0.633-0.889,1.212-1.793,1.759-2.737c0.955-1.651,2.031-3.234,3.093-4.823
					c0.505-0.755,0.982-1.591,1.67-2.146c0.908-0.732,1.372-1.746,2.048-2.62c0.385-0.5,0.529-1.188,1.216-1.44
					c0.097-0.036,0.198-0.154,0.233-0.256c0.416-1.196,1.307-2.092,1.987-3.115c0.558-0.84,1.418-1.438,1.938-2.342
					c0.361-0.624,0.967-1.104,1.365-1.709c0.628-0.955,1.155-1.976,1.765-2.944c0.293-0.465,0.646-0.902,1.034-1.297
					c1.148-1.166,2.782-1.502,4.125-2.342c0.113-0.07,0.287-0.035,0.43-0.062c1.241-0.229,2.477-0.477,3.721-0.692
					c0.461-0.08,0.937-0.157,1.399-0.125c0.994,0.07,1.981,0.224,2.972,0.324c0.616,0.059,1.234,0.088,1.85,0.111
					c0.736,0.031,1.488-0.043,2.205,0.094c0.979,0.181,1.92,0.138,2.885-0.02c0.984-0.16,1.973-0.334,2.965-0.362
					c1.551-0.048,3.107,0.034,4.664,0.036c0.672,0,1.348-0.088,2.021-0.094c0.908-0.01,1.82,0.068,2.727,0.023
					c1.911-0.094,3.823-0.214,5.727-0.373c1.459-0.124,2.897-0.425,4.377-0.386c1.486,0.036,2.979-0.094,4.465-0.132
					c0.941-0.023,1.887-0.029,2.828-0.021c1.351,0.012,2.705,0,4.054,0.086c0.885,0.057,1.754,0.051,2.639-0.044
					c1.072-0.114,2.162-0.116,3.244-0.126c0.67-0.006,1.343,0.111,2.011,0.092c1.406-0.037,2.811-0.134,4.219-0.194
					c1.026-0.044,2.06-0.104,3.088-0.093c2.734,0.025,5.472,0.121,8.207,0.123c1.793,0,3.59-0.086,5.384-0.188
					c0.741-0.041,1.479-0.226,2.217-0.345c0.06,0,0.117,0,0.179,0c0.723,0.104,1.442,0.269,2.17,0.293
					c1.948,0.07,3.918-0.053,5.774,0.736c0.054,0.023,0.112,0.031,0.17,0.045c1.929,0.406,3.865,0.783,5.783,1.231
					c0.56,0.132,1.106,0.407,1.599,0.72c0.689,0.435,1.325,0.96,1.979,1.453c1.234,0.934,2.322,1.951,2.814,3.519
					c0.233,0.732,0.695,1.446,1.215,2.021c1.387,1.527,2.168,3.418,3.213,5.148c0.072,0.119,0.072,0.283,0.125,0.418
					c0.127,0.326,0.22,0.682,0.408,0.973c0.655,1.008,1.356,1.984,2.019,2.99c0.788,1.204,1.627,2.387,2.313,3.648
					c0.656,1.207,1.156,2.5,1.709,3.765c0.33,0.749,0.584,1.533,0.938,2.271c0.409,0.847,0.903,1.65,1.344,2.482
					c1.009,1.897,2.08,3.769,2.987,5.712c0.587,1.257,1.294,2.431,1.972,3.627c0.218,0.385,0.5,0.734,0.688,1.132
					c0.928,1.969,1.846,3.943,2.748,5.926c0.388,0.851,0.66,1.762,1.11,2.574c0.728,1.307,1.38,2.65,2.132,3.95
					c1.129,1.943,2.205,3.938,2.871,6.127c0.777,2.56,1.674,5.086,2.531,7.62c0.357,1.056,0.645,2.148,1.42,3.01
					c0.096,0.104,0.143,0.256,0.197,0.391c0.504,1.22,1.045,2.426,1.492,3.667c0.529,1.46,0.982,2.947,1.461,4.426
					c0.137,0.414,0.246,0.835,0.369,1.253c0.438,1.464,0.869,2.935,1.32,4.395c0.416,1.344,0.863,2.678,1.289,4.019
					c0.283,0.895,0.543,1.794,0.83,2.688c0.168,0.528,0.451,1.038,0.525,1.578c0.24,1.74,0.967,3.321,1.529,4.958
					c0.535,1.554,1.188,3.066,1.426,4.715c0.052,0.373,0.349,0.762,0.281,1.092c-0.121,0.577,0.146,1.031,0.25,1.536
					c0.055,0.287,0.159,0.562,0.229,0.849c0.266,1.112,0.496,2.232,0.791,3.336c0.166,0.617,0.461,1.197,0.646,1.811
					c0.148,0.507,0.188,1.047,0.336,1.553c0.252,0.846,0.639,1.658,0.816,2.515c0.464,2.241,0.893,4.491,1.236,6.753
					c0.219,1.414,0.246,2.858,0.383,4.287c0.14,1.487,0.304,2.975,0.465,4.457c0.061,0.528,0.197,1.049,0.221,1.577
					c0.077,1.735,0.2,3.473,0.146,5.204c-0.044,1.386-0.731,2.576-1.955,3.256c-1.218,0.676-2.455,1.27-3.946,1.36
					c-1.595,0.098-3.171,0.568-4.746,0.905c-1.281,0.271-2.578,0.066-3.861,0.178c-0.055,0.005-0.112-0.035-0.172-0.039
					c-1.873-0.146-3.746-0.358-5.621-0.416c-2.213-0.07-4.43,0.08-6.637-0.034c-1.117-0.057-2.209-0.066-3.322,0.014
					c-1.487,0.108-2.985,0.058-4.479,0.103c-2.67,0.083-5.34,0.176-8.01,0.287c-1.786,0.075-3.568,0.188-5.353,0.286
					c-1.404,0.074-2.808,0.152-4.207,0.228c-0.146,0.008-0.289-0.014-0.433-0.018c-1.709-0.056-3.42-0.197-5.125-0.136
					c-1.444,0.055-2.881,0.085-4.319-0.051c-0.756-0.071-1.543-0.211-2.271-0.08c-1.354,0.244-2.693,0.062-4.039,0.079
					c-2.054,0.025-4.106,0.068-6.16,0.115c-1.207,0.028-2.414,0.058-3.619,0.128c-1,0.058-1.993,0.23-2.991,0.25
					c-1.591,0.03-3.181-0.057-4.771-0.037c-1.793,0.022-3.588,0.121-5.382,0.16c-1.524,0.033-3.051,0.045-4.575,0.035
					c-1.32-0.011-2.642-0.085-3.961-0.09c-1.207-0.007-2.414,0.075-3.621,0.064c-2.681-0.023-5.356-0.115-8.036-0.125
					c-2.911-0.01-5.822,0.049-8.736,0.061c-1.738,0.007-3.49,0.104-5.213-0.064c-1.986-0.196-3.938,0.063-5.906,0.109
					c-1.619,0.039-3.238,0.031-4.855-0.002c-1.059-0.022-2.113-0.18-3.172-0.189c-1.584-0.016-3.17,0.063-4.756,0.066
					c-1.352,0.003-2.705-0.041-4.058-0.07c-1.612-0.035-3.228-0.034-4.837-0.123c-1.729-0.096-3.447-0.315-5.174-0.412
					c-2.236-0.127-4.476-0.184-6.713-0.271c-0.968-0.039-1.961-0.229-2.901-0.084c-1.545,0.235-3.04-0.173-4.565-0.169
					c-1.831,0.004-3.662-0.425-5.495-0.646c-0.313-0.039-0.636,0.024-0.953,0.017c-0.821-0.015-1.644-0.019-2.463-0.07
					c-1.732-0.113-3.462-0.302-5.196-0.373c-1.844-0.076-3.693-0.045-5.54-0.079c-1.148-0.021-2.305-0.184-3.442-0.083
					c-1.11,0.098-2.209,0.168-3.324,0.146c-1.234-0.021-2.474,0.098-3.709,0.062c-2.41-0.068-4.819-0.25-7.229-0.291
					c-2.388-0.039-4.779,0.04-7.168,0.059c-0.501,0.004-1.006-0.002-1.505-0.049c-1.609-0.15-3.215-0.34-4.825-0.487
					c-1.024-0.093-2.057-0.112-3.082-0.205c-1.257-0.113-2.511-0.274-3.768-0.402c-2.369-0.241-4.743-0.432-7.106-0.723
					c-1.859-0.229-3.717-0.517-5.552-0.889c-1.344-0.271-2.65-0.722-3.974-1.095c-0.757-0.213-1.505-0.552-2.275-0.621
					c-1.954-0.175-3.736-0.851-5.445-1.722c-1.939-0.986-3.762-2.188-5.45-3.558c-0.952-0.773-1.851-1.647-2.628-2.597
					c-0.816-0.994-1.5-2.102-2.167-3.206c-1.352-2.241-2.615-4.527-3.241-7.104c-0.071-0.287-0.314-0.53-0.477-0.792
					C0,118.833,0,118.655,0,118.477z M177.853,20.146c-0.854-0.017-1.705-0.129-2.558-0.191c-0.588-0.045-1.176-0.104-1.765-0.112
					c-1.702-0.018-3.407,0.048-5.106-0.032c-1.73-0.082-3.451-0.354-5.18-0.439c-2.32-0.114-4.647-0.18-6.971-0.166
					c-1.166,0.009-2.329,0.256-3.497,0.371c-1.11,0.11-2.229,0.168-3.341,0.288c-1.631,0.177-3.258,0.37-4.883,0.591
					c-1.256,0.17-2.496,0.437-3.756,0.574c-1.416,0.155-2.772,0.469-4.061,1.094c-0.845,0.412-1.705,0.795-2.57,1.163
					c-2.066,0.88-3.922,2.13-5.832,3.286c-0.752,0.454-1.571,0.797-2.352,1.207c-1.198,0.631-2.332,1.321-3.187,2.431
					c-0.535,0.696-1.221,1.277-1.86,1.888c-1.063,1.012-1.738,2.301-2.478,3.529c-0.612,1.017-1.255,1.994-2.061,2.859
					c-1.287,1.381-2.324,2.948-3.382,4.502c-0.859,1.264-1.757,2.504-2.572,3.795c-0.755,1.192-1.414,2.445-2.135,3.66
					c-0.405,0.682-0.801,1.379-1.292,1.996c-0.884,1.11-1.592,2.31-2.265,3.562c-1.224,2.275-2.157,4.713-3.761,6.779
					c-0.646,0.834-0.994,1.834-1.113,2.852c-0.212,1.806-1.185,3.248-2.066,4.73c-1.385,2.326-2.704,4.675-3.64,7.224
					c-0.374,1.023-0.823,2.02-1.175,3.049c-0.801,2.337-1.747,4.599-2.938,6.773c-0.884,1.613-1.913,3.172-2.315,5.033
					c-0.339,1.575-0.85,3.112-1.235,4.678c-0.467,1.912-0.923,3.829-1.309,5.758c-0.305,1.527-0.458,3.084-0.75,4.614
					c-0.258,1.355-0.609,2.693-0.932,4.034c-0.068,0.283-0.151,0.582-0.307,0.822c-0.927,1.427-1.052,3.097-1.448,4.685
					c-0.135,0.542-0.229,1.094-0.333,1.646c-0.307,1.646-0.541,3.31-0.931,4.937c-0.566,2.368-0.876,4.797-1.675,7.109
					c-0.26,0.748-0.604,1.468-0.853,2.221c-0.519,1.579-0.778,3.189-0.396,4.846c0.039,0.171,0.131,0.33,0.185,0.499
					c0.145,0.461,0.496,0.658,0.937,0.685c1.492,0.086,2.987,0.133,4.479,0.229c2.646,0.168,5.291,0.287,7.927,0.625
					c2.742,0.354,5.485,0.688,8.269,0.661c2.409-0.022,4.817,0.235,7.227,0.32c2.294,0.082,4.59,0.108,6.885,0.145
					c1.521,0.022,3.044,0.035,4.564,0.013c1.297-0.019,2.594-0.128,3.89-0.138c0.968-0.007,1.943,0.034,2.906,0.133
					c1.992,0.204,3.977,0.401,5.986,0.455c1.328,0.034,2.641-0.19,3.962-0.077c2.528,0.221,5.049-0.094,7.571-0.152
					c0.796-0.021,1.593,0.02,2.39,0.021c1.828,0.002,3.651-0.021,5.476-0.001c2.882,0.034,5.763,0.109,8.646,0.141
					c2.537,0.025,5.074,0.032,7.611,0.016c0.816-0.005,1.639-0.179,2.454-0.168c1.175,0.017,2.349,0.174,3.526,0.199
					c1.412,0.028,2.826,0.011,4.236-0.036c2.644-0.089,5.282-0.25,7.926-0.311c1.674-0.034,3.348,0.065,5.022,0.091
					c1.465,0.021,2.938-0.057,4.396,0.052c1.388,0.104,2.761,0.037,4.136-0.056c1.026-0.065,2.049-0.191,3.071-0.27
					c0.498-0.037,1.002-0.016,1.504-0.037c2.269-0.095,4.535-0.206,6.806-0.289c1.53-0.056,3.062-0.077,4.597-0.107
					c1.024-0.021,2.051-0.042,3.075-0.039c1.229,0.004,2.459,0.053,3.688,0.048c0.791-0.003,1.58-0.076,2.371-0.104
					c0.59-0.021,1.181-0.002,1.769-0.029c1.412-0.069,2.821-0.161,4.233-0.236c0.672-0.037,1.345-0.05,2.015-0.083
					c1.138-0.054,2.278-0.062,3.409-0.187c1.966-0.215,3.927-0.089,5.893-0.062c0.797,0.011,1.594,0.005,2.389,0.025
					c1.59,0.04,3.188,0.018,4.769,0.161c1.769,0.161,3.528,0.194,5.299,0.198c1.146,0.002,2.291,0.121,3.437,0.141
					c1.029,0.016,1.514-0.376,1.522-1.399c0.009-0.84-0.196-1.685-0.327-2.524c-0.154-0.984-0.304-1.974-0.507-2.948
					c-0.196-0.951-0.485-1.884-0.687-2.832c-0.262-1.234-0.473-2.479-0.715-3.719c-0.121-0.626-0.248-1.253-0.401-1.868
					c-0.308-1.229-0.646-2.446-0.951-3.674c-0.063-0.254-0.028-0.531-0.078-0.791c-0.299-1.492-0.606-2.986-0.918-4.479
					c-0.108-0.515-0.274-1.018-0.354-1.536c-0.338-2.258-1.217-4.343-2.017-6.457c-0.752-1.979-1.426-3.988-1.879-6.063
					c-0.108-0.515-0.344-1.001-0.545-1.49c-0.626-1.521-1.271-3.033-1.896-4.556c-0.178-0.431-0.277-0.896-0.476-1.318
					c-0.715-1.514-1.481-3.001-2.178-4.522c-0.562-1.23-1.06-2.495-1.563-3.751c-0.117-0.295-0.171-0.621-0.242-0.935
					c-0.396-1.748-1.388-3.24-2.076-4.864c-0.057-0.136-0.193-0.268-0.187-0.396c0.056-1.058-0.608-1.811-1.084-2.642
					c-1.063-1.86-2.112-3.729-2.883-5.736c-0.847-2.199-1.881-4.303-3.017-6.37c-0.869-1.586-1.584-3.259-2.18-4.984
					c-0.488-1.417-1.105-2.796-1.765-4.146c-1.366-2.807-2.991-5.47-4.819-7.994c-1.359-1.876-2.836-3.665-4.261-5.493
					c-1.245-1.604-2.446-3.246-3.747-4.803c-1.959-2.345-3.994-4.628-5.992-6.939c-0.902-1.045-1.779-2.115-2.701-3.143
					c-0.916-1.021-1.789-2.052-3.172-2.566c-1.058-0.393-2-1.095-2.978-1.691c-0.812-0.492-1.625-0.956-2.582-1.105
					c-0.144-0.024-0.31-0.045-0.416-0.129c-1.278-1.004-2.83-1.076-4.338-1.26c-1.283-0.154-2.578-0.208-3.867-0.33
					c-1.463-0.141-2.924-0.323-4.388-0.455c-0.998-0.09-1.998-0.126-3.053-0.188C181.178,20.158,179.512,20.181,177.853,20.146z
					 M264.579,126.397c-0.264-0.958-0.213-2.006-0.504-2.952c-0.705-2.303-0.58-4.713-1.033-7.042
					c-0.184-0.947-0.43-1.889-0.723-2.81c-0.434-1.37-0.973-2.706-1.396-4.078c-0.441-1.432-0.782-2.893-1.207-4.326
					c-0.69-2.338-1.272-4.712-2.264-6.953c-0.787-1.781-1.3-3.646-1.733-5.539c-0.125-0.541-0.36-1.056-0.528-1.587
					c-0.479-1.514-0.919-3.042-1.438-4.543c-0.354-1.021-0.828-2-1.225-3.008c-0.654-1.669-1.27-3.355-1.939-5.018
					c-0.688-1.688-1.412-3.361-2.141-5.034c-0.912-2.104-1.904-4.174-2.756-6.302c-0.783-1.963-1.386-3.999-2.14-5.976
					c-0.642-1.671-1.354-3.313-2.084-4.947c-1.073-2.411-2.207-4.796-3.28-7.206c-0.652-1.473-1.248-2.971-1.871-4.457
					c-0.021-0.054-0.056-0.103-0.082-0.156c-0.658-1.275-1.227-2.613-2.006-3.812c-0.665-1.014-1.225-2.069-1.771-3.137
					c-0.215-0.416-0.387-0.855-0.582-1.281c-0.269-0.583-0.539-1.167-0.816-1.746c-0.498-1.031-0.988-2.069-1.507-3.09
					c-0.688-1.361-1.406-2.707-2.099-4.066c-0.811-1.596-1.561-3.225-2.42-4.793c-0.746-1.362-1.6-2.666-2.418-3.988
					c-0.727-1.176-1.457-2.35-2.213-3.506c-0.621-0.952-1.295-1.87-1.924-2.817c-1.1-1.656-2.645-2.897-4.016-4.298
					c-0.906-0.925-2.041-1.432-3.332-1.646c-2.115-0.349-4.209-0.887-6.338-1.107c-1.436-0.147-2.908-0.52-4.379-0.032
					c-0.328,0.108-0.816,0.065-1.111-0.107c-1.088-0.645-2.287-0.428-3.439-0.545c-0.604-0.062-1.223,0.035-1.834,0.028
					c-2.646-0.029-5.293-0.083-7.941-0.099c-0.672-0.004-1.348,0.144-2.021,0.155c-1.972,0.035-3.938-0.012-5.908,0.146
					c-2.047,0.161-4.109,0.06-6.162,0.146c-2.08,0.088-4.154,0.287-6.232,0.402c-1.145,0.062-2.297,0.047-3.446,0.078
					c-2.267,0.061-4.517,0.26-6.745,0.701c-1.257,0.249-2.507,0.181-3.77-0.058c-1.211-0.229-2.432-0.271-3.676-0.11
					c-1.215,0.155-2.416,0.413-3.67,0.361c-2.084-0.087-4.176-0.031-6.265-0.01c-1.978,0.021-3.947,0.071-5.922,0.12
					c-0.412,0.009-0.832,0.023-1.234,0.105c-1.696,0.341-3.393,0.461-5.131,0.332c-1.104-0.081-2.258-0.021-3.333,0.224
					c-1.426,0.323-2.779,0.901-3.989,1.798c-1.72,1.271-2.938,2.932-3.987,4.758c-0.395,0.685-0.863,1.342-1.38,1.943
					c-0.694,0.807-1.211,1.723-1.803,2.594c-0.708,1.047-1.525,2.02-2.273,3.043c-0.343,0.47-0.655,0.969-0.942,1.475
					c-0.638,1.127-1.178,2.316-1.896,3.389c-0.668,0.996-1.55,1.847-2.271,2.812c-1.129,1.509-2.216,3.049-3.289,4.598
					c-0.5,0.723-1.058,1.447-1.355,2.258c-0.434,1.184-1.092,2.226-1.821,3.207c-0.788,1.057-1.556,2.117-2.22,3.258
					c-0.103,0.176-0.222,0.343-0.298,0.53c-0.592,1.437-1.622,2.569-2.535,3.79c-0.646,0.864-1.159,1.833-1.745,2.745
					c-0.254,0.396-0.523,0.783-0.82,1.146c-0.783,0.955-1.573,1.903-2.383,2.836c-0.732,0.843-1.465,1.688-2.25,2.483
					c-1.654,1.679-3.285,3.389-5.033,4.966c-1.747,1.575-3.626,3.004-5.444,4.5c-0.296,0.242-0.582,0.497-0.872,0.746
					c-1.892,1.61-4.137,2.683-6.204,4.025c-1.9,1.235-3.921,2.254-5.956,3.244c-0.291,0.142-0.609,0.226-0.901,0.363
					c-0.799,0.377-1.618,0.721-2.379,1.162c-1.453,0.845-3.01,1.448-4.552,2.095c-1.438,0.602-2.844,1.28-4.258,1.935
					c-1.199,0.558-2.419,1.075-3.578,1.704c-1.625,0.88-3.166,1.915-4.804,2.766c-2.349,1.218-4.742,2.352-7.138,3.477
					c-1.547,0.727-3.094,1.433-4.516,2.403c-0.72,0.493-1.568,0.805-2.359,1.197c-0.209,0.104-0.433,0.184-0.629,0.309
					c-1.543,0.973-3.099,1.923-4.612,2.941c-1.876,1.263-3.767,2.515-5.546,3.905c-1.078,0.845-2.004,1.905-2.914,2.942
					c-0.737,0.839-1.424,1.713-2.299,2.419c-1.108,0.891-2.053,1.908-2.67,3.222c-0.204,0.438-0.619,0.778-0.959,1.146
					c-0.727,0.784-1.391,1.615-1.718,2.644c-0.382,1.202-0.694,2.426-1.034,3.644c-0.04,0.14-0.04,0.301-0.111,0.422
					c-0.729,1.227-0.584,2.532-0.391,3.854c0.068,0.462-0.011,0.95,0.076,1.407c0.317,1.669,0.921,3.196,2.06,4.518
					c0.604,0.703,1.063,1.555,1.479,2.393c0.321,0.647,0.711,1.208,1.251,1.674c0.825,0.712,1.68,1.392,2.471,2.14
					c0.81,0.771,1.858,1.123,2.778,1.7c1.066,0.669,2.137,1.353,3.275,1.88c1.858,0.864,3.769,1.619,5.779,2.084
					c1.087,0.251,2.165,0.55,3.261,0.756c1.328,0.251,2.664,0.508,4.008,0.619c1.891,0.159,3.791,0.185,5.686,0.274
					c0.854,0.042,1.707,0.105,2.559,0.166c1.228,0.086,2.457,0.15,3.682,0.272c0.788,0.079,1.566,0.261,2.352,0.367
					c0.934,0.129,1.873,0.223,2.808,0.345c0.758,0.101,1.516,0.212,2.271,0.337c2.1,0.349,4.205,0.51,6.334,0.267
					c1.443-0.165,2.874,0.109,4.312,0.2c1.605,0.102,3.208,0.269,4.83-0.068c1.019-0.211,2.099-0.188,3.151-0.169
					c1.096,0.021,2.093-0.289,3.054-0.728c0.732-0.333,1.175-0.852,1.17-1.782c-0.004-0.959,0.239-1.919,0.388-2.876
					c0.22-1.423,0.407-2.854,0.696-4.264c0.278-1.352,0.62-2.69,1.016-4.012c0.753-2.515,1.394-5.054,1.813-7.646
					c0.187-1.161,0.33-2.33,0.542-3.486c0.133-0.721,0.37-1.42,0.532-2.136c0.287-1.262,0.532-2.533,0.833-3.79
					c0.241-0.999,0.538-1.985,0.811-2.978c0.448-1.613,0.889-3.229,1.346-4.843c0.353-1.245,0.791-2.468,1.08-3.727
					c0.421-1.839,1.238-3.539,1.756-5.343c0.042-0.142,0.093-0.284,0.169-0.409c1.172-1.933,1.651-4.134,2.417-6.225
					c0.494-1.346,1.061-2.665,1.545-4.014c0.408-1.131,0.799-2.274,1.096-3.439c0.256-0.99,0.801-1.82,1.266-2.699
					c0.177-0.339,0.416-0.646,0.573-0.989c0.973-2.141,1.927-4.288,2.899-6.429c0.121-0.267,0.333-0.489,0.459-0.755
					c0.2-0.416,0.369-0.85,0.541-1.277c0.11-0.274,0.164-0.57,0.302-0.827c0.874-1.634,1.825-3.232,2.633-4.898
					c1.038-2.145,2.234-4.195,3.438-6.247c0.192-0.326,0.346-0.677,0.507-1.021c0.703-1.502,1.725-2.799,2.697-4.123
					c1.704-2.324,3.47-4.614,4.886-7.127c1.513-2.688,3.56-4.964,5.407-7.398c0.869-1.146,1.695-2.344,2.694-3.367
					c1.561-1.604,3.256-3.074,4.884-4.611c1.331-1.258,2.859-2.243,4.368-3.266c2.049-1.392,4.062-2.841,6.332-3.857
					c2.166-0.972,4.328-1.988,6.666-2.486c1.263-0.269,2.558-0.375,3.834-0.578c1.529-0.242,3.054-0.045,4.578,0.023
					c2.027,0.092,4.051,0.232,6.076-0.085c0.6-0.093,1.229,0.02,1.844,0.021c1.25,0.005,2.5-0.01,3.752-0.006
					c0.349,0,0.695,0.038,1.043,0.061c0.73,0.043,1.461,0.088,2.193,0.132c1.139,0.069,2.275,0.171,3.418,0.202
					c2.109,0.058,4.225,0.071,6.338,0.114c0.881,0.02,1.764,0.024,2.639,0.114c2.633,0.27,5.246,0.69,7.912,0.555
					c1.58-0.082,3.188-0.146,4.742,0.07c1.023,0.146,2.033,0.265,3.062,0.271c0.854,0.005,1.705,0.062,2.558,0.064
					c0.735,0.002,1.476-0.002,2.205-0.062c1.523-0.129,2.937,0.322,4.258,0.953c1.906,0.909,3.781,1.902,5.586,3.002
					c1.595,0.975,3.188,2.012,4.572,3.256c1.678,1.507,3.407,3.001,4.744,4.854c1.611,2.244,3.275,4.457,4.764,6.781
					c0.683,1.064,1.399,2.103,2.082,3.164c0.267,0.417,0.625,0.774,0.938,1.164c0.203,0.252,0.404,0.504,0.588,0.771
					c0.229,0.338,0.394,0.736,0.673,1.024c0.871,0.897,1.434,2.002,2.139,3.013c0.469,0.673,0.996,1.316,1.572,1.896
					c0.672,0.68,0.92,1.565,1.338,2.371c1.01,1.955,1.678,4.068,2.828,5.967c1.293,2.129,2.4,4.357,3.387,6.656
					c0.496,1.16,1.023,2.299,1.431,3.498c0.125,0.373,0.44,0.679,0.64,1.032c0.562,0.994,1.157,1.979,1.662,3.005
					c0.715,1.445,1.361,2.928,2.032,4.396c0.147,0.32,0.269,0.652,0.403,0.979c0.578,1.382,1.146,2.768,1.729,4.146
					c0.481,1.138,0.979,2.271,1.467,3.405c0.754,1.755,1.527,3.501,2.25,5.271c0.84,2.062,1.631,4.146,2.445,6.218
					c0.407,1.035,0.862,2.056,1.232,3.104c0.447,1.269,0.824,2.562,1.232,3.842c0.25,0.779,0.51,1.557,0.75,2.338
					c0.268,0.868,0.5,1.75,0.783,2.612c0.48,1.476,0.979,2.945,1.488,4.41c0.424,1.219,0.889,2.426,1.309,3.646
					c0.104,0.301,0.1,0.637,0.15,0.952c0.33,2.088,0.666,4.172,1.16,6.234c0.457,1.914,0.742,3.869,1.076,5.81
					c0.354,2.059,0.653,4.123,1.02,6.18c0.219,1.24,0.486,2.479,0.799,3.698c0.156,0.617,0.41,1.224,0.705,1.788
					c0.416,0.796,1.17,1.115,2.027,1.224c0.086,0.01,0.197,0.021,0.26-0.021c0.867-0.596,1.861-1.098,2.09-2.262
					c0.141-0.72,0.186-1.458,0.252-1.992C265.567,132.016,265.356,129.176,264.579,126.397z"/>
				<path fill="#BABAA0" d="M21.683,109.543c0.391-0.825,0.83-1.627,1.254-2.436c0.299-0.571,0.545-1.186,0.927-1.695
					c0.562-0.751,1.215-1.432,1.839-2.135c0.293-0.33,0.657-0.604,0.906-0.962c0.833-1.203,2.041-2.029,3.035-3.068
					c1.037-1.085,2.299-1.894,3.506-2.765c1.48-1.069,2.942-2.178,4.514-3.097c1.67-0.977,3.342-1.968,5.162-2.684
					c1.115-0.438,2.127-1.131,3.225-1.622c0.604-0.27,1.291-0.348,1.938-0.534c1.3-0.371,2.583-0.821,3.901-1.125
					c2.204-0.505,4.426-0.937,6.648-1.361c0.98-0.188,1.972-0.366,2.964-0.404c0.995-0.037,1.996,0.146,2.997,0.162
					c2.119,0.035,4.107,0.694,6.124,1.223c0.17,0.044,0.34,0.112,0.489,0.204c1.099,0.685,2.147,1.443,2.992,2.433
					c0.217,0.255,0.328,0.621,0.416,0.954c0.098,0.366,0.048,0.778,0.175,1.132c0.256,0.7,0.021,1.26-0.359,1.819
					c-0.143,0.213-0.255,0.461-0.32,0.71c-0.616,2.361-1.227,4.727-1.821,7.095c-0.107,0.426-0.136,0.87-0.195,1.309
					c-0.138,1.051-0.234,2.11-0.415,3.154c-0.218,1.266-0.751,2.46-0.874,3.755c-0.123,1.283-0.283,2.562-0.442,3.843
					c-0.062,0.492-0.165,0.979-0.258,1.469c-0.044,0.23-0.138,0.453-0.159,0.686c-0.14,1.524-0.258,3.054-0.4,4.58
					c-0.1,1.087-0.208,2.174-0.354,3.255c-0.057,0.431-0.191,0.86-0.359,1.264c-0.191,0.458-0.461,0.881-0.69,1.323
					c-0.194,0.376-0.444,0.657-0.844,0.861c-1.484,0.764-2.943,1.574-4.416,2.364c-0.15,0.082-0.316,0.146-0.48,0.191
					c-0.846,0.23-1.698,0.438-2.539,0.684c-0.704,0.205-1.38,0.565-2.094,0.656c-2.382,0.304-4.729,0.906-7.171,0.734
					c-1.333-0.095-2.682-0.176-4.026,0.095c-0.44,0.088-0.934-0.145-1.396-0.12c-1.253,0.065-2.438-0.294-3.638-0.539
					c-1.091-0.223-2.152-0.624-3.25-0.782c-1.933-0.276-3.802-0.783-5.653-1.37c-0.578-0.184-1.103-0.528-1.668-0.764
					c-1.013-0.418-1.964-0.931-2.745-1.71c-0.976-0.975-1.929-1.973-2.903-2.95c-1.356-1.356-2.263-3.011-3.034-4.731
					c-0.814-1.823-1.033-3.785-1.111-6.056C21,111.713,21.189,110.594,21.683,109.543z M63.821,89.446
					c-0.146-0.02-0.306-0.064-0.438-0.025c-1.348,0.407-2.784,0.191-4.14,0.718c-1.135,0.438-2.404,0.523-3.601,0.812
					c-1.937,0.465-3.861,0.984-5.798,1.45c-1.49,0.356-2.963,0.753-4.332,1.463c-2.458,1.275-4.841,2.675-7.062,4.337
					c-1.768,1.321-3.532,2.644-5.292,3.974c-0.28,0.212-0.523,0.474-0.785,0.709c-0.306,0.276-0.577,0.612-0.926,0.818
					c-0.925,0.548-1.742,1.237-2.391,2.065c-1.124,1.432-2.343,2.843-3.155,4.445c-0.739,1.458-1.153,3.134-1.184,4.82
					c-0.02,1.045,0.308,2.032,0.779,2.965c0.703,1.398,1.676,2.614,2.622,3.847c0.072,0.094,0.178,0.17,0.224,0.271
					c0.455,1.028,1.382,1.466,2.312,1.931c1.021,0.512,1.995,1.115,3.015,1.627c1.159,0.582,2.403,0.888,3.69,1.096
					c0.883,0.142,1.721,0.554,2.592,0.797c0.675,0.188,1.371,0.327,2.063,0.44c0.899,0.148,1.807,0.246,2.708,0.373
					c1.443,0.204,2.861-0.062,4.287-0.207c1.757-0.177,3.521-0.293,5.275-0.505c1.603-0.191,3.203-0.441,4.793-0.729
					c1.729-0.314,3.22-1.233,4.777-1.987c0.894-0.432,1.144-1.275,1.34-2.074c0.349-1.419,0.543-2.855,0.508-4.354
					c-0.035-1.516,0.273-3.04,0.496-4.551c0.197-1.336,0.625-2.65,0.706-3.988c0.152-2.542,0.855-4.963,1.364-7.429
					c0.214-1.037,0.33-2.104,0.624-3.116c0.58-2,1.258-3.975,1.887-5.959c0.495-1.562,0.077-2.412-1.436-2.969
					c-0.576-0.213-1.144-0.452-1.733-0.615c-0.44-0.122-0.911-0.136-1.366-0.208c-0.427-0.068-0.852-0.153-1.278-0.231
					c-0.007,0.048-0.013,0.097-0.021,0.145C64.57,89.546,64.196,89.494,63.821,89.446z"/>
			</g>
		</g>
	</g>
</g>
</svg>
