<?xml version="1.0" encoding="utf-8"?>
<!-- Generator: Adobe Illustrator 16.1.0, SVG Export Plug-In . SVG Version: 6.00 Build 0)  -->
<!DOCTYPE svg PUBLIC "-//W3C//DTD SVG 1.1//EN" "http://www.w3.org/Graphics/SVG/1.1/DTD/svg11.dtd">
<svg version="1.1" xmlns="http://www.w3.org/2000/svg" xmlns:xlink="http://www.w3.org/1999/xlink" x="0px" y="0px"
	 width="268.532px" height="127.314px" viewBox="0 0 268.532 127.314" enable-background="new 0 0 268.532 127.314"
	 xml:space="preserve">
<g id="Layer_2_1_">
</g>
<g id="Layer_1">
	<g id="Layer_1_1_">
	</g>
	<g id="Layer_2_2_">
		<path fill="#232020" d="M258.54,120.668c0.008-0.719-0.115-1.401-0.232-2.062c-0.037-0.209-0.074-0.418-0.107-0.626l-0.045-0.295
			c-0.139-0.886-0.281-1.801-0.469-2.704c-0.104-0.496-0.23-0.988-0.357-1.479c-0.117-0.45-0.234-0.9-0.33-1.354
			c-0.16-0.757-0.299-1.517-0.44-2.276c-0.089-0.477-0.179-0.952-0.271-1.428c-0.125-0.642-0.256-1.286-0.414-1.921
			c-0.154-0.621-0.317-1.24-0.481-1.858c-0.158-0.604-0.319-1.208-0.47-1.813c-0.01-0.039-0.014-0.146-0.018-0.224
			c-0.006-0.172-0.018-0.344-0.049-0.51c-0.301-1.508-0.609-3.004-0.922-4.498c-0.047-0.223-0.104-0.441-0.158-0.659
			c-0.072-0.274-0.145-0.547-0.188-0.825c-0.309-2.066-1.043-3.981-1.754-5.834l-0.314-0.824c-0.887-2.336-1.453-4.163-1.838-5.925
			c-0.105-0.501-0.305-0.967-0.479-1.378l-0.117-0.279c-0.297-0.717-0.596-1.432-0.896-2.146c-0.336-0.802-0.672-1.604-1.002-2.406
			c-0.069-0.167-0.123-0.341-0.179-0.513c-0.092-0.289-0.188-0.578-0.314-0.852c-0.308-0.649-0.623-1.289-0.938-1.93
			c-0.42-0.857-0.842-1.715-1.237-2.584c-0.478-1.044-0.916-2.14-1.343-3.199l-0.204-0.51c-0.067-0.169-0.103-0.358-0.144-0.545
			l-0.053-0.24c-0.287-1.272-0.848-2.389-1.389-3.469c-0.258-0.517-0.516-1.031-0.74-1.562c-0.027-0.065-0.064-0.135-0.105-0.204
			c-0.025-1.034-0.521-1.821-0.928-2.465c-0.1-0.157-0.197-0.313-0.289-0.474c-1.113-1.948-2.095-3.713-2.818-5.6
			c-0.78-2.032-1.758-4.096-3.071-6.491c-0.797-1.453-1.506-3.079-2.11-4.83c-0.433-1.261-1.007-2.614-1.812-4.261
			c-1.347-2.762-2.998-5.502-4.908-8.143c-0.944-1.308-1.961-2.586-2.94-3.822c-0.449-0.564-0.897-1.13-1.34-1.699
			c-0.385-0.494-0.766-0.993-1.146-1.493c-0.842-1.104-1.713-2.244-2.623-3.334c-1.326-1.589-2.688-3.146-4.047-4.705
			c-0.654-0.749-1.307-1.497-1.955-2.248c-0.332-0.386-0.662-0.771-0.99-1.16c-0.568-0.67-1.137-1.342-1.725-1.996l-0.143-0.16
			c-0.927-1.033-1.884-2.102-3.425-2.676c-0.692-0.258-1.354-0.685-2.056-1.134c-0.25-0.161-0.498-0.321-0.75-0.475
			c-0.866-0.528-1.807-1.062-2.946-1.242c-0.024-0.004-0.043-0.007-0.062-0.01c-1.342-0.999-2.887-1.174-4.254-1.328l-0.475-0.055
			c-0.779-0.095-1.562-0.152-2.346-0.21c-0.516-0.038-1.031-0.075-1.547-0.124c-0.68-0.065-1.359-0.139-2.037-0.213
			c-0.785-0.086-1.57-0.172-2.355-0.243c-0.705-0.063-1.41-0.101-2.135-0.138l-0.947-0.053l-2.953,0.006
			c-0.676,0-1.354-0.004-2.033-0.017c-0.541-0.01-1.082-0.062-1.623-0.112c-0.293-0.027-0.586-0.056-0.879-0.076l-0.424-0.034
			c-0.466-0.038-0.935-0.076-1.402-0.081l-0.711-0.004l-2.328,0.012c-0.676,0-1.354-0.009-2.03-0.041
			c-0.849-0.039-1.72-0.129-2.562-0.217c-0.853-0.088-1.735-0.178-2.619-0.222C160.499,0.055,158.415,0,156.426,0l-0.65,0.002
			c-0.818,0.006-1.613,0.117-2.385,0.225c-0.4,0.054-0.805,0.111-1.206,0.151c-0.498,0.05-1,0.088-1.5,0.126
			c-0.618,0.049-1.233,0.096-1.849,0.162c-1.748,0.189-3.353,0.384-4.91,0.595c-0.549,0.074-1.098,0.167-1.646,0.259
			c-0.693,0.118-1.385,0.235-2.08,0.312c-1.689,0.184-3.125,0.573-4.389,1.188c-0.744,0.363-1.57,0.736-2.524,1.143
			c-1.716,0.73-3.284,1.701-4.803,2.641c-0.384,0.238-0.768,0.476-1.155,0.71c-0.434,0.263-0.9,0.488-1.393,0.726
			c-0.303,0.148-0.607,0.295-0.906,0.451c-1.166,0.614-2.493,1.379-3.514,2.707c-0.365,0.475-0.826,0.903-1.316,1.357l-0.441,0.416
			c-1,0.951-1.666,2.081-2.311,3.174l-0.334,0.562c-0.519,0.86-1.153,1.854-1.937,2.693c-1.246,1.337-2.263,2.835-3.247,4.284
			l-0.229,0.338c-0.27,0.396-0.544,0.791-0.817,1.186c-0.592,0.854-1.205,1.737-1.774,2.638c-0.468,0.74-0.9,1.503-1.333,2.267
			c-0.269,0.476-0.538,0.95-0.816,1.419l-0.147,0.246c-0.348,0.59-0.678,1.147-1.067,1.637c-0.998,1.254-1.755,2.58-2.363,3.711
			c-0.377,0.7-0.726,1.416-1.076,2.132c-0.791,1.618-1.538,3.149-2.594,4.51c-0.712,0.918-1.167,2.077-1.316,3.348
			c-0.165,1.4-0.886,2.597-1.649,3.864l-0.284,0.473c-1.574,2.643-2.809,4.911-3.719,7.39c-0.159,0.436-0.333,0.866-0.506,1.297
			c-0.236,0.587-0.472,1.174-0.676,1.771c-0.849,2.48-1.788,4.645-2.868,6.617c-0.157,0.285-0.318,0.568-0.479,0.852
			c-0.775,1.364-1.575,2.774-1.938,4.45c-0.189,0.875-0.441,1.769-0.686,2.632c-0.188,0.672-0.377,1.343-0.544,2.019
			c-0.525,2.151-0.95,3.96-1.318,5.8c-0.163,0.814-0.283,1.636-0.404,2.459c-0.105,0.724-0.211,1.447-0.348,2.164
			c-0.195,1.024-0.451,2.067-0.699,3.076l-0.222,0.911c-0.028,0.118-0.092,0.388-0.172,0.511c-0.798,1.227-1.066,2.546-1.326,3.82
			c-0.08,0.391-0.159,0.782-0.255,1.169c-0.116,0.465-0.205,0.938-0.292,1.411l-0.054,0.291c-0.099,0.529-0.19,1.06-0.281,1.59
			c-0.188,1.091-0.382,2.22-0.64,3.298c-0.197,0.824-0.363,1.656-0.53,2.487c-0.316,1.581-0.615,3.072-1.118,4.527
			c-0.116,0.333-0.25,0.662-0.384,0.991c-0.167,0.411-0.334,0.822-0.473,1.243c-0.667,2.029-0.8,3.739-0.421,5.384
			c0.035,0.153,0.093,0.304,0.156,0.453c0.018,0.041,0.036,0.082,0.05,0.124c0.258,0.823,0.926,1.327,1.832,1.379
			c0.671,0.039,1.343,0.07,2.015,0.101c0.82,0.038,1.639,0.075,2.458,0.129l1.479,0.091c2.1,0.126,4.272,0.257,6.384,0.527
			c2.859,0.366,5.44,0.67,8.091,0.67h0.598c1.359,0,2.757,0.089,4.11,0.173c0.929,0.058,1.858,0.115,2.787,0.148
			c2.039,0.072,4.079,0.104,6.119,0.133l0.786,0.013c1.532,0.021,3.065,0.034,4.596,0.013c0.629-0.009,1.258-0.039,1.887-0.069
			c0.666-0.031,1.331-0.063,1.996-0.068l0.209-0.001c0.885,0,1.756,0.043,2.587,0.128c1.753,0.18,3.935,0.402,6.062,0.46
			l0.312,0.004c0.499,0,0.996-0.029,1.494-0.06c0.7-0.042,1.396-0.087,2.097-0.025c1.575,0.137,3.502,0.058,5.27-0.042
			c0.805-0.045,1.607-0.09,2.412-0.109c0.473-0.012,0.939-0.002,1.409,0.008c0.317,0.008,0.636,0.015,0.954,0.015l3.791-0.01
			c0.559,0,1.115,0.003,1.674,0.009c1.381,0.016,2.764,0.042,4.145,0.066c1.502,0.028,3.002,0.057,4.504,0.072
			c2.541,0.027,5.086,0.034,7.627,0.016c0.422-0.003,0.845-0.046,1.267-0.09c0.369-0.038,0.737-0.079,1.104-0.079
			c0.646,0.01,1.232,0.055,1.816,0.099c0.588,0.044,1.178,0.088,1.766,0.101c1.431,0.029,2.863,0.01,4.291-0.037
			c1.099-0.037,2.193-0.086,3.289-0.135c1.543-0.069,3.084-0.138,4.627-0.173c1.047-0.021,2.104,0.01,3.156,0.043
			c0.609,0.018,1.221,0.037,1.83,0.046l0.621,0.004l1.861-0.011c0.755,0,1.328,0.017,1.855,0.056c1.463,0.11,2.95,0.035,4.271-0.054
			c0.574-0.037,1.148-0.092,1.72-0.148c0.455-0.044,0.908-0.089,1.362-0.123c0.267-0.019,0.533-0.021,0.804-0.021
			c0.224-0.002,0.444-0.004,0.668-0.013l2.438-0.106c1.453-0.065,2.906-0.129,4.359-0.182c1.17-0.043,2.344-0.066,3.518-0.089
			l1.336-0.025c0.867-0.018,1.732-0.034,2.597-0.034h0.185c0.555,0.002,1.108,0.013,1.664,0.024
			c0.617,0.013,1.236,0.024,1.854,0.024h0.176c0.498-0.002,0.992-0.031,1.488-0.059c0.305-0.019,0.609-0.035,0.914-0.046
			c0.256-0.01,0.51-0.011,0.766-0.012c0.34-0.002,0.678-0.004,1.018-0.021c0.801-0.039,1.602-0.086,2.402-0.133l1.834-0.104
			c0.365-0.02,0.729-0.033,1.092-0.046c0.307-0.011,0.613-0.021,0.918-0.037c0.32-0.015,0.642-0.026,0.961-0.038
			c0.82-0.028,1.664-0.059,2.51-0.15c0.73-0.08,1.521-0.117,2.484-0.117c0.65,0,1.301,0.017,1.951,0.033
			c0.443,0.011,0.889,0.022,1.332,0.028l0.986,0.009c0.463,0.003,0.928,0.006,1.393,0.017c0.438,0.011,0.875,0.017,1.314,0.024
			c1.119,0.016,2.275,0.032,3.385,0.135c1.877,0.172,3.7,0.199,5.389,0.203c0.596,0.001,1.193,0.035,1.789,0.068
			c0.543,0.031,1.088,0.062,1.633,0.07H256C257.625,123.059,258.524,122.188,258.54,120.668z"/>
	</g>
</g>
</svg>
