<?xml version="1.0" encoding="utf-8"?>
<!-- Generator: Adobe Illustrator 16.2.1, SVG Export Plug-In . SVG Version: 6.00 Build 0)  -->
<!DOCTYPE svg PUBLIC "-//W3C//DTD SVG 1.1//EN" "http://www.w3.org/Graphics/SVG/1.1/DTD/svg11.dtd">
<svg version="1.1" id="Layer_1" xmlns="http://www.w3.org/2000/svg" xmlns:xlink="http://www.w3.org/1999/xlink" x="0px" y="0px"
	 width="127.738px" height="123.133px" viewBox="0 0 127.738 123.133" enable-background="new 0 0 127.738 123.133"
	 xml:space="preserve">
<g>
	<path fill="#DDC99E" d="M71.658,57.668c3.348-3.143,16.603-14.238,22.521-19.845c5.918-5.607,9.364-6.466,9.364-6.466
		s4.986-2.168,10.927-5.574c5.939-3.407,18.188-12.782,11.148-20.96c-7.04-8.178-17.839-0.669-17.839-0.669
		s-5.414,2.061-10.033,14.939c-4.619,12.878-8.026,14.493-8.026,14.493s-15.428,13.158-22.075,18.73
		c-0.932,0.781-2.638,2.269-4.873,4.242C52.365,45.72,44.531,37.582,43.833,36.917c-0.85-1.271-14.611-15.986-15.854-16.64
		C26.037,17.274,14.094,0,14.094,0l-0.703,1.3l-0.704,1.3L10.73,1.875l1.376,2.422l-1.797-1.644l0.595,2.004L8.586,2.73L8.523,4.71
		L7.083,4.268l0.976,2.544L5.418,6.726l0.735,1.741c0,0-0.936-0.481-1.46,0.218c-0.523,0.701-1.2,0.358-1.2,0.358
		s0.555,2.128,0.974,2.543c0.419,0.413-1.741,0.737-1.741,0.737l1.019,1.223c0,0-0.745,0.415-2.262,0.456
		c3.038,1.292,19.76,14.385,19.76,14.385c3.066,3.604,15.754,15.579,15.754,15.579s7.771,8.118,18.37,19.173
		c-16.037,14.312-41.946,37.721-49.04,44.254c-9.707,8.94-5.353,13.602-5.353,13.602c4.811,5.419,12.266-3.79,12.266-3.79
		S43.724,85.988,60.71,68.713c20.459,21.335,47.473,49.467,52.38,54.383c6.587,0.631,7.214-6.509,7.214-6.509
		s-30.186-31.528-52.64-54.929C69.776,59.523,71.201,58.097,71.658,57.668z"/>
	<path fill="#DDC99E" d="M62.222,93.275c-0.198-0.52-0.665-0.965-1.323-0.965c-0.661,0-1.13,0.445-1.331,0.965
		c-1.621,4.195-3.217,7.6-5.784,12.154c-3.231,5.741,0.98,12.372,7.115,12.372c6.117,0,10.336-6.631,7.102-12.372
		C65.441,100.875,63.842,97.473,62.222,93.275z"/>
</g>
</svg>
