<?xml version="1.0" encoding="utf-8"?>
<!-- Generator: Adobe Illustrator 16.1.0, SVG Export Plug-In . SVG Version: 6.00 Build 0)  -->
<!DOCTYPE svg PUBLIC "-//W3C//DTD SVG 1.1//EN" "http://www.w3.org/Graphics/SVG/1.1/DTD/svg11.dtd">
<svg version="1.1" id="Layer_1" xmlns="http://www.w3.org/2000/svg" xmlns:xlink="http://www.w3.org/1999/xlink" x="0px" y="0px"
	 width="101.119px" height="123px" viewBox="0 0 101.119 123" enable-background="new 0 0 101.119 123" xml:space="preserve">
<path fill-rule="evenodd" clip-rule="evenodd" fill="#00B2BF" d="M86.728,119.87c-0.729,0.054-1.353,0.085-1.973,0.151
	c-0.363,0.042-0.726,0.118-1.08,0.213c-0.319,0.082-0.621,0.236-0.942,0.312c-0.289,0.067-0.592,0.073-0.89,0.104
	c-0.181,0.02-0.364,0.036-0.6,0.059c-0.501-0.204-1.079-0.112-1.643-0.033c-0.39,0.055-0.763,0.225-1.151,0.312
	c-0.184,0.04-0.383,0.009-0.577,0.001c-0.652-0.032-1.308-0.079-1.961-0.093c-0.252-0.005-0.503,0.072-0.756,0.108
	c-0.217,0.032-0.435,0.062-0.653,0.096c-0.505,0.074-1.007,0.066-1.518,0.026c-0.405-0.03-0.825,0.067-1.235,0.121
	c-0.969,0.129-1.935,0.302-2.907,0.386c-0.603,0.051-1.216-0.055-1.824-0.04c-0.589,0.016-1.178,0.095-1.766,0.147
	c-0.383,0.036-0.766,0.109-1.147,0.105c-0.824-0.005-1.638,0.066-2.448,0.211c-0.428,0.074-0.863,0.097-1.296,0.146
	c-0.895,0.105-1.782,0.27-2.679,0.304c-0.991,0.04-1.988-0.045-2.982-0.063c-1.076-0.017-2.148-0.028-3.224-0.028
	c-0.358,0-0.719,0.036-1.077,0.072c-0.664,0.062-1.326,0.146-1.99,0.198c-0.148,0.013-0.306-0.059-0.382-0.075
	c-0.278,0.03-0.488,0.05-0.696,0.074c-0.004-0.024-0.008-0.05-0.012-0.073c-0.125,0.067-0.25,0.136-0.396,0.217
	c-0.073-0.047-0.15-0.096-0.233-0.147c-0.279,0.079-0.565,0.212-0.861,0.226c-0.214,0.01-0.432,0.002-0.65,0.014
	c-0.51,0.026-1.023-0.029-1.537-0.053c-0.174-0.008-0.351-0.011-0.524-0.017c-0.354-0.011-0.707-0.024-1.06-0.033
	c-0.354-0.008-0.706,0.015-1.056-0.021c-0.884-0.083-1.757,0.196-2.643,0.062c-0.339-0.049-0.693,0.016-1.037-0.007
	c-0.268-0.015-0.528-0.085-0.862-0.141c-0.255,0.215-0.622,0.263-1.015,0.166c-0.062-0.015-0.132-0.038-0.186-0.021
	c-0.588,0.179-1.184,0.149-1.785,0.125c-0.273-0.013-0.548-0.013-0.822,0.001c-0.617,0.029-1.211-0.123-1.816-0.188
	c-0.366-0.04-0.723-0.019-1.051-0.221c-0.069-0.042-0.191,0.006-0.283-0.007c-0.234-0.032-0.468-0.078-0.694-0.146
	c-0.853,0.18-1.714,0.111-2.574,0.024c-0.799-0.076-1.6-0.147-2.403-0.199c-0.748-0.048-1.502-0.048-2.252-0.108
	c-0.703-0.056-1.4-0.145-2.09-0.32c-0.779-0.195-1.585-0.282-2.378-0.417c-0.601-0.1-1.199-0.233-1.804-0.29
	c-0.618-0.056-1.192-0.247-1.769-0.452c-0.604-0.215-1.2-0.457-1.81-0.649c-0.758-0.244-1.528-0.45-2.294-0.673
	c-0.062-0.018-0.13-0.017-0.185-0.045c-0.918-0.493-1.911-0.84-2.721-1.538c-0.372-0.321-0.843-0.53-1.258-0.803
	c-0.241-0.16-0.492-0.321-0.684-0.529c-0.886-0.959-1.776-1.911-2.608-2.914c-0.344-0.412-0.58-0.928-0.804-1.424
	c-0.274-0.615-0.518-1.249-0.706-1.895c-0.138-0.474-0.176-0.977-0.239-1.471c-0.086-0.701-0.178-1.406-0.218-2.111
	c-0.064-1.155,0.172-2.271,0.478-3.376c0.288-1.038,0.678-2.038,1.141-3.011c0.242-0.508,0.432-1.042,0.68-1.546
	c0.213-0.431,0.476-0.836,0.698-1.258c0.091-0.191,0.172-0.39,0.275-0.574c0.306-0.547,0.628-1.086,0.93-1.635
	c0.727-1.318,1.411-2.66,2.176-3.954c0.884-1.492,1.841-2.939,2.758-4.411c0.595-0.955,1.252-1.882,1.741-2.889
	c0.545-1.127,1.284-2.119,1.941-3.169c0.479-0.761,0.889-1.567,1.331-2.354c0.49-0.865,0.996-1.724,1.472-2.598
	c0.305-0.563,0.592-1.136,0.688-1.79c0.06-0.409,0.21-0.806,0.3-1.215c0.085-0.384,0.052-0.763-0.103-1.135
	c-0.166-0.401-0.3-0.815-0.448-1.224c-0.29-0.803-0.779-1.475-1.392-2.064c-0.08-0.078-0.156-0.164-0.221-0.256
	c-0.339-0.486-0.786-0.841-1.303-1.122c-0.211-0.115-0.416-0.247-0.604-0.399c-1.156-0.923-2.31-1.854-3.456-2.789
	c-0.161-0.131-0.296-0.296-0.432-0.453c-0.839-0.978-1.712-1.928-2.502-2.941c-1.294-1.659-2.346-3.463-2.974-5.487
	c-0.24-0.768-0.454-1.544-0.678-2.317c-0.15-0.522-0.334-1.041-0.435-1.575c-0.26-1.376-0.467-2.761-0.729-4.136
	c-0.104-0.534-0.065-1.054-0.018-1.581c0.071-0.771,0.137-1.538,0.194-2.311c0.098-1.256,0.382-2.478,0.727-3.687
	c0.233-0.819,0.479-1.637,0.76-2.441c0.192-0.545,0.439-1.071,0.699-1.589c0.476-0.948,0.961-1.891,1.474-2.816
	c0.51-0.925,1.066-1.822,1.59-2.739c0.438-0.762,0.84-1.543,1.289-2.296c0.425-0.711,0.889-1.399,1.342-2.092
	c0.323-0.497,0.667-0.98,0.989-1.48c0.421-0.646,0.968-1.174,1.515-1.71c0.184-0.178,0.358-0.367,0.533-0.555
	c0.504-0.545,1.021-1.063,1.677-1.432c0.922-0.518,1.823-1.068,2.75-1.573c0.377-0.205,0.802-0.317,1.196-0.489
	c0.247-0.108,0.484-0.241,0.718-0.378c0.621-0.373,1.233-0.76,1.858-1.127c0.21-0.122,0.297-0.298,0.28-0.517
	c-0.026-0.384-0.079-0.768-0.131-1.15c-0.009-0.078-0.046-0.158-0.087-0.224c-0.328-0.493-0.678-0.975-0.984-1.48
	c-0.271-0.446-0.598-0.875-0.704-1.427c-0.055-0.045-0.154-0.087-0.197-0.161c-0.222-0.353-0.438-0.712-0.635-1.079
	c-0.19-0.35-0.32-0.739-0.545-1.063c-0.385-0.553-0.693-1.141-0.993-1.741c-0.176-0.354-0.364-0.703-0.66-0.984
	c-0.092-0.087-0.169-0.2-0.219-0.316c-0.315-0.715-0.817-1.32-1.189-1.998c-0.264-0.484-0.529-0.951-0.857-1.401
	c-0.421-0.577-0.813-1.211-0.996-1.935c-0.125-0.489,0.104-0.815,0.625-0.827c0.221-0.003,0.445,0.023,0.663,0.057
	c0.851,0.135,1.702,0.044,2.551,0.017c0.893-0.031,1.785-0.082,2.678-0.115c0.901-0.031,1.803-0.063,2.701-0.064
	c0.513-0.001,1.025,0.069,1.538,0.086c1.007,0.03,2.015,0.021,3.017-0.123c0.318-0.047,0.641-0.066,0.963-0.075
	c0.977-0.026,1.957-0.25,2.932,0.034c0.075,0.022,0.162,0.008,0.239,0.012c0.821,0.034,1.643,0.073,2.464,0.098
	c0.462,0.012,0.927-0.002,1.392,0c0.737,0,1.479,0.01,2.218,0.004c0.272-0.002,0.543-0.047,0.816-0.055
	c0.344-0.012,0.689-0.025,1.033-0.006c0.929,0.052,1.858,0.123,2.812,0.187c0.015,0.036,0.04,0.099,0.078,0.2
	c0.075-0.065,0.138-0.121,0.127-0.111c0.558,0.025,1.048,0.068,1.537,0.066c0.884-0.002,1.773-0.104,2.65-0.033
	c1.54,0.126,3.081-0.034,4.619,0.041c1.428,0.069,2.855,0.151,4.287,0.215c1.591,0.07,3.183,0.135,4.777,0.179
	c0.636,0.018,1.27-0.031,1.906-0.037c0.176,0,0.351,0.086,0.526,0.081c0.553-0.006,1.104-0.041,1.657-0.051
	c0.128-0.001,0.257,0.06,0.435,0.104c0.007-0.005,0.065-0.054,0.126-0.104c0.548,0.156,1.133-0.175,1.669,0.126
	c0.318-0.234,0.675-0.227,1.038-0.149C67.225,0.997,67.649,1.03,68,0.815c0.242,0.019,0.439,0.057,0.636,0.047
	c1.29-0.066,2.578-0.165,3.87-0.207c0.687-0.022,1.378,0.046,2.068,0.068c0.193,0.008,0.386,0.015,0.579,0.004
	c0.416-0.021,0.831-0.058,1.248-0.08c0.981-0.057,1.963-0.136,2.945-0.156c1.284-0.024,2.516,0.142,3.618,0.933
	c0.427,0.306,1.004,0.405,1.514,0.595c0.739,0.272,1.49,0.517,2.218,0.818c0.702,0.29,1.086,1.19,0.7,1.986
	C86.9,5.84,86.376,6.832,85.739,7.762c-0.17,0.252-0.368,0.498-0.604,0.683c-0.381,0.3-0.646,0.652-0.783,1.121
	c-0.04,0.142-0.157,0.33-0.28,0.369c-0.275,0.084-0.382,0.309-0.479,0.508c-0.293,0.605-0.536,1.234-0.812,1.852
	c-0.234,0.522-0.487,1.042-0.735,1.562c-0.251,0.538-0.507,1.075-0.762,1.613c-0.09,0.184-0.182,0.369-0.276,0.554
	c-0.485,0.941-0.933,1.906-1.467,2.821c-0.704,1.208-1.311,2.469-2.113,3.627c-0.534,0.774-1.06,1.571-1.417,2.463
	c-0.178,0.441-0.475,0.834-0.71,1.252c-0.569,1.009-1.275,1.93-1.785,2.979c-0.45,0.925-1.013,1.793-1.502,2.698
	c-0.544,1.007-1.052,2.03-1.592,3.037c-0.396,0.738-0.835,1.453-1.228,2.192c-0.462,0.866-0.884,1.766-1.068,2.727
	c-0.114,0.588-0.003,1.218,0.024,1.829c0.062,1.322,0.62,2.484,1.209,3.635c0.396,0.774,0.782,1.554,1.184,2.327
	c0.146,0.285,0.318,0.557,0.483,0.833c0.601,1.005,1.036,2.058,1.181,3.237c0.136,1.096,0.104,2.151-0.341,3.172
	c-0.095,0.219-0.234,0.422-0.359,0.627c-0.282,0.466-0.568,0.93-0.865,1.413c0.129,0.171,0.268,0.344,0.396,0.521
	c0.442,0.611,0.92,1.202,1.309,1.847c0.324,0.531,0.539,1.131,0.802,1.699c0.066,0.146,0.124,0.296,0.196,0.438
	c0.4,0.766,0.794,1.538,1.211,2.298c0.373,0.677,0.759,1.346,1.16,2.004c0.52,0.852,1.06,1.69,1.59,2.534
	c0.017,0.028,0.03,0.06,0.053,0.081c0.797,0.766,1.17,1.835,1.953,2.632c0.707,0.716,1.236,1.605,1.824,2.436
	c0.85,1.193,1.692,2.392,2.518,3.606c0.968,1.422,1.897,2.875,2.876,4.293c0.555,0.809,1.193,1.561,1.756,2.363
	c0.6,0.859,1.13,1.765,1.727,2.622c0.535,0.768,1.117,1.497,1.682,2.24c0.479,0.627,0.974,1.238,1.438,1.872
	c0.685,0.934,1.248,1.951,2.029,2.821c0.622,0.693,1.057,1.524,1.521,2.335c0.527,0.921,1.125,1.801,1.693,2.699
	c0.061,0.095,0.134,0.186,0.207,0.266c1.04,1.104,1.706,2.42,2.126,3.858c0.155,0.532,0.166,1.107,0.239,1.664
	c0.043,0.319,0.04,0.649,0.125,0.957c0.111,0.413,0.007,0.802-0.057,1.192c-0.083,0.507-0.21,1.007-0.336,1.506
	c-0.089,0.356-0.225,0.7-0.307,1.059c-0.145,0.642-0.215,1.303-0.412,1.929c-0.174,0.558-0.295,1.146-0.668,1.64
	c-0.298,0.396-0.497,0.864-0.79,1.264c-0.233,0.321-0.532,0.596-0.813,0.882c-0.553,0.561-1.099,1.129-1.675,1.666
	c-0.705,0.655-1.399,1.336-2.246,1.817c-0.476,0.269-0.958,0.506-1.545,0.477c-0.312-0.015-0.633,0.093-0.944,0.17
	c-0.449,0.113-0.901,0.23-1.338,0.389c-0.312,0.109-0.598,0.295-0.9,0.433c-0.156,0.072-0.328,0.173-0.488,0.164
	c-0.38-0.017-0.728,0.098-1.064,0.227C87.188,119.904,86.915,120.028,86.728,119.87z M69.348,56.222
	c0.205-0.14,0.462-0.229,0.568-0.407c0.39-0.645,0.729-1.319,1.084-1.98c0.016-0.027,0.019-0.063,0.019-0.096
	c0.018-0.578,0.051-1.156,0.043-1.735c-0.007-0.318-0.02-0.657-0.132-0.948c-0.309-0.812-0.632-1.623-1.024-2.396
	c-0.541-1.063-1.163-2.083-1.725-3.134c-0.226-0.424-0.413-0.869-0.567-1.325c-0.222-0.651-0.416-1.314-0.584-1.984
	c-0.094-0.369-0.165-0.759-0.152-1.137c0.027-0.822,0.19-1.64,0.494-2.39c0.542-1.339,1.077-2.686,1.833-3.926
	c0.183-0.301,0.366-0.603,0.54-0.908c0.743-1.3,1.482-2.601,2.224-3.902c0.428-0.749,0.858-1.496,1.28-2.25
	c0.227-0.403,0.418-0.825,0.646-1.227c0.383-0.666,0.796-1.315,1.171-1.984c0.378-0.672,0.721-1.362,1.089-2.041
	c0.281-0.519,0.651-1,0.854-1.547c0.2-0.551,0.611-0.95,0.869-1.453c0.128-0.248,0.245-0.516,0.424-0.724
	c0.262-0.302,0.438-0.632,0.538-1.011c0.025-0.093,0.055-0.201,0.122-0.255c0.317-0.261,0.38-0.661,0.565-0.993
	c0.062-0.111,0.105-0.233,0.166-0.344c0.324-0.591,0.653-1.176,0.974-1.766c0.212-0.397,0.423-0.794,0.622-1.197
	c0.375-0.767,0.731-1.541,1.112-2.303c0.299-0.601,0.544-1.2,0.354-1.895c-0.106-0.39-0.17-0.792-0.256-1.199
	c0.352-0.044,0.557,0.189,0.773,0.42c0.304-0.235,0.577-0.494,0.893-0.68c0.843-0.501,1.371-1.247,1.734-2.128
	c0.224-0.541,0.012-0.978-0.535-1.177c-0.076-0.027-0.152-0.06-0.217-0.105c-0.337-0.247-0.67-0.5-1.004-0.747
	c-0.369-0.273-0.76-0.494-1.312-0.497c-0.214-0.309-0.448-0.646-0.75-1.081c-0.329-0.16-0.809-0.201-1.287-0.229
	c-0.786-0.043-1.569,0.021-2.35,0.087c-0.497,0.038-1.011-0.007-1.493,0.093c-0.597,0.126-1.185,0.096-1.777,0.075
	c-0.257-0.008-0.512-0.08-0.765-0.075c-0.507,0.008-1.015,0.061-1.522,0.075c-1.158,0.031-2.314,0.048-3.473,0.081
	c-0.604,0.019-1.21,0.085-1.815,0.089c-2.28,0.015-4.562,0.012-6.843,0.015c-0.189,0-0.382,0-0.57-0.012
	c-1.041-0.069-2.083-0.181-3.123-0.205c-1.205-0.028-2.403-0.052-3.601-0.22c-0.522-0.074-1.056-0.074-1.584-0.102
	c-0.176-0.01-0.35,0.005-0.525,0.004c-0.782-0.004-1.572-0.051-2.354-0.001c-0.862,0.057-1.723,0.143-2.588,0.081
	c-0.285-0.021-0.569-0.099-0.854-0.096c-1.013,0.012-2.025,0.051-3.037,0.074c-0.722,0.016-1.446,0.05-2.165,0.025
	c-0.497-0.017-0.991-0.185-1.481-0.166c-0.643,0.026-1.275,0.008-1.914-0.025c-0.359-0.02-0.724,0.01-1.08-0.081
	C35.804,1.24,35.718,1.24,35.64,1.242c-0.814,0.042-1.625-0.14-2.44-0.026c-0.047,0.006-0.101,0.008-0.143-0.01
	c-0.495-0.194-1.029-0.131-1.524-0.111c-0.708,0.026-1.405,0.037-2.106-0.062C29.03,0.976,28.629,0.88,28.235,0.9
	c-0.604,0.033-1.216,0.119-1.813,0.238c-0.857,0.17-1.714,0.203-2.579,0.109c-0.955-0.102-1.887,0.121-2.82,0.263
	c-0.354,0.053-0.687,0.162-0.978,0.015c-0.614,0.062-1.174,0.13-1.736,0.174c-0.791,0.062-1.59-0.077-2.379,0.111
	c-0.334,0.08-0.686,0.07-1.125,0.111c-0.143,0.071-0.387,0.19-0.688,0.343c0.355,0.328,0.657,0.606,0.926,0.855
	c0.108,0.221,0.198,0.416,0.299,0.606c0.277,0.521,0.727,0.919,0.989,1.458c0.26,0.534,0.604,1.024,0.895,1.544
	c0.277,0.5,0.508,1.025,0.795,1.518c0.421,0.719,0.883,1.413,1.309,2.127c0.682,1.141,1.358,2.283,2.192,3.328
	c0.287,0.36,0.546,0.748,0.786,1.144c0.369,0.61,0.278,1.122-0.233,1.652c-0.142,0.146-0.217,0.354-0.359,0.5
	c-0.163,0.165-0.347,0.341-0.556,0.426c-0.496,0.199-1.019,0.338-1.522,0.523c-0.302,0.111-0.587,0.276-0.884,0.407
	c-0.494,0.216-0.946,0.532-1.402,0.827c-1.116,0.717-2.338,1.278-3.224,2.321c-0.298,0.35-0.709,0.598-1.039,0.925
	c-0.435,0.425-0.811,0.912-1.261,1.318c-0.639,0.574-0.972,1.344-1.409,2.044c-0.342,0.551-0.656,1.117-0.982,1.675
	c-0.36,0.623-0.723,1.246-1.085,1.869c-0.117,0.204-0.227,0.412-0.349,0.612c-0.12,0.205-0.253,0.398-0.373,0.602
	c-0.122,0.201-0.225,0.412-0.354,0.607c-0.226,0.348-0.496,0.672-0.687,1.035c-0.328,0.622-0.605,1.269-0.906,1.903
	c-0.402,0.854-0.86,1.679-1.236,2.55c-0.543,1.26-0.926,2.567-1.309,3.872c-0.25,0.857-0.342,1.766-0.457,2.657
	C2.566,44.031,2.49,44.9,2.436,45.767c-0.041,0.674-0.037,1.349,0.144,2.015c0.123,0.448,0.213,0.906,0.304,1.365
	c0.227,1.131,0.314,2.295,0.781,3.372c0.057,0.129,0.062,0.283,0.103,0.423c0.189,0.664,0.36,1.335,0.581,1.988
	c0.471,1.395,1.054,2.737,1.919,3.941c0.505,0.704,1.004,1.42,1.548,2.094c0.463,0.574,0.991,1.098,1.486,1.646
	c0.236,0.262,0.45,0.545,0.697,0.797c0.783,0.795,1.701,1.422,2.6,2.069c0.483,0.348,0.993,0.653,1.479,0.995
	c0.608,0.426,1.173,0.898,1.668,1.456c0.362,0.409,0.759,0.792,1.14,1.186c0.276,0.291,0.595,0.553,0.817,0.882
	c0.265,0.393,0.496,0.815,0.501,1.325c0.004,0.401,0.037,0.804,0.09,1.202c0.087,0.661-0.081,1.276-0.289,1.89
	c-0.071,0.21-0.123,0.45-0.264,0.61c-0.396,0.459-0.569,1.027-0.824,1.554c-0.293,0.612-0.587,1.215-1.033,1.727
	c-0.289,0.331-0.528,0.687-0.705,1.085c-0.051,0.111-0.133,0.215-0.213,0.31c-0.094,0.12-0.224,0.213-0.303,0.339
	c-0.396,0.657-0.776,1.326-1.176,1.981c-0.394,0.645-0.809,1.274-1.203,1.917c-0.472,0.773-0.95,1.546-1.397,2.332
	c-0.403,0.709-0.899,1.35-1.386,1.998c-0.363,0.486-0.656,1.027-1.02,1.512c-0.215,0.29-0.375,0.592-0.488,0.929
	c-0.111,0.333-0.304,0.621-0.527,0.892c-0.133,0.16-0.238,0.342-0.344,0.52c-0.277,0.471-0.521,0.962-0.826,1.41
	c-0.265,0.387-0.528,0.758-0.633,1.227c-0.041,0.183-0.135,0.368-0.252,0.515c-0.332,0.411-0.498,0.893-0.661,1.382
	c-0.045,0.135-0.117,0.262-0.186,0.387c-0.261,0.471-0.579,0.917-0.773,1.414c-0.251,0.648-0.474,1.308-0.702,1.965
	c-0.194,0.558-0.378,1.119-0.575,1.676c-0.216,0.602-0.46,1.194-0.657,1.802c-0.394,1.208-0.53,2.456-0.4,3.713
	c0.088,0.844,0.297,1.675,0.433,2.514c0.114,0.697,0.489,1.292,0.715,1.942c0.306,0.882,0.881,1.559,1.501,2.218
	c0.33,0.351,0.7,0.667,1.013,1.032c0.473,0.551,1.053,0.938,1.701,1.242c0.83,0.389,1.654,0.793,2.491,1.169
	c0.657,0.297,1.33,0.565,2.001,0.839c0.429,0.178,0.896,0.291,1.288,0.525c0.833,0.497,1.747,0.628,2.677,0.741
	c0.622,0.074,1.237,0.199,1.854,0.313c0.488,0.093,0.976,0.217,1.465,0.298c0.423,0.069,0.853,0.098,1.279,0.139
	c0.525,0.053,1.055,0.091,1.578,0.151c0.461,0.052,0.921,0.12,1.379,0.194c0.222,0.036,0.435,0.128,0.657,0.147
	c0.717,0.062,1.438,0.108,2.158,0.15c0.531,0.028,1.063,0.028,1.593,0.069c0.304,0.021,0.602,0.115,0.905,0.138
	c0.396,0.029,0.792,0.013,1.187,0.032c0.38,0.018,0.759,0.057,1.139,0.087c0.425,0.033,0.853,0.112,1.275,0.088
	c0.591-0.028,1.178-0.16,1.769-0.204c0.867-0.063,1.734-0.095,2.603,0.022c0.685,0.094,1.38,0.209,2.065,0.189
	c1.368-0.039,2.734-0.152,4.098-0.253c1.027-0.078,2.049-0.217,3.076-0.269c1.156-0.057,2.316-0.044,3.477-0.07
	c1.78-0.04,3.56-0.074,5.339-0.139c1.354-0.051,2.707-0.135,4.057-0.224c0.754-0.049,1.507-0.145,2.261-0.205
	c0.576-0.045,1.157-0.053,1.734-0.099c1.346-0.106,2.688-0.265,4.037-0.329c1.247-0.06,2.446-0.362,3.664-0.572
	c0.899-0.155,1.817-0.273,2.729-0.282c0.79-0.006,1.574-0.023,2.355-0.123c1.213-0.155,2.424-0.336,3.638-0.481
	c1.008-0.122,2.015-0.215,3.038-0.196c1.67,0.031,3.316-0.286,4.971-0.469c0.985-0.113,1.961-0.322,2.936-0.52
	c0.598-0.12,1.188-0.274,1.692-0.653c0.645-0.485,1.403-0.704,2.173-0.888c0.729-0.173,1.373-0.533,1.924-1.01
	c0.655-0.564,1.263-1.191,1.841-1.837c0.538-0.603,0.914-1.317,1.234-2.065c0.233-0.546,0.515-1.074,0.753-1.617
	c0.16-0.368,0.327-0.742,0.404-1.131c0.112-0.581,0.111-1.185,0.22-1.768c0.194-1.032-0.029-2.021-0.257-3.007
	c-0.261-1.127-1.012-2.045-1.364-3.138c-0.079-0.242-0.189-0.481-0.319-0.701c-0.212-0.36-0.459-0.695-0.678-1.053
	c-0.263-0.423-0.51-0.855-0.762-1.285c-0.239-0.401-0.479-0.8-0.718-1.202c-0.271-0.457-0.519-0.928-0.813-1.371
	c-0.588-0.885-1.271-1.693-1.965-2.504c-0.864-1.012-1.679-2.079-2.296-3.277c-0.16-0.31-0.404-0.578-0.616-0.862
	c-0.17-0.229-0.374-0.439-0.518-0.686c-0.258-0.445-0.505-0.887-0.891-1.249c-0.312-0.294-0.595-0.644-0.808-1.015
	c-0.491-0.85-0.96-1.708-1.565-2.484c-0.516-0.66-0.974-1.366-1.512-2.007c-0.685-0.813-1.445-1.563-2.002-2.479
	c-0.057-0.094-0.136-0.178-0.204-0.27c-0.349-0.463-0.694-0.928-1.045-1.391c-0.723-0.942-1.438-1.892-2.175-2.824
	c-0.409-0.516-0.854-1.001-1.286-1.497c-0.613-0.705-1.234-1.402-1.844-2.111c-0.263-0.305-0.529-0.609-0.749-0.943
	c-0.564-0.858-1.104-1.733-1.653-2.603c-0.052-0.08-0.099-0.164-0.148-0.247c-0.346-0.599-0.695-1.196-1.036-1.797
	c-0.255-0.445-0.514-0.89-0.747-1.347c-0.411-0.803-0.806-1.614-1.204-2.424c-0.227-0.465-0.445-0.932-0.662-1.399
	c-0.255-0.554-0.479-1.124-0.757-1.669c-0.121-0.237-0.323-0.441-0.516-0.633c-0.317-0.318-0.644-0.635-0.993-0.916
	c-0.414-0.331-0.682-0.806-1.129-1.104c-0.287-0.191-0.516-0.931-0.463-1.314c0.501,0.443,0.987,0.91,1.511,1.332
	C68.184,55.401,68.756,55.791,69.348,56.222z"/>
<path fill-rule="evenodd" clip-rule="evenodd" fill="#00B2BF" d="M23.064,22.021c0.161,0.072,0.341,0.206,0.529,0.226
	c0.504,0.05,0.946,0.262,1.327,0.542c1.05,0.778,2.016,1.653,2.756,2.744c0.224,0.33,0.396,0.699,0.571,1.061
	c0.572,1.17,1.11,2.357,1.708,3.512c0.367,0.713,0.817,1.381,1.227,2.071c0.153,0.259,0.312,0.519,0.441,0.792
	c0.387,0.828,0.769,1.662,1.135,2.502c0.365,0.842,0.705,1.694,1.059,2.54c0.117,0.282,0.245,0.561,0.365,0.844
	c0.435,1.05,0.625,2.16,0.759,3.279c0.06,0.506,0.067,1.021,0.074,1.53c0.003,0.169-0.087,0.338-0.109,0.513
	c-0.13,1.034-0.491,1.993-0.937,2.927c-0.075,0.155-0.106,0.33-0.165,0.494c-0.065,0.181-0.115,0.375-0.219,0.533
	c-0.723,1.101-1.455,2.196-2.189,3.288c-0.437,0.652-0.875,1.306-1.324,1.95c-0.497,0.711-1.029,1.397-1.501,2.124
	c-0.365,0.562-0.675,1.164-0.988,1.759c-0.942,1.793-1.986,3.528-3.096,5.226c-0.333,0.51-0.686,1.007-1.046,1.498
	c-0.124,0.166-0.279,0.334-0.461,0.423c-0.78,0.387-1.589,0.737-2.485,0.657c-0.427-0.036-0.86-0.153-1.256-0.318
	c-0.701-0.292-1.456-0.449-2.083-0.933c-0.321-0.25-0.746-0.366-1.116-0.555c-0.33-0.171-0.653-0.35-0.966-0.542
	c-0.163-0.1-0.314-0.229-0.443-0.372c-0.537-0.593-1.065-1.198-1.593-1.801c-0.137-0.158-0.251-0.334-0.386-0.493
	c-0.725-0.859-1.488-1.694-2.066-2.664c-0.361-0.607-0.677-1.243-0.986-1.879c-0.311-0.646-0.604-1.306-0.878-1.969
	c-0.129-0.31-0.218-0.64-0.286-0.968c-0.238-1.123-0.434-2.258-0.699-3.375c-0.257-1.076-0.504-2.153-0.568-3.258
	c-0.074-1.301-0.109-2.604-0.11-3.907c-0.001-0.554,0.116-1.107,0.199-1.659c0.062-0.412,0.159-0.82,0.235-1.231
	c0.076-0.41,0.276-0.793,0.367-1.183c0.13-0.554,0.352-1.062,0.535-1.588c0.463-1.327,1.149-2.544,1.834-3.768
	c0.484-0.869,1.091-1.669,1.57-2.535c0.611-1.1,1.373-2.089,2.092-3.107c0.404-0.574,0.94-1.057,1.431-1.566
	c0.287-0.301,0.611-0.568,0.897-0.87c0.494-0.519,1.083-0.913,1.691-1.276c0.982-0.588,2.059-0.871,3.194-0.967
	C21.76,22.215,22.408,22.105,23.064,22.021z M20.205,63.59c0.044-0.01,0.185-0.057,0.327-0.057c0.799-0.002,1.429-0.394,2.072-0.809
	c0.442-0.285,0.732-0.671,0.999-1.092c0.425-0.666,0.831-1.342,1.252-2.011c0.307-0.489,0.633-0.97,0.931-1.465
	c0.615-1.021,1.204-2.056,1.826-3.07c0.588-0.959,1.184-1.914,1.813-2.847c0.549-0.811,1.033-1.67,1.74-2.367
	c0.16-0.156,0.295-0.344,0.417-0.532c0.391-0.608,0.819-1.2,1.141-1.843c0.395-0.791,0.726-1.617,1.03-2.445
	c0.288-0.783,0.327-1.602,0.159-2.426c-0.018-0.078-0.014-0.16-0.026-0.24c-0.089-0.506-0.155-1.017-0.277-1.516
	c-0.156-0.639-0.358-1.268-0.543-1.9c-0.057-0.201-0.102-0.407-0.186-0.6c-0.527-1.189-1.021-2.397-1.613-3.556
	c-0.427-0.841-0.965-1.629-1.485-2.415c-0.726-1.093-1.231-2.291-1.768-3.474c-0.152-0.335-0.319-0.665-0.453-1.007
	c-0.393-1.005-0.78-2.002-1.612-2.752c-0.283-0.255-0.482-0.597-0.725-0.896c-0.068-0.085-0.143-0.181-0.235-0.229
	c-0.73-0.384-1.414-0.896-2.3-0.853c-0.426,0.019-0.846-0.105-1.279,0.002c-0.676,0.165-1.361,0.279-2.011,0.553
	c-0.296,0.122-0.616,0.308-0.882,0.146c-0.557,0.102-0.9,0.422-1.226,0.756c-0.174,0.179-0.282,0.439-0.48,0.575
	c-0.709,0.488-1.02,1.346-1.731,1.824c-0.023,0.015-0.03,0.053-0.045,0.079c-0.432,0.735-0.862,1.474-1.299,2.206
	c-0.056,0.092-0.148,0.164-0.225,0.244c-0.312,0.317-0.6,0.64-0.767,1.072c-0.173,0.445-0.362,0.904-0.647,1.276
	c-0.259,0.334-0.474,0.68-0.669,1.047c-0.144,0.266-0.272,0.538-0.416,0.804c-0.12,0.224-0.254,0.44-0.378,0.66
	c-0.14,0.251-0.276,0.503-0.415,0.754c-0.059,0.111-0.136,0.217-0.18,0.334c-0.297,0.761-0.604,1.52-0.871,2.292
	c-0.21,0.602-0.396,1.218-0.539,1.84c-0.136,0.59-0.212,1.195-0.298,1.797c-0.056,0.381-0.11,0.765-0.11,1.148
	c0.003,0.543,0.036,1.088,0.091,1.628c0.074,0.764,0.056,1.53,0.151,2.3c0.17,1.331,0.384,2.639,0.791,3.915
	c0.063,0.198,0.106,0.402,0.145,0.608c0.239,1.269,0.554,2.515,1.111,3.686c0.185,0.394,0.359,0.792,0.575,1.169
	c0.431,0.753,0.831,1.531,1.345,2.226c0.679,0.918,1.431,1.786,2.19,2.64c0.428,0.479,0.941,0.872,1.549,1.124
	C17.477,62.438,18.78,62.987,20.205,63.59z"/>
<path fill-rule="evenodd" clip-rule="evenodd" fill="#00B2BF" d="M10.834,107.038c-0.115,0.35,0.022,0.7,0.109,1.075
	c0.191,0.828,0.756,1.509,0.881,2.358c0.018,0.123,0.067,0.263,0.146,0.353c0.307,0.332,0.275,0.697,0.135,1.062
	c0.11,0.254,0.329,0.322,0.534,0.415c0.54,0.247,1.084,0.489,1.616,0.752c0.259,0.128,0.487,0.122,0.73-0.071
	c0.09,0.17,0.164,0.313,0.255,0.481c-0.454,0.215-0.896,0.365-1.392,0.191c-0.184-0.063-0.367-0.126-0.546-0.196
	c-0.357-0.138-0.714-0.279-1.066-0.427c-0.269-0.112-0.552-0.202-0.787-0.364c-0.656-0.452-1.394-0.779-1.932-1.418
	c-0.643-0.764-1.136-1.594-1.473-2.526c-0.296-0.822-0.432-1.683-0.557-2.538c-0.073-0.502,0-1.03,0.05-1.541
	c0.082-0.814,0.175-1.631,0.308-2.439c0.061-0.37,0.243-0.718,0.339-1.083c0.229-0.865,0.403-1.748,0.669-2.602
	c0.163-0.519,0.349-1.032,0.456-1.566c0.011-0.067,0.093-0.119,0.132-0.182c0.065-0.105,0.146-0.212,0.176-0.327
	c0.098-0.378,0.181-0.76,0.259-1.14c0.05-0.239,0.095-0.474,0.377-0.573c-0.021-0.091-0.037-0.165-0.06-0.264
	c0.417-0.305,0.256-0.841,0.44-1.263c0.27-0.613,0.437-1.268,0.667-1.902c0.071-0.191,0.206-0.358,0.295-0.544
	c0.213-0.449,0.408-0.904,0.622-1.354c0.157-0.334,0.337-0.657,0.497-0.99c0.245-0.506,0.463-1.023,0.725-1.518
	c0.247-0.465,0.558-0.895,0.803-1.361c0.58-1.109,1.349-2.102,1.884-3.242c0.493-1.042,1.157-2.005,1.731-3.008
	c0.511-0.895,0.998-1.803,1.502-2.7c0.19-0.338,0.422-0.652,0.595-0.996c0.403-0.802,0.777-1.622,1.176-2.429
	c0.164-0.333,0.37-0.641,0.533-0.974c0.332-0.675,0.628-1.371,0.979-2.035c0.294-0.554,0.638-1.079,0.975-1.606
	c0.208-0.323,0.439-0.631,0.667-0.941c0.178-0.245,0.382-0.473,0.542-0.729c0.194-0.312,0.346-0.651,0.538-0.966
	c0.324-0.532,0.66-1.06,1.004-1.583c0.188-0.288,0.404-0.562,0.635-0.837c-0.053,0.394-0.134,0.818-0.423,1.085
	c-0.357,0.327-0.476,0.753-0.684,1.146c-0.068,0.125-0.111,0.267-0.15,0.406c-0.234,0.85-0.763,1.551-1.19,2.298
	c-0.262,0.457-0.617,0.857-0.876,1.314c-0.257,0.455-0.429,0.956-0.66,1.422c-0.359,0.714-0.757,1.406-1.104,2.124
	c-0.221,0.457-0.515,0.872-0.629,1.393c-0.112,0.525-0.342,1.026-0.562,1.521c-0.176,0.39-0.395,0.761-0.718,1.062
	c-0.451,0.424-0.614,1.014-0.806,1.569c-0.154,0.45-0.359,0.839-0.685,1.194c-0.448,0.492-0.891,0.996-0.95,1.728
	c-0.02,0.254-0.179,0.522-0.347,0.727c-0.292,0.358-0.425,0.788-0.628,1.186c-0.115,0.229-0.228,0.457-0.344,0.686
	c-0.008,0.014-0.027,0.021-0.029,0.037c-0.212,0.884-0.707,1.67-0.897,2.562c-0.022,0.108-0.021,0.223-0.038,0.442
	c-0.124,0.123-0.307,0.305-0.489,0.483c-0.028-0.016-0.059-0.03-0.088-0.047c-0.015,0.25-0.03,0.499-0.044,0.733
	c-0.209,0.639-0.416,1.274-0.631,1.91c-0.028,0.09-0.072,0.18-0.127,0.257c-0.253,0.363-0.295,0.806-0.455,1.199
	c-0.234,0.579-0.212,1.276-0.758,1.727c-0.267,0.217-0.284,0.524-0.208,0.82c-0.366,0.545-0.545,1.116-0.627,1.756
	c-0.077,0.604-0.134,1.24-0.485,1.778c-0.107,0.166-0.138,0.345-0.179,0.535c-0.176,0.846-0.126,1.727-0.42,2.555
	c-0.092,0.268-0.101,0.569-0.119,0.857c-0.043,0.641-0.084,1.281-0.092,1.922c-0.008,0.799,0.001,1.6,0.04,2.396
	C10.617,106.521,10.748,106.76,10.834,107.038z"/>
<path fill-rule="evenodd" clip-rule="evenodd" fill="#00B2BF" d="M68.541,53.686c-0.194,0.139-0.347,0.247-0.531,0.381
	c-0.349-0.367-0.74-0.628-1.046-1.017c-0.362-0.461-0.639-0.951-0.853-1.496c-0.109-0.278-0.315-0.519-0.477-0.774
	c-0.009-0.016-0.02-0.027-0.031-0.037c-0.588-0.463-0.908-1.116-1.241-1.761c-0.08-0.153-0.205-0.284-0.3-0.433
	c-0.521-0.829-1.121-1.623-1.538-2.503c-0.375-0.79-0.637-1.66-0.792-2.522c-0.163-0.912-0.163-1.855-0.195-2.787
	c-0.051-1.5,0.321-2.897,1.048-4.212c0.731-1.32,1.428-2.662,2.167-3.981c0.746-1.335,1.52-2.651,2.288-3.974
	c0.79-1.361,1.565-2.732,2.382-4.078c0.845-1.387,1.694-2.77,2.607-4.109c0.977-1.432,2.089-2.774,3.031-4.228
	c0.734-1.131,1.302-2.37,1.943-3.562c0.76-1.413,1.431-2.873,2.243-4.266c0.617-1.063,1.25-2.141,1.529-3.369
	c0.103-0.441,0.197-0.882,0.081-1.359c-0.231-0.183-0.44-0.397-0.262-0.731c0.126,0.078,0.227,0.163,0.342,0.205
	c0.396,0.145,0.578,0.431,0.618,0.839c0.086,0.911-0.003,1.793-0.362,2.647c-0.363,0.869-0.669,1.765-1.049,2.625
	c-0.519,1.175-1.076,2.335-1.629,3.496c-0.164,0.347-0.354,0.686-0.559,1.013c-0.541,0.875-1.087,1.747-1.648,2.608
	c-0.305,0.471-0.654,0.91-0.964,1.376c-0.24,0.361-0.437,0.751-0.681,1.108c-0.369,0.542-0.772,1.06-1.146,1.599
	c-0.308,0.449-0.617,0.9-0.89,1.373c-0.304,0.526-0.54,1.087-0.883,1.601c-0.37,0.557-0.615,1.196-0.944,1.782
	c-0.34,0.6-0.656,1.202-0.918,1.848c-0.213,0.523-0.614,0.972-0.931,1.453c-0.054,0.079-0.132,0.152-0.162,0.239
	c-0.14,0.418-0.394,0.764-0.636,1.126c-0.481,0.718-0.937,1.457-1.381,2.2c-0.508,0.855-1.008,1.717-1.353,2.661
	c-0.191,0.521-0.432,1.035-0.796,1.472c-0.059,0.07-0.085,0.167-0.124,0.251c-0.12,0.259-0.249,0.514-0.364,0.772
	c-0.146,0.338-0.299,0.676-0.428,1.021c-0.149,0.388-0.276,0.783-0.413,1.173c-0.049,0.134-0.113,0.265-0.153,0.4
	c-0.092,0.305-0.215,0.601-0.11,0.938c0.052,0.163,0.044,0.348,0.046,0.525c0.004,0.654,0.026,1.312-0.006,1.967
	c-0.04,0.754,0.337,1.359,0.629,2c0.058,0.132,0.119,0.261,0.186,0.388c0.118,0.225,0.24,0.446,0.364,0.669
	c0.117,0.211,0.271,0.404,0.356,0.628c0.207,0.549,0.511,1.032,0.88,1.481c0.052,0.063,0.109,0.126,0.139,0.197
	c0.439,1.028,1.13,1.902,1.704,2.849c0.081,0.136,0.131,0.295,0.171,0.447c0.142,0.557,0.383,1.056,0.79,1.471
	C68.379,53.403,68.434,53.524,68.541,53.686z"/>
<path fill-rule="evenodd" clip-rule="evenodd" fill="#00B2BF" d="M83.539,82.904c0.494,1.088,1.433,1.811,2.191,2.677
	c0.584,0.667,1.163,1.332,1.654,2.075c0.275,0.413,0.628,0.773,0.948,1.155c0.618,0.741,1.236,1.485,1.859,2.226
	c0.632,0.75,1.291,1.482,1.903,2.25c0.479,0.605,0.917,1.243,1.357,1.877c0.396,0.567,0.771,1.148,1.152,1.726
	c0.568,0.86,1.105,1.736,1.521,2.687c0.315,0.722,0.722,1.404,1.044,2.123c0.445,1.003,0.731,2.049,0.8,3.156
	c0.061,0.946,0.08,1.898-0.064,2.829c-0.08,0.507-0.145,1.039-0.412,1.521c-0.277,0.505-0.428,1.075-0.695,1.585
	c-0.376,0.725-0.828,1.399-1.526,1.87c-0.547,0.371-1.119,0.685-1.72,0.964c-0.694,0.325-1.349,0.736-2.011,1.124
	c-0.229,0.136-0.459,0.19-0.726,0.218c-0.75,0.069-1.495,0.188-2.246,0.282c-0.155,0.02-0.316,0.015-0.476,0.023
	c-0.493,0.026-0.987,0.045-1.48,0.087c-0.264,0.021-0.42,0.017-0.775-0.141c0.392-0.026,0.74-0.019,1.076-0.08
	c1.048-0.189,2.065-0.48,3.031-0.94c0.187-0.089,0.391-0.142,0.59-0.2c0.499-0.144,0.955-0.328,1.348-0.709
	c0.448-0.433,0.986-0.774,1.477-1.167c1.03-0.819,1.711-1.86,1.959-3.169c0.071-0.376,0.153-0.751,0.207-1.131
	c0.095-0.692-0.023-1.377-0.115-2.059c-0.075-0.574-0.168-1.149-0.309-1.711c-0.157-0.623-0.34-1.244-0.581-1.841
	c-0.548-1.341-1.114-2.676-1.718-3.991c-0.246-0.538-0.615-1.019-0.924-1.524c-0.545-0.894-1.086-1.788-1.632-2.681
	c-0.358-0.588-0.737-1.165-1.074-1.767c-0.308-0.543-0.552-1.119-0.854-1.665c-0.287-0.513-0.607-1.01-0.929-1.502
	c-0.322-0.493-0.696-0.945-0.816-1.553c-0.05-0.257-0.229-0.49-0.359-0.731c-0.598-1.095-1.516-1.946-2.238-2.947
	C83.768,83.562,83.615,83.255,83.539,82.904z"/>
<path fill-rule="evenodd" clip-rule="evenodd" fill="#00B2BF" d="M78.59,3.477c0.009,0.08,0.025,0.205,0.027,0.221
	c-0.309,0.555-0.562,1.036-0.839,1.504c-0.364,0.62-0.749,1.23-1.113,1.851c-0.084,0.142-0.126,0.304-0.208,0.506
	c-0.016,0-0.091,0.006-0.233,0.017c-0.337,0.743-0.669,1.522-1.046,2.282c-0.299,0.599-0.651,1.177-0.99,1.755
	c-0.054,0.092-0.162,0.15-0.185,0.268c-0.117,0.178-0.234,0.354-0.351,0.53c-0.025,0.04-0.05,0.081-0.074,0.124
	c-0.375,0.717-0.731,1.443-1.134,2.147c-0.22,0.384-0.524,0.72-0.764,1.096c-0.381,0.6-0.843,1.138-1.131,1.811
	c-0.229,0.532-0.638,0.987-0.921,1.501c-0.203,0.37-0.489,0.705-0.542,1.157c-0.015,0.131-0.125,0.256-0.196,0.38
	c-0.523,0.903-1.052,1.803-1.568,2.713c-0.09,0.161-0.055,0.43-0.175,0.531c-0.307,0.252-0.39,0.621-0.589,0.926
	c-0.399,0.617-0.801,1.235-1.178,1.867c-0.246,0.409-0.445,0.849-0.675,1.269c-0.252,0.46-0.494,0.931-0.785,1.368
	c-0.325,0.492-0.719,0.938-1.043,1.433c-0.344,0.522-0.663,1.063-0.956,1.618c-0.389,0.737-0.744,1.491-1.104,2.244
	c-0.104,0.216-0.196,0.445-0.234,0.68c-0.102,0.553-0.297,1.075-0.517,1.59c-0.048,0.117-0.066,0.248-0.093,0.372
	c-0.086,0.421-0.081,0.863-0.363,1.233c-0.093,0.118-0.093,0.306-0.135,0.461c-0.086,0.324-0.177,0.645-0.262,0.97
	c-0.041,0.172-0.094,0.346-0.103,0.52c-0.021,0.499-0.049,0.998-0.024,1.497c0.021,0.474,0.105,0.947,0.162,1.438
	c-0.046,0.063-0.103,0.135-0.174,0.231c0.161,0.229,0.387,0.469,0.025,0.748c-0.292-0.199-0.587-0.397-0.842-0.569
	c-0.042-0.476-0.115-0.909-0.108-1.338c0.014-1.041-0.022-2.088,0.312-3.099c0.116-0.352,0.171-0.721,0.25-1.083
	c0.312-1.392,0.946-2.667,1.453-3.987c0.387-1.009,0.918-1.949,1.542-2.837c0.323-0.461,0.622-0.94,0.923-1.415
	c0.526-0.832,0.92-1.729,1.314-2.63c0.213-0.483,0.479-0.944,0.707-1.421c0.143-0.304,0.245-0.625,0.389-0.928
	c0.146-0.304,0.323-0.595,0.485-0.891c0.56-1.013,1.146-2.014,1.672-3.044c0.475-0.929,0.876-1.897,1.33-2.838
	c0.201-0.421,0.47-0.808,0.681-1.222c0.235-0.458,0.42-0.94,0.663-1.393c0.455-0.853,0.947-1.683,1.404-2.533
	c0.373-0.693,0.747-1.389,1.062-2.109c0.488-1.119,0.934-2.259,1.387-3.39c0.197-0.493,0.39-0.989,0.549-1.493
	c0.239-0.75-0.045-1.377-0.511-1.951c-0.157-0.194-0.294-0.402-0.471-0.648c0.934-0.092,1.802-0.193,2.675-0.258
	C76.825,3.197,77.683,3.279,78.59,3.477z M76.082,3.775c-0.03,0.032-0.058,0.062-0.089,0.092c0.376,0.592,0.654,1.211,0.606,1.934
	c0.219-0.339,0.39-0.679,0.578-1.009c0.188-0.333,0.478-0.614,0.607-1.069c-0.347,0.076-0.605,0.175-0.867,0.18
	C76.64,3.908,76.361,3.824,76.082,3.775z"/>
<path fill-rule="evenodd" clip-rule="evenodd" fill="#00B2BF" d="M30.767,57.343c0.086-0.194,0.139-0.307,0.185-0.419
	c0.268-0.656,0.521-1.317,0.804-1.966c0.303-0.691,0.652-1.361,0.952-2.053c0.503-1.167,1.002-2.335,1.468-3.518
	c0.394-1.005,0.804-2.009,1.08-3.046c0.263-0.985,0.56-1.982,0.562-3.021c0.004-0.777-0.103-1.541-0.425-2.261
	c-0.452-1.013-0.911-2.021-1.36-3.036c-0.142-0.322-0.248-0.66-0.392-0.983c-0.38-0.87-0.78-1.73-1.157-2.602
	c-0.197-0.457-0.352-0.932-0.534-1.395c-0.139-0.342-0.278-0.684-0.44-1.015c-0.295-0.606-0.61-1.203-0.91-1.808
	c-0.15-0.3-0.302-0.604-0.422-0.916c-0.124-0.328-0.259-0.645-0.444-0.951c-0.278-0.46-0.502-0.959-0.717-1.455
	c-0.565-1.303-1.258-2.533-2.031-3.721c-0.052-0.081-0.113-0.16-0.149-0.247c-0.359-0.911-0.918-1.723-1.379-2.685
	c0.167,0.057,0.281,0.076,0.374,0.131c0.707,0.435,1.253,1.045,1.784,1.67c0.187,0.218,0.391,0.422,0.579,0.639
	c0.293,0.34,0.583,0.684,0.864,1.035c0.129,0.16,0.211,0.36,0.353,0.51c0.635,0.662,0.955,1.517,1.415,2.284
	c0.415,0.693,0.664,1.453,0.899,2.219c0.05,0.163,0.182,0.299,0.259,0.458c0.069,0.147,0.113,0.308,0.137,0.476
	c0.125,0.248,0.339,0.445,0.343,0.773c0.002,0.147,0.187,0.283,0.251,0.442c0.281,0.689,0.551,1.387,0.826,2.084
	c0.01,0.029,0.023,0.061,0.043,0.082c0.265,0.312,0.378,0.697,0.479,1.074c0.24,0.906,0.662,1.748,0.922,2.647
	c0.127,0.436,0.391,0.831,0.558,1.259c0.272,0.697,0.559,1.395,0.753,2.112c0.099,0.364,0.131,0.745,0.294,1.097
	c0.102,0.229,0.16,0.479,0.291,0.707c-0.016,0.108-0.046,0.219-0.039,0.327c0.021,0.509,0.082,1.02,0.075,1.528
	c-0.007,0.396-0.097,0.789-0.146,1.183c-0.015,0.11-0.051,0.224-0.042,0.332c0.025,0.337-0.042,0.634-0.269,0.897
	c-0.068,0.079-0.119,0.209-0.11,0.31c0.066,0.734-0.283,1.384-0.398,2.081c-0.015,0.088-0.073,0.174-0.128,0.251
	c-0.156,0.219-0.336,0.424-0.471,0.654c-0.179,0.301-0.314,0.628-0.487,0.934c-0.194,0.341-0.406,0.672-0.615,1.004
	c-0.253,0.398-0.511,0.794-0.768,1.19c-0.087,0.136-0.184,0.26-0.126,0.446c0.017,0.056-0.032,0.154-0.078,0.21
	c-0.303,0.354-0.348,0.775-0.33,1.139c-0.324,0.547-0.611,1.038-0.905,1.525c-0.063,0.108-0.129,0.24-0.23,0.298
	c-0.39,0.233-0.634,0.588-0.869,0.955C30.92,57.244,30.878,57.261,30.767,57.343z"/>
<path fill-rule="evenodd" clip-rule="evenodd" fill="#00B2BF" d="M69.541,4.054c0.19,0.054,0.377,0.106,0.564,0.16
	c0.016-0.025,0.031-0.05,0.046-0.073c-0.088-0.117-0.178-0.231-0.317-0.413c0.938,0.628,0.962,0.612,1.235,0.409
	c0.435,0.085,0.829,0.242,1.171,0.537c0.219,0.19,0.37,0.417,0.391,0.699c0.039,0.602,0.152,1.194,0.163,1.806
	c0.014,0.719-0.193,1.389-0.265,2.086c-0.023,0.256-0.188,0.506-0.322,0.74c-0.227,0.4-0.491,0.775-0.715,1.175
	c-0.21,0.377-0.377,0.775-0.574,1.158c-0.151,0.294-0.332,0.573-0.474,0.873c-0.135,0.289-0.216,0.602-0.356,0.888
	c-0.235,0.476-0.443,0.979-0.764,1.393c-0.371,0.478-0.553,1.045-0.865,1.545c-0.263,0.42-0.46,0.881-0.69,1.319
	c-0.335,0.639-0.702,1.262-1.01,1.911c-0.31,0.656-0.654,1.288-1.079,1.877c-0.046,0.064-0.076,0.139-0.109,0.213
	c-0.229,0.51-0.449,1.023-0.685,1.53c-0.094,0.203-0.225,0.389-0.33,0.585c-0.423,0.776-0.834,1.556-1.264,2.328
	c-0.287,0.516-0.604,1.021-0.903,1.533c-0.138,0.235-0.261,0.48-0.404,0.713c-0.308,0.504-0.625,1.003-0.934,1.505
	c-0.059,0.093-0.105,0.193-0.158,0.295c-0.261,0.477-0.523,0.949-0.778,1.432c-0.301,0.566-0.6,1.137-0.894,1.707
	c-0.174,0.344-0.34,0.689-0.502,1.038c-0.245,0.521-0.424,1.086-0.741,1.558c-0.333,0.499-0.599,1.021-0.865,1.55
	c-0.372,0.743-0.552,1.542-0.707,2.344c-0.066,0.348-0.011,0.719-0.011,1.079c-0.032,0.014-0.063,0.027-0.099,0.04
	c-0.129-0.132-0.297-0.243-0.383-0.4c-0.352-0.641-0.472-1.327-0.36-2.055c0.266-1.693,0.944-3.234,1.707-4.75
	c0.735-1.458,1.693-2.773,2.548-4.152c0.279-0.451,0.509-0.935,0.788-1.387c0.232-0.384,0.509-0.741,0.761-1.112
	c0.291-0.425,0.604-0.837,0.861-1.279c0.367-0.627,0.747-1.252,1.024-1.919c0.444-1.076,1.146-2.002,1.693-3.019
	c0.411-0.763,0.913-1.478,1.365-2.221c0.744-1.228,1.385-2.506,1.942-3.833c0.542-1.288,1.196-2.526,1.791-3.793
	c0.427-0.902,0.857-1.803,1.242-2.721c0.14-0.334,0.183-0.719,0.214-1.085c0.066-0.806,0.061-1.609-0.257-2.379
	c-0.124-0.299-0.281-0.541-0.592-0.663c-0.087-0.033-0.158-0.102-0.24-0.148c-0.188-0.111-0.379-0.22-0.568-0.329
	c-0.119-0.069-0.238-0.145-0.356-0.217C69.499,4.104,69.521,4.078,69.541,4.054z"/>
<path fill-rule="evenodd" clip-rule="evenodd" fill="#00B2BF" d="M8.958,92.103c-0.104,0.681-0.236,1.356-0.293,2.042
	c-0.035,0.436-0.259,0.805-0.301,1.236C8.33,95.71,8.198,96.03,8.094,96.348c-0.044,0.131-0.135,0.244-0.21,0.373
	c-0.031,0.162-0.044,0.351-0.108,0.516c-0.174,0.434-0.121,0.925-0.346,1.343c-0.188,0.347-0.367,0.694-0.539,1.049
	c-0.062,0.128-0.095,0.272-0.133,0.411c-0.151,0.537-0.3,1.074-0.445,1.612c-0.082,0.305-0.129,0.622-0.244,0.914
	c-0.18,0.457-0.169,0.938-0.215,1.406c-0.043,0.466-0.009,0.938-0.009,1.256c-0.044,0.455-0.106,0.761-0.092,1.063
	c0.035,0.686,0.073,1.357-0.028,2.052c-0.08,0.536,0.032,1.109,0.113,1.658c0.091,0.616,0.248,1.224,0.364,1.837
	c0.119,0.637,0.483,1.151,0.809,1.688c0.371,0.609,0.919,1.065,1.404,1.569c0.439,0.455,1.021,0.712,1.642,0.849
	c0.236,0.054,0.473,0.09,0.745,0.142c-0.647,0.144-1.146,0.081-1.655-0.187c-0.156-0.082-0.313-0.167-0.48-0.223
	c-0.38-0.123-0.674-0.354-0.951-0.636c-0.244-0.249-0.522-0.49-0.828-0.649c-0.708-0.367-1.257-0.903-1.735-1.516
	c-0.417-0.53-0.767-1.1-0.952-1.772c-0.15-0.538-0.426-1.041-0.631-1.565c-0.477-1.216-0.645-2.477-0.6-3.784
	c0.054-1.532,0.406-2.993,0.897-4.427c0.162-0.482,0.416-0.932,0.623-1.398c0.159-0.356,0.302-0.719,0.464-1.07
	c0.119-0.256,0.218-0.533,0.396-0.742C5.67,97.73,5.896,97.3,6.146,96.876c0.304-0.52,0.693-0.986,1.045-1.477
	c0.52-0.726,1.026-1.457,1.302-2.321c0.109-0.349,0.276-0.68,0.417-1.02C8.927,92.073,8.942,92.089,8.958,92.103z"/>
<path fill-rule="evenodd" clip-rule="evenodd" fill="#00B2BF" d="M22.069,8.51c0.173,0.307,0.299,0.646,0.518,0.912
	c0.518,0.627,1.039,1.261,1.752,1.69c0.067,0.04,0.124,0.103,0.179,0.16c0.031,0.035,0.047,0.085,0.075,0.135
	c-0.067,0.184-0.138,0.369-0.215,0.57c-0.313,0-0.65,0-0.972,0c-0.268-0.295-0.442-0.65-0.821-0.806
	c0.414,0.846,0.872,1.665,1.112,2.578c-0.117,0.146-0.235,0.291-0.354,0.437c-0.248,0.03-0.388-0.143-0.434-0.318
	c-0.243-0.931-0.914-1.607-1.399-2.392c-0.099-0.159-0.261-0.278-0.388-0.421c-0.27-0.297-0.457-0.638-0.557-1.026
	c-0.018-0.073-0.028-0.156-0.068-0.217c-0.303-0.475-0.62-0.938-0.917-1.415c-0.279-0.447-0.537-0.908-0.811-1.362
	c-0.445-0.738-0.802-1.528-1.337-2.218c-0.289-0.369-0.549-0.781-0.59-1.286c-0.01-0.131-0.121-0.253-0.207-0.413
	c0.659-0.062,1.28-0.12,1.901-0.176c0.11-0.01,0.226-0.013,0.333,0.013c0.266,0.062,0.511,0.057,0.637-0.087
	c0.549-0.028,1.007-0.064,1.467-0.079c1.046-0.032,2.091-0.075,3.137-0.075c0.414,0,0.825,0.121,1.241,0.156
	c0.629,0.054,1.262,0.081,1.944,0.125c-0.313,0.073-0.59,0.131-0.861,0.205c-0.167,0.046-0.318,0.142-0.484,0.179
	C25.8,3.412,25.631,3.431,25.484,3.4c-0.672-0.145-1.342,0.013-2.01,0c-0.055-0.002-0.11,0.053-0.182,0.092
	c0.083,0.073,0.154,0.135,0.246,0.214c-0.021,0.167-0.044,0.349-0.065,0.534c-0.662,0.271-1.427,0.092-2.172,0.479
	c0.27,0.223,0.448,0.473,0.681,0.541c0.344,0.099,0.6,0.285,0.844,0.521c-0.039,0.163-0.08,0.331-0.129,0.526
	C22.4,6.26,22.112,6.21,21.824,6.162c-0.017,0.027-0.031,0.053-0.047,0.079c0.532,0.598,1.066,1.197,1.604,1.805
	c-0.078,0.125-0.163,0.257-0.276,0.438c-0.306,0-0.653,0-1.003,0c-0.141-0.454-0.421-0.794-0.824-1.101
	C21.246,7.772,21.494,8.102,22.069,8.51z"/>
<path fill-rule="evenodd" clip-rule="evenodd" fill="#00B2BF" d="M65.391,70.561c-0.138,0.288-0.084,0.535,0.053,0.796
	c0.098,0.179,0.145,0.393,0.178,0.595c0.014,0.086-0.062,0.187-0.113,0.32c-0.34-0.331-0.531-0.664-0.609-1.07
	c-0.028-0.151-0.104-0.298-0.184-0.432c-0.159-0.269-0.294-0.539-0.229-0.862c0.066-0.331-0.051-0.606-0.267-0.843
	c-0.416-0.459-0.627-0.987-0.646-1.609c-0.006-0.2-0.081-0.417-0.188-0.587c-0.257-0.409-0.352-0.872-0.492-1.32
	c-0.109-0.348-0.19-0.707-0.335-1.036c-0.09-0.209-0.291-0.364-0.41-0.562c-0.455-0.754-0.749-1.556-0.718-2.455
	c0.007-0.205-0.043-0.413-0.085-0.616c-0.05-0.242-0.199-0.39-0.446-0.456c-0.425-0.113-0.812-0.312-1.093-0.659
	c-0.147-0.181-0.282-0.388-0.365-0.606c-0.247-0.641-0.187-1.301-0.085-1.966c0.048-0.313,0.01-0.64,0.01-0.963
	c-0.478-0.515-0.616-1.114-0.487-1.789c0.078-0.402,0.129-0.811,0.229-1.206c0.057-0.208,0.197-0.393,0.29-0.57
	c0.804-0.004,0.804-0.004,1.025,0.332c-0.242,0.506-0.438,1.036-0.475,1.628c-0.028,0.453,0.062,0.791,0.505,0.984
	c0.16,0.07,0.312,0.166,0.463,0.261c0.576,0.363,0.811,1.032,0.659,1.7c-0.102,0.446-0.118,0.911-0.192,1.363
	c-0.032,0.197,0.057,0.304,0.189,0.405c0.202,0.158,0.406,0.312,0.611,0.466c0.273,0.209,0.447,0.479,0.6,0.792
	c0.328,0.69,0.522,1.4,0.579,2.166c0.026,0.378,0.192,0.744,0.293,1.116c0.089,0.325,0.236,0.646,0.251,0.976
	c0.025,0.55,0.229,1.025,0.449,1.51c0.098,0.214,0.117,0.459,0.177,0.689c0.166,0.631,0.059,1.32,0.406,1.914
	c0.044,0.078,0.063,0.185,0.062,0.277C64.985,69.709,65.139,70.125,65.391,70.561z"/>
<path fill-rule="evenodd" clip-rule="evenodd" fill="#00B2BF" d="M90.401,110.755c-0.294,0.068-0.563,0.129-0.917,0.21
	c-0.43-0.182-0.942-0.12-1.453,0.083c-0.367,0.146-0.739,0.174-1.121,0.022c-0.13-0.052-0.29-0.076-0.426-0.054
	c-0.769,0.124-1.536-0.129-2.305,0.009c-0.029,0.006-0.064,0.001-0.096-0.006c-0.545-0.138-1.105-0.146-1.663-0.168
	c-0.366-0.016-0.728-0.067-1.09-0.104c-0.034-0.002-0.069,0.005-0.097-0.008c-0.48-0.212-0.995-0.207-1.505-0.24
	c-0.301-0.019-0.604-0.083-0.906-0.076c-0.48,0.01-0.965,0.043-1.442,0.104c-0.266,0.033-0.518,0.186-0.782,0.216
	c-0.684,0.074-1.368,0.12-2.056,0.156c-0.934,0.044-1.867,0.063-2.801,0.104c-0.295,0.011-0.564-0.034-0.844-0.151
	c-0.529-0.226-1.081-0.399-1.623-0.596c-0.148,0.025-0.304,0.074-0.459,0.074c-0.471,0-0.931,0.02-1.377,0.192
	c-0.245,0.095-0.478,0.038-0.613-0.244c0.784-0.203,1.57-0.294,2.363-0.343c0.447-0.028,0.889-0.12,1.333-0.18
	c0.612-0.079,1.238-0.106,1.835-0.247c0.84-0.198,1.689-0.145,2.531-0.206c1.011-0.072,2.025-0.03,3.04-0.053
	c0.938-0.019,1.864,0.056,2.767,0.346c0.147,0.049,0.316,0.045,0.477,0.047c1.5,0.016,2.996,0.025,4.496,0.036
	c0.081,0,0.164-0.007,0.242,0.006c0.857,0.131,1.728,0.221,2.571,0.419c0.602,0.14,1.243,0.203,1.787,0.549
	C90.317,110.683,90.361,110.722,90.401,110.755z"/>
<path fill-rule="evenodd" clip-rule="evenodd" fill="#00B2BF" d="M35.471,32.979c0.463,0.19,0.7,0.483,0.822,0.954
	c0.099,0.387,0.296,0.789,0.564,1.079c0.33,0.355,0.535,0.776,0.79,1.171c0.122,0.193,0.144,0.449,0.217,0.7
	c0.089,0.052,0.264,0.097,0.336,0.208c0.246,0.382,0.551,0.726,0.687,1.18c0.099,0.323,0.257,0.632,0.422,0.933
	c0.261,0.48,0.424,0.993,0.541,1.526c0.047,0.218,0.123,0.434,0.213,0.64c0.164,0.38,0.165,0.774,0.154,1.179
	c-0.009,0.348,0.039,0.697,0.069,1.045c0.023,0.285,0.13,0.586,0.072,0.854c-0.149,0.688,0.089,1.45-0.402,2.078
	c-0.089,0.112-0.08,0.304-0.101,0.462c-0.023,0.156-0.029,0.315-0.041,0.479c-0.788,0.475-0.838,1.374-1.235,2.073
	c-0.18,0.061-0.258-0.086-0.268-0.195c-0.021-0.231-0.048-0.491,0.03-0.703c0.257-0.716,0.436-1.454,0.503-2.202
	c0.113-1.259,0.123-2.517-0.261-3.758c-0.348-1.124-0.778-2.212-1.258-3.286c-0.23-0.514-0.479-1.022-0.656-1.557
	c-0.401-1.195-0.807-2.394-0.956-3.658C35.666,33.787,35.558,33.4,35.471,32.979z"/>
<path fill-rule="evenodd" clip-rule="evenodd" fill="#00B2BF" d="M27.215,102.431c-0.183,0.026-0.365,0.054-0.547,0.078
	c-0.004,0.017-0.007,0.035-0.009,0.051c0.096,0.027,0.188,0.055,0.284,0.082c0,0.022,0.002,0.044,0.004,0.067
	c-0.716,0.062-1.435,0.119-2.15,0.189c-0.143,0.014-0.29,0.048-0.415,0.111c-0.469,0.24-0.969,0.322-1.487,0.373
	c-0.767,0.073-1.537,0.139-2.276,0.407c-0.31,0.114-0.663,0.102-0.989,0.181c-0.54,0.131-1.12,0.086-1.621,0.388
	c-0.075,0.047-0.185,0.047-0.28,0.052c-0.127,0.008-0.259-0.001-0.389,0c-0.73,0.011-1.501-0.131-2.009,0.557
	c-0.306-0.128-0.43-0.289-0.43-0.602c0.488-0.279,0.91-0.706,1.509-0.845c0.97-0.225,1.933-0.474,2.903-0.685
	c0.311-0.068,0.646-0.022,0.957-0.087c1.333-0.278,2.686-0.321,4.037-0.364c0.969-0.03,1.941-0.006,2.911-0.006
	C27.218,102.396,27.216,102.414,27.215,102.431z"/>
<path fill-rule="evenodd" clip-rule="evenodd" fill="#00B2BF" d="M59.997,40.559c0.249,0.62,0.494,1.241,0.743,1.857
	c0.026,0.06,0.059,0.115,0.097,0.166c0.216,0.295,0.327,0.622,0.334,0.988c0.003,0.145,0.007,0.297,0.053,0.43
	c0.233,0.68,0.479,1.354,0.72,2.03c0.048,0.135,0.087,0.274,0.127,0.404c-0.07,0.159-0.135,0.306-0.227,0.517
	c-1.383-1.936-1.981-4.052-1.953-6.359C59.926,40.581,59.961,40.57,59.997,40.559z"/>
<path fill-rule="evenodd" clip-rule="evenodd" fill="#00B2BF" d="M28.876,60.291c-0.296,1.084-0.816,2.037-1.609,2.831
	c0.053-0.586,0.528-0.944,0.776-1.427C28.293,61.213,28.598,60.759,28.876,60.291z"/>
<path fill-rule="evenodd" clip-rule="evenodd" fill="#00B2BF" d="M84.631,115.45c-0.18,0.033-0.362,0.065-0.543,0.098
	c-0.005-0.038-0.013-0.08-0.017-0.117c0.183,0,0.368,0,0.552,0C84.626,115.437,84.629,115.443,84.631,115.45z"/>
<path fill-rule="evenodd" clip-rule="evenodd" fill="#00B2BF" d="M65.907,74.207c-0.024-0.127-0.049-0.252-0.071-0.381
	c0.021-0.006,0.045-0.013,0.068-0.02c0.043,0.12,0.082,0.24,0.125,0.358C65.988,74.181,65.948,74.193,65.907,74.207z"/>
</svg>
