<?xml version="1.0" encoding="utf-8"?>
<!-- Generator: Adobe Illustrator 16.2.1, SVG Export Plug-In . SVG Version: 6.00 Build 0)  -->
<!DOCTYPE svg PUBLIC "-//W3C//DTD SVG 1.1//EN" "http://www.w3.org/Graphics/SVG/1.1/DTD/svg11.dtd">
<svg version="1.1" xmlns="http://www.w3.org/2000/svg" xmlns:xlink="http://www.w3.org/1999/xlink" x="0px" y="0px" width="2040px"
	 height="18.998px" viewBox="0 0 2040 18.998" enable-background="new 0 0 2040 18.998" xml:space="preserve">
<g id="Layer_1" display="none">
	<path display="inline" fill-rule="evenodd" clip-rule="evenodd" fill="#3E1211" d="M1785.002,1.466h-15.938l-15.938-0.613
		l-15.937,0.613l-15.938,1.02l-15.938-1.02l-15.938,0.204l-15.938-0.204l-15.937-1.02h-15.937h-15.937l-15.938,1.02h-15.938
		l-15.938-1.02h-15.938l-15.938,1.02h-15.938l-15.937,1.02l-15.938-1.02l-15.938-1.122l-15.938,1.122h-15.937l-15.938-1.02
		l-15.938,1.02h-15.937l-20.827-0.829l-20.826,0.191L1340.025,0l-20.826,1.211l-20.827,1.211l-20.826-0.829l-20.825,0.191
		l-20.828-0.829l-11.05,0.829l-11.049,0.829l-11.049-0.191l-11.048-0.191l-11.049-1.211l-11.05,0.829l-11.05-0.191L1147.5,1.466
		l-12.072,0.223l-12.073-0.797l-12.072,0.223l-12.073,0.223l-12.074,1.243l-12.072,0.223l-12.073-0.593l-12.072,1.039l-19.5-0.153
		l-19.501-0.153l-19.5-1.171l-19.5,0.865l-19.5-0.153l-19.5,0.969L914.414,2.18l-19.5-0.764L878.298,2.18l-16.615,0.153
		l-16.616,0.152l-16.616-0.561l-16.616,0.867l-16.616,0.153l-16.616,0.153l-16.616-0.562l-15.562,0.492l-15.561-0.223l-15.561-0.223
		l-15.562-0.938l-15.561,0.492l-15.561-0.224l-15.562-0.223l-15.561,1.512l-16.351-1.385l-16.351,0.351l-16.351,0.35l-16.351,0.351
		l-16.351,0.351L539.393,3.57l-16.351-1.689l-16.351,0.351l-15.524-0.351l-15.524,1.281L460.12,2.199l-15.524,0.669l-15.524-0.351
		l-15.523-0.35l-15.524-0.351L382.5,1.466L366.562,2.18h-15.938l-15.938-0.713H318.75l-15.937,0.816l-15.938-0.816L270.938,0.65
		l-15.938-0.204l-15.938,1.02l-16.04,0.816h-15.938l-15.835-0.816h-15.937L159.377,0.65l-15.938-0.204l-15.938,1.02l-15.938,1.02
		H95.626H79.688l-15.938-1.02H47.813l-15.938,1.02l-15.938-1.02H0C0,7.31,0,13.154,0,18.998h255h255h255h255h255h255h255h255
		c0-5.844,0-11.688,0-17.532h-15.938h-15.938h-15.938l-15.938-1.02l-15.938,1.02h-15.938l-15.938-0.612l-15.937-0.204l-15.937,0.816
		l-15.938,1.02l-15.938-0.713l-15.937-0.306l-15.938-0.51l-15.938,0.51l-15.938,0.306L1785.002,1.466z"/>
</g>
<g id="Layer_1_copy">
	
		<linearGradient id="SVGID_1_" gradientUnits="userSpaceOnUse" x1="1020" y1="18.998" x2="1020" y2="0" gradientTransform="matrix(1 0 0 -1 0 18.998)">
		<stop  offset="0.3075" style="stop-color:#EDA349;stop-opacity:0"/>
		<stop  offset="0.4827" style="stop-color:#EDA349;stop-opacity:0.3"/>
		<stop  offset="0.5872" style="stop-color:#EDA349;stop-opacity:0.7"/>
		<stop  offset="0.721" style="stop-color:#EDA349"/>
		<stop  offset="0.8782" style="stop-color:#B27A35"/>
		<stop  offset="0.9906" style="stop-color:#B27A35"/>
	</linearGradient>
	<path fill-rule="evenodd" clip-rule="evenodd" fill="url(#SVGID_1_)" d="M1785.002,17.532h-15.938l-15.938,0.613l-15.937-0.613
		l-15.938-1.02l-15.938,1.02l-15.938-0.204l-15.938,0.204l-15.937,1.02h-15.937h-15.937l-15.938-1.02h-15.938l-15.938,1.02h-15.938
		l-15.938-1.02h-15.938l-15.937-1.02l-15.938,1.02l-15.938,1.122l-15.938-1.122h-15.937l-15.938,1.02l-15.938-1.02h-15.937
		l-20.827,0.829l-20.826-0.191l-20.826,0.829l-20.826-1.211l-20.827-1.211l-20.826,0.829l-20.825-0.191l-20.828,0.829l-11.05-0.829
		l-11.049-0.829l-11.049,0.191l-11.048,0.191l-11.049,1.211l-11.05-0.829l-11.05,0.191l-11.049,0.191l-12.072-0.223l-12.073,0.797
		l-12.072-0.223l-12.073-0.223l-12.074-1.243l-12.072-0.223l-12.073,0.593l-12.072-1.039l-19.5,0.153l-19.501,0.153l-19.5,1.171
		l-19.5-0.865l-19.5,0.153l-19.5-0.969l-19.501,1.275l-19.5,0.764l-16.616-0.764l-16.615-0.153l-16.616-0.152l-16.616,0.561
		l-16.616-0.867l-16.616-0.153L778.603,15.9l-16.616,0.562l-15.562-0.492l-15.561,0.223l-15.561,0.223l-15.562,0.938l-15.561-0.492
		l-15.561,0.224l-15.562,0.223l-15.561-1.512l-16.351,1.385l-16.351-0.351l-16.351-0.35l-16.351-0.351l-16.351-0.351l-16.351-0.351
		l-16.351,1.689l-16.351-0.351l-15.524,0.351l-15.524-1.281l-15.523,0.962l-15.524-0.669l-15.524,0.351l-15.523,0.35l-15.524,0.351
		L382.5,17.532l-15.938-0.713h-15.938l-15.938,0.713H318.75l-15.937-0.816l-15.938,0.816l-15.938,0.816l-15.938,0.204l-15.938-1.02
		l-16.04-0.816h-15.938l-15.835,0.816h-15.937l-15.938,0.816l-15.938,0.204l-15.938-1.02l-15.938-1.02H95.626H79.688l-15.938,1.02
		H47.813l-15.938-1.02l-15.938,1.02H0C0,11.688,0,5.844,0,0h255h255h255h255h255h255h255h255c0,5.844,0,11.688,0,17.532h-15.938
		h-15.938h-15.938l-15.938,1.02l-15.938-1.02h-15.938l-15.938,0.612l-15.937,0.204l-15.937-0.816l-15.938-1.02l-15.938,0.713
		l-15.937,0.306l-15.938,0.51l-15.938-0.51l-15.938-0.306L1785.002,17.532z"/>
</g>
</svg>
