<?xml version="1.0" encoding="utf-8"?>
<!-- Generator: Adobe Illustrator 16.1.0, SVG Export Plug-In . SVG Version: 6.00 Build 0)  -->
<!DOCTYPE svg PUBLIC "-//W3C//DTD SVG 1.1//EN" "http://www.w3.org/Graphics/SVG/1.1/DTD/svg11.dtd">
<svg version="1.1" id="Layer_1" xmlns="http://www.w3.org/2000/svg" xmlns:xlink="http://www.w3.org/1999/xlink" x="0px" y="0px"
	 width="18px" height="6.425px" viewBox="0 0 18 6.425" enable-background="new 0 0 18 6.425" xml:space="preserve">
<path fill-rule="evenodd" clip-rule="evenodd" fill="#B7B7A5" d="M17.982,3.985c-0.185-0.07-0.375-0.127-0.549-0.216
	c-0.379-0.192-0.771-0.236-1.193-0.208c-0.461,0.031-0.855,0.169-1.194,0.477c-0.219,0.199-0.438,0.396-0.664,0.586
	c-1.187,0.993-2.525,1.632-4.085,1.767C8.932,6.508,7.616,6.33,6.357,5.776C5.458,5.378,4.644,4.86,4.004,4.09
	c-0.005-0.009-0.02-0.01-0.024-0.012c-0.306,0.061-0.596,0.13-0.896,0.181C2.589,4.342,2.09,4.37,1.594,4.278
	C1.183,4.203,0.812,4.06,0.536,3.732C0.29,3.444,0.123,3.115,0.051,2.745C-0.09,2.057,0.068,1.418,0.455,0.846
	C0.861,0.25,1.448-0.041,2.162,0.004c0.812,0.048,1.396,0.533,1.571,1.28c0.086,0.343,0.051,0.68-0.062,1.012
	c-0.013,0.041-0.035,0.08-0.055,0.12c0.02-0.154,0.065-0.3,0.079-0.447C3.76,1.323,3.591,0.757,3.02,0.396
	C2.083-0.195,1.128,0.208,0.668,0.79c-0.428,0.541-0.6,1.164-0.494,1.852c0.11,0.698,0.62,1.245,1.292,1.383
	c0.156,0.033,0.312,0.051,0.468,0.056c0.627,0.028,1.227-0.11,1.826-0.27c0.042-0.01,0.075-0.046,0.114-0.071
	C3.89,3.727,3.916,3.698,3.925,3.701C4.048,3.773,4.153,3.69,4.259,3.656c0.558-0.181,1.114-0.374,1.677-0.555
	c0.955-0.306,1.9-0.632,2.873-0.858c1.279-0.299,2.568-0.432,3.88-0.275c1.649,0.198,3.187,0.732,4.63,1.548
	c0.233,0.132,0.454,0.29,0.682,0.435C17.994,3.963,17.986,3.974,17.982,3.985z M4.41,4.151c0.773,0.788,1.703,1.327,2.747,1.647
	c2.609,0.795,4.997,0.378,7.113-1.396c0.198-0.168,0.396-0.338,0.589-0.514c0.42-0.383,0.912-0.542,1.477-0.493
	c0.033,0.002,0.068,0.002,0.102,0.002c0.004,0,0.007-0.007,0.02-0.024c-0.056-0.027-0.108-0.057-0.163-0.08
	c-1.122-0.477-2.279-0.831-3.493-0.976c-1.03-0.123-2.054-0.091-3.075,0.086C8.94,2.542,8.17,2.742,7.414,2.98
	C6.43,3.287,5.449,3.599,4.47,3.91C4.406,3.93,4.347,3.956,4.263,3.988C4.322,4.053,4.364,4.104,4.41,4.151z"/>
<path fill-rule="evenodd" clip-rule="evenodd" fill="#B7B7A5" d="M7.236,4.11c1.939-0.069,3.869-0.179,5.831-0.078
	c-0.064-0.104-0.146-0.105-0.212-0.113c-0.382-0.045-0.763-0.11-1.145-0.119c-0.863-0.02-1.729-0.012-2.592-0.016
	c-0.075,0-0.152,0-0.235-0.022c0.042-0.016,0.083-0.036,0.13-0.049c0.468-0.154,0.94-0.295,1.403-0.463
	c0.416-0.152,0.841-0.27,1.273-0.351c-0.407,0.008-0.803,0.087-1.189,0.214c-0.734,0.244-1.47,0.481-2.23,0.644
	C8.093,3.796,7.908,3.821,7.722,3.826c-0.853,0.021-1.71,0.033-2.573,0.079c0.086,0.018,0.169,0.041,0.255,0.053
	c0.271,0.037,0.541,0.091,0.815,0.097c0.35,0.011,0.679,0.087,1,0.204C7.62,4.401,8.014,4.56,8.416,4.705
	C8.627,4.782,8.842,4.85,9.062,4.911c0.084,0.025,0.178,0.021,0.272,0.02C8.604,4.729,7.945,4.357,7.236,4.11z"/>
</svg>
