<?xml version="1.0" encoding="utf-8"?>
<!-- Generator: Adobe Illustrator 16.1.0, SVG Export Plug-In . SVG Version: 6.00 Build 0)  -->
<!DOCTYPE svg PUBLIC "-//W3C//DTD SVG 1.1//EN" "http://www.w3.org/Graphics/SVG/1.1/DTD/svg11.dtd">
<svg version="1.1" id="Layer_1" xmlns="http://www.w3.org/2000/svg" xmlns:xlink="http://www.w3.org/1999/xlink" x="0px" y="0px"
	 width="18px" height="6.425px" viewBox="0 0 18 6.425" enable-background="new 0 0 18 6.425" xml:space="preserve">
<path fill-rule="evenodd" clip-rule="evenodd" fill="#B7B7A5" d="M0,3.952c0.228-0.145,0.448-0.303,0.682-0.435
	c1.442-0.816,2.98-1.35,4.629-1.548c1.312-0.157,2.601-0.024,3.88,0.275c0.973,0.226,1.918,0.552,2.873,0.858
	c0.562,0.181,1.119,0.374,1.677,0.555c0.105,0.034,0.211,0.117,0.334,0.045c0.009-0.003,0.035,0.025,0.051,0.039
	c0.039,0.025,0.072,0.062,0.114,0.071c0.6,0.16,1.199,0.298,1.826,0.27c0.155-0.005,0.312-0.022,0.468-0.056
	c0.672-0.138,1.182-0.686,1.292-1.383c0.105-0.688-0.066-1.312-0.494-1.852c-0.46-0.583-1.415-0.985-2.352-0.394
	c-0.571,0.36-0.74,0.926-0.677,1.572c0.014,0.147,0.06,0.293,0.079,0.447c-0.02-0.04-0.042-0.079-0.055-0.12
	c-0.112-0.332-0.147-0.669-0.062-1.012c0.176-0.747,0.76-1.231,1.571-1.28c0.714-0.045,1.301,0.245,1.707,0.842
	c0.387,0.572,0.545,1.21,0.404,1.898c-0.072,0.37-0.239,0.7-0.485,0.987c-0.275,0.328-0.646,0.471-1.058,0.546
	c-0.496,0.092-0.995,0.063-1.489-0.02c-0.301-0.051-0.591-0.12-0.896-0.181c-0.005,0.002-0.02,0.003-0.024,0.012
	c-0.64,0.771-1.454,1.288-2.354,1.687C10.384,6.33,9.068,6.508,7.703,6.39c-1.56-0.135-2.898-0.773-4.085-1.767
	c-0.226-0.19-0.445-0.387-0.664-0.586C2.615,3.73,2.22,3.591,1.76,3.561C1.337,3.532,0.946,3.576,0.567,3.769
	C0.393,3.857,0.202,3.915,0.018,3.985C0.013,3.974,0.006,3.963,0,3.952z M13.737,3.988C13.653,3.956,13.594,3.93,13.53,3.91
	c-0.979-0.311-1.96-0.623-2.944-0.93C9.83,2.742,9.06,2.542,8.274,2.405C7.253,2.227,6.229,2.195,5.199,2.318
	C3.985,2.463,2.828,2.817,1.706,3.294c-0.055,0.023-0.107,0.053-0.164,0.08c0.013,0.017,0.017,0.024,0.02,0.024
	c0.034,0,0.068,0,0.103-0.002c0.563-0.049,1.056,0.11,1.476,0.493c0.192,0.176,0.391,0.346,0.589,0.514
	c2.116,1.773,4.504,2.19,7.113,1.396c1.044-0.32,1.974-0.859,2.747-1.647C13.636,4.104,13.678,4.053,13.737,3.988z"/>
<path fill-rule="evenodd" clip-rule="evenodd" fill="#B7B7A5" d="M10.764,4.11C8.824,4.041,6.895,3.931,4.933,4.032
	c0.064-0.104,0.146-0.105,0.212-0.113C5.526,3.874,5.907,3.809,6.289,3.8c0.863-0.02,1.729-0.012,2.592-0.016
	c0.075,0,0.152,0,0.235-0.022c-0.042-0.016-0.083-0.036-0.13-0.049C8.519,3.56,8.046,3.418,7.583,3.25
	C7.167,3.098,6.742,2.98,6.31,2.899c0.407,0.008,0.803,0.087,1.189,0.214c0.734,0.244,1.47,0.481,2.23,0.644
	c0.178,0.039,0.362,0.064,0.549,0.068c0.853,0.021,1.71,0.033,2.573,0.079c-0.086,0.018-0.169,0.041-0.255,0.053
	c-0.271,0.037-0.541,0.091-0.815,0.097c-0.35,0.011-0.679,0.087-1,0.204C10.38,4.401,9.986,4.56,9.584,4.705
	C9.373,4.782,9.158,4.85,8.938,4.911c-0.084,0.025-0.178,0.021-0.272,0.02C9.396,4.729,10.055,4.357,10.764,4.11z"/>
</svg>
