<?xml version="1.0" encoding="utf-8"?>
<!-- Generator: Adobe Illustrator 16.1.0, SVG Export Plug-In . SVG Version: 6.00 Build 0)  -->
<!DOCTYPE svg PUBLIC "-//W3C//DTD SVG 1.1//EN" "http://www.w3.org/Graphics/SVG/1.1/DTD/svg11.dtd">
<svg version="1.1" id="Layer_1" xmlns="http://www.w3.org/2000/svg" xmlns:xlink="http://www.w3.org/1999/xlink" x="0px" y="0px"
	 width="287.303px" height="287.302px" viewBox="0 0 287.303 287.302" enable-background="new 0 0 287.303 287.302"
	 xml:space="preserve">
<g>
	<polygon fill="#EBECD3" points="164.678,156.966 164.678,140.966 184.482,140.966 165.678,108.396 144.498,145.077 123.32,181.761 
		165.678,181.761 208.035,181.761 193.721,156.966 	"/>
	<path fill="#EBECD3" d="M143.651,0C64.315,0,0,64.314,0,143.651c0,79.336,64.315,143.65,143.651,143.65
		s143.651-64.314,143.651-143.65C287.303,64.314,222.987,0,143.651,0z M39.98,197.761L110.009,76.47h18.475L58.456,197.761H39.98z
		 M74.006,186.46l69.852-120.985h18.475L92.481,186.46H74.006z M235.748,197.761h-70.07h-70.07l35.034-60.681l35.036-60.683
		l35.035,60.683l2.245,3.886h44.035l9.237,16h-44.035L235.748,197.761z"/>
</g>
</svg>
