<?xml version="1.0" encoding="utf-8"?>
<!-- Generator: Adobe Illustrator 16.2.1, SVG Export Plug-In . SVG Version: 6.00 Build 0)  -->
<!DOCTYPE svg PUBLIC "-//W3C//DTD SVG 1.1//EN" "http://www.w3.org/Graphics/SVG/1.1/DTD/svg11.dtd">
<svg version="1.1" id="Layer_1" xmlns="http://www.w3.org/2000/svg" xmlns:xlink="http://www.w3.org/1999/xlink" x="0px" y="0px"
	 width="870.764px" height="448.944px" viewBox="0 0 870.764 448.944" enable-background="new 0 0 870.764 448.944"
	 xml:space="preserve">
<g>
	<g>
		<g>
			<path fill-rule="evenodd" clip-rule="evenodd" fill="#DDC89D" d="M870.745,275.238c-0.182,0.582-0.479,1.136-0.55,1.711
				c-0.464,4.635-1.619,9.082-4.479,12.839c-3.105,4.079-6.547,7.92-10.96,10.663c-1.259,0.787-2.873,1.059-4.357,1.368
				c-2.511,0.522-4.905,1.265-7.022,2.749c-0.369,0.253-0.781,0.498-1.208,0.582c-4.467,0.865-8.92,1.368-13.277-0.51
				c-3.169-1.35-6.332-2.699-8.461-5.615c-4.061-5.571-6.978-11.471-6.403-18.7c0.373-4.673-0.286-9.333-2.247-13.64
				c-2.24-4.898-5.455-9.203-8.682-13.478c-0.496-0.638-0.968-1.329-1.337-2.045c-1.574-3.061-3.91-5.364-6.841-7.152
				c-3.551-2.144-7.095-4.331-10.554-6.629c-1.691-1.123-3.183-2.53-4.764-3.821c-2.724-2.227-5.436-4.493-8.204-6.674
				c-2.027-1.582-3.292-3.75-4.569-5.881c-2.065-3.388-4.165-6.764-5.92-10.314c-1.342-2.737-2.259-5.68-3.247-8.572
				c-1.446-4.266-3.517-8.229-5.726-12.135c-0.588-1.013-1.013-2.104-1.594-3.124c-0.768-1.388-1.451-2.879-2.459-4.08
				c-1.742-2.078-3.531-4.131-5.597-5.854c-1.769-1.49-3.859-2.717-5.97-3.679c-5.777-2.646-11.29-5.719-16.576-9.256
				c-1.859-1.259-3.738-2.504-5.571-3.814c-2.904-2.059-5.06-4.848-7.222-7.604c-0.175-0.213-0.324-0.472-0.55-0.614
				c-2.542-1.646-3.473-4.305-4.351-6.964c-1.38-4.17-2.743-8.365-3.956-12.6c-0.665-2.324-1.195-4.712-1.414-7.12
				c-0.4-4.428-2.344-8.294-4.034-12.263c-0.317-0.717-0.646-1.44-0.865-2.201c-0.787-2.718-2.613-4.777-4.543-6.636
				c-4.926-4.732-10.528-5.306-16.79-2.615c-3.712,1.601-6.712,4.067-9.76,6.545c-0.961,0.781-1.614,1.93-2.459,2.859
				c-2.892,3.183-6.647,5.164-10.249,7.352c-2.97,1.794-6.191,2.944-9.509,3.938c-2.582,0.768-5.002,2.014-7.525,3.008
				c-0.981,0.4-2.034,0.684-3.048,1.026c-2.736-2.143-5.285-4.085-6.939-7.21c-1-1.897-2.679-3.518-3.483-5.615
				c-0.355-0.923-0.763-1.853-0.931-2.808c-0.174-1.007-0.51-1.808-1.575-1.898c-1.143-0.11-1.555,0.794-1.775,1.691
				c-0.296,1.136-0.658,2.272-0.716,3.421c-0.277,5.609,0.496,10.993,2.712,16.299c1.465,3.53,2.136,7.462,2.748,11.283
				c0.42,2.692,0.33,5.512,0.136,8.262c-0.361,5.396-3.188,8.146-8.688,8.805c-0.182,0.032-0.343,0.128-0.626,0.226
				c-1.64,2.737-1.763,5.932-1.188,8.901c1.104,5.628,2.71,11.103,5.958,16.041c2.755,4.202,4.872,8.83,7.513,13.103
				c2.524,4.053,3.848,8.54,5.429,12.942c0.387,1.091,0.522,2.285,0.704,3.446c0.581,3.925,1.2,7.85,1.703,11.787
				c0.349,2.775,0.523,5.57,0.742,8.372c0.142,1.762-0.496,3.33-1.395,4.854c-0.432,0.735-0.613,1.646-0.807,2.491
				c-0.289,1.311-0.265,2.744-0.794,3.938c-2.169,4.905-1.555,10.063-1.955,15.176c-0.355,4.744,2.382,7.688,4.479,11.166
				c3.157,5.241,6.784,10.225,9.051,15.976c1.33,3.389,1.788,6.946,1.82,10.566c0.024,2.446,0.219,4.873,0.321,7.313
				c0.045,0.987,0.22,2.001,0.099,2.97c-0.633,4.918-1.279,9.817-2.034,14.71c-0.148,0.923-0.948,1.736-1.156,2.672
				c-1.335,5.635-2.187,11.328-0.528,17.009c1.349,4.628,3.575,8.888,6.408,12.793c5.178,7.12,9.509,14.588,11.49,23.335
				c1.401,6.073,2.557,12.135,2.743,18.377c0.078,2.426,0.852,4.569,2.305,6.479c3.615,4.842,6.261,10.024,6.5,16.247
				c0.058,1.478,1.026,2.962,0.109,3.95c-1.626,1.064-2.736,2.008-4.014,2.594c-2.202,1.008-4.436,2.021-6.946,1.963
				c-2.891-0.058-5.479,0.955-7.939,2.337c-2.091,1.155-4.259,1.949-6.667,2.008c-0.718,0.026-1.401,0.368-2.11,0.489
				c-2.046,0.349-4.112,0.608-6.14,1.021c-1.588,0.329-3.123,0.89-4.704,1.212c-2.821,0.568-5.654,1.073-8.496,1.498
				c-1.942,0.311-3.903,0.51-5.88,0.718c-1.517,0.154-3.059,0.174-4.576,0.405c-3.904,0.601-7.816,1.795-11.723,1.781
				c-4.479-0.007-8.688,1.82-13.057,1.408c-3.692-0.335-7.126,1.161-10.761,0.852c-1.059-0.084-2.156,0.187-3.214,0.07
				c-4.402-0.51-8.585,0.614-12.871,1.285c-5.151,0.807-10.282,1.916-15.583,1.84c-3.388-0.052-6.802,0.626-10.19,1.026
				c-3.944,0.477-7.875,1.091-11.825,1.472c-6.113,0.588-12.239,1.039-18.352,1.518c-1.174,0.103-2.363,0.069-3.537,0.062
				c-5.048-0.024-10.107,0-15.156-0.116c-2.962-0.058-5.925-0.496-8.888-0.489c-3.054,0-6.112,0.4-9.18,0.484
				c-3.602,0.104-7.215,0.045-10.816,0.063c-1.718,0-3.441-0.045-5.158,0.033c-7.101,0.284-14.085-0.613-21.081-1.711
				c-1.42-0.226-2.879-0.516-4.312-0.458c-4.711,0.206-9.366-0.226-14.007-0.91c-0.716-0.109-1.465-0.109-2.149-0.335
				c-4.306-1.498-8.811-1.937-13.303-1.905c-7.41,0.052-14.562-1.632-21.823-2.602c-5.274-0.689-10.611-1.085-15.93-1.523
				c-4.151-0.342-8.25-0.909-12.258-2.168c-5.351-1.69-10.754-3.356-16.375-3.77c-3.273-0.246-6.5-0.465-9.676-1.266
				c-2.453-0.613-4.886-1.272-7.358-1.865c-3.253-0.755-6.513-1.504-9.799-2.175c-4.582-0.948-9.198-1.775-13.8-2.743
				c-2.846-0.575-4.673-2.627-6.255-4.854c-2.149-3.007-2.504-6.441-2.285-10.019c0.13-2.258-0.154-4.601,0.369-6.763
				c0.594-2.569-0.136-5.366,1.601-7.754c0.684-0.961,0.825-2.258,0.658-3.613c-0.244-2.156,0.02-4.357-0.012-6.533
				c-0.04-2.963-0.588-3.498-3.492-3.557c-1.556-0.032-3.099,0.032-4.635-0.052c-0.968-0.051-1.918-0.283-3.009-0.444
				c-0.077-1.201-0.077-2.183-0.2-3.157c-0.219-1.678-1.129-2.582-2.756-2.911c-4.42-0.891-8.836-1.871-13.276-2.634
				c-4.1-0.716-8.218-1.316-12.355-1.717c-2.685-0.252-5.415-0.077-8.127-0.045c-3.253,0.032-6.242-0.742-9.003-2.518
				c-1.854-1.187-3.926-1.665-6.126-2.046c-2.917-0.516-5.739-1.549-8.599-2.35c-2.439-0.69-4.827-1.498-7.287-2.033
				c-4.777-1.033-9.522-2.22-13.891-4.409c-2.996-1.49-5.784-3.375-8.675-5.066c-3.17-1.847-6.365-3.659-9.889-4.809
				c-6.332-2.078-12.058-5.242-17.047-9.733c-3.099-2.795-6.506-5.242-9.701-7.901c-6.319-5.273-12.071-11.069-16.364-18.202
				c-2.361-3.931-5.125-7.63-7.383-11.619c-2.924-5.17-5.596-10.495-8.256-15.82c-1.568-3.144-3.111-6.326-4.312-9.618
				c-2.434-6.687-4.873-13.419-6.829-20.268c-1.897-6.642-3.188-13.451-4.751-20.196c-2.078-9.031-3.517-18.145-4.228-27.394
				c-0.219-2.943-1.258-5.822-1.729-8.76c-0.503-3.188-0.833-6.416-1.142-9.624c-0.407-4.214-0.768-8.43-1.052-12.638
				c-0.251-3.511-0.304-7.042-0.51-10.554c-0.297-5.228-0.839-10.45-0.923-15.666c-0.09-5.112-1.4-9.978-2.252-14.929
				c-0.258-1.529-0.394-3.066-0.736-4.551c-0.574-2.55-1.162-5.092-1.937-7.591c-1.355-4.376-2.736-8.765-4.363-13.039
				c-0.742-1.968-2.136-3.705-3.227-5.538c-4.867-8.152-10.547-15.64-18.415-21.101c-5.423-3.757-11.128-7.094-16.711-10.619
				c-1.369-0.877-2.776-1.697-4.132-2.607c-3.124-2.105-6.609-3.164-10.301-3.834c-3.273-0.607-6.487-1.465-9.508-3.034
				c-2.543-1.33-5.339-2.195-8.036-3.188c-5.745-2.098-7.159-6.9-3.55-11.864c1.904-2.633,4.46-4.111,7.506-4.925
				c3.854-1.013,7.694-2.039,11.536-3.06c4.801-1.271,9.604-2.498,14.368-3.847c1.4-0.407,2.33,0,3.046,1.065
				c0.6,0.891,1.026,1.897,1.666,3.118c3.001,1.078,6.17,2.395,9.456,3.369c3.582,1.084,6.855,2.53,9.908,4.789
				c3.828,2.853,8.004,5.274,12.077,7.797c7.437,4.622,13.678,10.619,19.643,16.951c5.183,5.531,8.965,11.993,12.922,18.396
				c2.814,4.544,5.281,9.256,7.217,14.22c1.355,3.415,2.478,6.919,3.034,10.593c0.329,2.174,0.865,4.343,1.575,6.428
				c1.124,3.299,1.214,6.675,1.419,10.089c0.239,3.764,0.981,7.494,1.531,11.231c0.045,0.349,0.284,0.677,0.322,1.033
				c0.704,5.273,1.549,10.547,2.007,15.84c0.465,5.371,0.438,10.767,0.794,16.149c0.174,2.769,0.722,5.506,1.078,8.269
				c0.329,2.575,0.485,5.17,0.981,7.707c0.322,1.652,1.174,3.183,1.652,4.809c0.542,1.892,0.941,3.828,1.42,5.738
				c0.355,1.394,0.704,2.801,1.117,4.183c1.206,4.033,2.453,8.074,3.685,12.115c0.736,2.396,1.621,4.751,2.213,7.171
				c1.156,4.603,2.066,9.275,3.267,13.858c0.517,1.981,1.523,3.827,2.26,5.751c2.026,5.287,4.633,10.282,7.177,15.344
				c0.232,0.458,0.342,1.014,0.445,1.542c0.516,2.795,2.079,5.01,3.667,7.294c1.511,2.201,2.524,4.731,3.995,6.984
				c2.001,3.066,4.525,5.849,6.314,9.049c1.594,2.848,4.027,4.816,6.073,7.172c0.878,1.026,2.085,1.742,2.996,2.73
				c4.092,4.382,8.914,7.895,13.542,11.65c1.865,1.518,3.575,3.241,5.415,4.783c1.169,0.987,2.493,1.795,3.711,2.724
				c2.853,2.183,5.629,4.454,8.534,6.565c1.601,1.154,3.37,2.064,5.105,3.007c4.61,2.479,9.283,4.803,14.389,6.055
				c2.71,0.665,5.44,1.207,8.139,1.866c2.951,0.71,5.869,1.633,8.838,2.214c6.202,1.213,12.444,2.337,18.79,2.511
				c4.331,0.116,8.655,0.175,12.986,0.206c0.607,0.02,1.207-0.187,1.949-0.322c0.091-0.768,0.181-1.426,0.252-2.033
				c0.232-0.161,0.387-0.355,0.537-0.355c1.872-0.019,3.64-0.626,5.538-0.678c1.625-0.039,3.227-1.361,4.756-2.271
				c3.099-0.64,5.771,0.471,8.359,2.175c1.174,0.788,2.162,2.396,4.292,1.537c1.769-2.982,3.691-6.139,5.551-9.335
				c1.058-1.812,1.717-3.64,1.311-5.905c-0.407-2.305-0.155-4.705-0.304-7.056c-0.291-4.369-0.555-8.746-1.006-13.103
				c-0.433-4.26,0.13-8.443,0.89-12.587c0.742-4.093,1.639-8.159,2.699-12.154c1.04-3.905,2.35-7.746,3.622-11.593
				c0.174-0.574,0.626-1.071,0.975-1.595c0.696-1.02,1.543-1.962,2.058-3.065c2.924-6.223,6.101-12.297,9.457-18.293
				c0.839-1.498,1.724-2.969,2.479-4.512c1.322-2.679,1.516-5.591,1.161-8.476c-0.291-2.407-1.103-4.744-1.516-7.145
				c-0.633-3.699-1.163-7.417-1.659-11.141c-0.304-2.214-0.458-4.441-0.69-6.843c0.413-1.265,0.988-2.782,1.375-4.344
				c0.213-0.833,0.097-1.743,0.11-2.621c0.007-1.084-0.322-2.311,0.071-3.221c0.812-1.917,0.671-3.899,0.986-5.855
				c0.168-1.052,0.666-2.04,0.905-3.085c1.116-4.828,3.543-9.043,6.176-13.161c0.975-1.523,1.717-3.195,2.763-4.654
				c3.421-4.763,6.933-9.475,10.405-14.201c0.923-1.252,1.717-2.504,1.317-4.208c-0.09-0.413,0.329-0.968,0.568-1.42
				c0.769-1.497,1.336-2.962,0.297-4.602c-0.284-0.452-0.078-1.188-0.168-1.775c-0.297-1.923-0.653-3.84-0.923-5.771
				c-0.136-1.039-0.239-2.117-0.181-3.176c0.058-1.064,0.626-2.188,0.445-3.188c-0.691-3.569,0.543-6.913,0.885-10.373
				c0.174-1.897,1.116-3.382,2.466-4.693c1.413-1.355,3.007-2.658,3.202-4.859c0.025-0.336,0.237-0.82,0.503-0.917
				c2.124-0.858,1.923-2.801,2.31-4.551c0.214-1,0.898-1.904,1.408-2.833c0.986-1.775,1.974-3.563,3-5.312
				c0.42-0.691,0.833-1.458,1.453-1.93c2.634-2.059,3.22-4.596,1.994-8.049c-1.743-0.704-3.718-1.543-5.706-2.336
				c-2.493-0.987-4.744-2.137-5.52-5.067c-0.49-1.807-1.303-3.537-1.968-5.286c1.226-9.798,7.655-14.395,16.769-16.583
				c1.421,1.42,3.195,1.026,5.236,0.562c6.144-1.394,12.308-2.756,18.622-3.318c4.228-0.374,8.378-1.304,12.581-1.846
				c2.136-0.277,4.349-0.491,6.493-0.323c4.66,0.349,9.171-0.722,13.774-0.98c3.15-0.174,6.3-0.452,9.455-0.613
				c2.809-0.149,5.609-0.174,8.411-0.316c0.879-0.045,1.75-0.31,3.345-0.607c-2.008-1.278-3.338-2.601-4.938-3.079
				c-3.254-0.994-5.642-3.176-8.224-5.131c-1.847-1.401-3.298-3.37-5.842-3.737c-0.483-0.071-0.941-0.781-1.297-1.285
				c-0.937-1.316-1.744-2.711-2.717-4.015c-1.046-1.387-1.659-2.917-2.112-4.577c-0.747-2.775-1.684-5.499-2.419-8.274
				c-0.852-3.111,0.058-6.087,0.883-9.049c0.163-0.607,0.414-1.182,0.633-1.789c-0.503-0.917-0.981-1.788-1.516-2.795
				c0.49-0.994,0.988-2.027,1.556-3.169c0.729,0,1.355,0.02,1.974,0c6.326-0.128,12.67-0.542,19.002-0.361
				c9.146,0.271,18.255-0.239,27.381-0.646c6.766-0.29,13.556-0.174,20.328-0.284c1.89-0.045,3.78-0.348,5.672-0.368
				c1.827-0.013,3.667,0.097,5.474,0.316c2.506,0.291,4.983,0.755,7.476,1.104c4.065,0.562,7.146,3.615,7.551,7.475
				c-2.374,0.716-2.897,2.504-2.703,4.835c0.083,1-0.407,2.045-0.666,3.079c-0.477,2.007-0.968,4.002-1.496,5.983
				c-0.362,1.375-0.563,2.854-1.24,4.067c-1.188,2.098-2.697,4.002-4.021,6.022c-0.742,1.117-1.484,2.247-1.994,3.473
				c-1.002,2.375-3.248,3.569-4.81,5.409c-1.091,1.272-2.253,2.492-3.461,3.809c0.848,1.272,1.97,1.594,3.126,1.685
				c6.144,0.433,12.295,0.794,18.44,1.22c3.789,0.258,7.57,0.575,11.36,0.853c3.267,0.238,6.532,0.342,9.759,0.717
				c3.964,0.432,7.921,0.974,11.839,1.665c5.441,0.949,11.024,0.968,16.305,2.834c1.955,0.703,4.009,1.117,5.964,1.82
				c0.794,0.278,1.511,0.878,2.157,1.465c0.735,0.678,1.226,1.601,2.001,2.201c4.194,3.351,4.937,8.43,6.506,13.039
				c1.006,2.962,0.832,6.055-1.415,8.656c-0.567,0.665-1.077,1.381-1.742,2.265c1.588,1.24,3.055,2.259,4.369,3.447
				c2.486,2.233,4.829,4.603,7.309,6.816c2.439,2.182,5.08,2.634,8.268,1.44c4.602-1.717,8.959-3.802,13.071-6.52
				c-0.168-1.504-0.071-3.066-0.568-4.428c-0.562-1.587-0.246-2.995,0.026-4.493c0.142-0.781,0.116-1.587,0.237-2.375
				c0.111-0.677,0.201-1.426,0.537-2.001c1.368-2.265,2.846-4.538,5.408-5.544c2.627-1.032,4.796-2.711,7.043-4.312
				c1.143-0.812,2.407-1.032,3.751-1.322c2.174-0.453,4.246-1.427,6.339-2.227c1.684-0.646,3.343-1.349,5.001-2.033
				c0.91-0.375,1.813-0.788,2.712-1.221c1.865-0.897,3.698-1.581,5.887-1.064c0.975,0.238,2.337,0.161,3.148-0.355
				c3.551-2.239,7.644-2.569,11.548-3.576c3.68-0.929,7.392-1.736,11.045-2.73c4.382-1.214,8.798-1.801,13.374-2.001
				c5.248-0.239,10.005,1.188,14.698,3.027c4.827,1.898,8.765,5.151,11.785,9.308c3.132,4.286,6.307,8.598,8.793,13.277
				c2.518,4.738,4.413,9.844,6.188,14.917c1.446,4.157,2.247,8.527,3.441,12.768c1.265,4.499,2.537,8.998,5.982,12.516
				c1.04,1.065,1.607,2.602,2.435,3.893c0.756,1.187,1.427,2.479,2.375,3.511c2.795,3.066,5.705,6.036,8.604,9.03
				c2.337,2.408,5.402,3.544,8.385,4.828c4.066,1.75,7.895,3.795,11.508,6.448c2.254,1.653,4.274,3.485,6.41,5.254
				c1.091,0.885,2.64,1.311,3.537,2.337c1.949,2.227,3.635,4.692,5.352,7.093c0.678,0.93,1.123,2.007,1.742,2.976
				c2.214,3.492,3.673,7.346,5.441,11.045c1.453,3.085,2.299,6.455,3.646,9.584c1.389,3.221,3.055,6.3,4.597,9.444
				c0.161,0.322,0.354,0.639,0.465,0.98c2.46,7.443,8.21,12.271,13.684,17.332c0.304,0.29,0.763,0.432,1.136,0.645
				c2.757,1.601,4.881,3.899,7.133,6.08c2.04,1.975,4.396,3.673,6.7,5.351c2.568,1.859,5.287,3.473,7.836,5.357
				c2.299,1.705,4.544,3.524,6.668,5.461c2.834,2.568,5.493,5.345,8.27,7.979c2.091,1.956,4.298,3.802,6.396,5.757
				c2.607,2.408,4.472,5.402,6.318,8.392c1.517,2.453,2.781,5.041,4.228,7.526c1.512,2.607,1.865,5.435,1.917,8.359
				c0.026,0.858,0.297,1.703,0.453,2.556C870.757,273.438,870.757,274.342,870.745,275.238z M91.234,156.148
				c-1.885,0.601-2.007,2.04-1.866,3.679c0.33,3.667,0.659,7.346,0.872,11.025c0.142,2.408,0,4.84,0.122,7.255
				c0.11,2.401,0.414,4.777,0.568,7.165c0.2,3.299,0.264,6.604,0.529,9.889c0.213,2.575,0.245,5.254,1.045,7.655
				c1.84,5.435,2.64,10.915,2.11,16.615c-0.038,0.432,0.097,0.884,0.188,1.316c0.258,1.13,0.736,2.247,0.787,3.39
				c0.162,5.164,1.705,10.082,2.88,15.026c1.387,5.81,3.356,11.483,5.189,17.177c0.865,2.736,2.195,5.338,2.969,8.088
				c2.008,7.171,5.396,13.735,8.747,20.307c1.652,3.201,3.557,6.267,5.395,9.365c2.157,3.621,4.281,7.281,6.604,10.806
				c1.414,2.162,3.28,4.021,4.758,6.145c2.98,4.247,6.52,7.952,10.45,11.309c2.678,2.285,5.331,4.622,7.888,7.042
				c3.626,3.428,7.487,6.48,12.011,8.662c4.686,2.292,9.36,4.654,13.982,7.081c1.666,0.852,3.052,2.221,4.744,2.976
				c4.125,1.859,7.906,4.357,12.244,5.804c1.607,0.542,3.306,0.677,4.855,1.4c1.78,0.819,3.711,1.316,5.601,1.976
				c0.252,0.483,0.537,1.013,0.801,1.503c0.516,0.052,0.898,0.188,1.22,0.098c2.144-0.556,4.074-0.014,6.048,0.845
				c2.22,0.962,4.539,1.718,7.114,2.673c0.071,0.147,0.322,0.613,0.606,1.155c0.671,0.058,1.382,0.123,2.097,0.174
				c0.756,0.769,2.227,1.711,2.459,1.459c1.098-1.136,1.943-0.323,2.886-0.019c0.677,0.232,1.368,0.574,2.079,0.626
				c2.962,0.226,5.943,0.374,8.907,0.535c2.078,0.109,4.182,0.025,6.241,0.342c6.861,1.065,13.723,2.312,20.584,3.37
				c1.297,0.206,2.654-0.104,4.087-0.182c0.49-1.484,0.883-2.717,1.386-4.305c-1.219-0.252-2.31-0.801-3.253-0.601
				c-5.08,1.059-9.831-0.768-14.709-1.491c-1.053-0.161-2.144-0.38-3.183-0.238c-2.453,0.297-4.653,0.678-7.26-0.439
				c-2.971-1.291-6.488-1.484-9.792-1.871c-2.743-0.336-5.596,0.038-7.984-1.808c-0.129-0.104-0.355-0.091-0.53-0.13
				c-2.544-0.633-5.08-1.29-7.635-1.896c-3.725-0.872-7.302-2.053-10.573-4.118c-1.214-0.749-2.667-1.11-4.002-1.646
				c-0.602-0.227-1.259-0.349-1.757-0.704c-1.968-1.368-3.995-2.466-6.5-2.472c-0.599-0.007-1.29-0.22-1.788-0.567
				c-2.744-1.938-6.008-3.054-8.707-4.912c-3.971-2.737-8.688-3.886-12.594-6.823c-2.652-2.007-5.435-3.764-7.622-6.332
				c-0.975-1.149-2.059-2.299-3.311-3.104c-2.79-1.808-4.655-4.111-5.274-7.442c-0.212-1.104-0.961-2.111-1.446-3.17
				c-0.193-0.451-0.355-0.923-0.749-1.903c0.845,0.51,1.272,0.645,1.536,0.942c2.072,2.362,4.06,4.814,6.197,7.119
				c1.278,1.395,2.839,2.505,4.118,3.88c1.885,2.026,4.118,3.511,6.468,4.924c5.435,3.26,11.269,5.681,17.028,8.256
				c4.479,1.988,9.088,3.479,13.799,4.803c4.874,1.375,9.592,3.227,14.691,3.775c3.318,0.368,6.591,1.124,9.902,1.659
				c2.949,0.491,5.932,0.801,8.849,1.382c5.131,1.033,10.224,2.239,15.342,3.35c6.365,1.375,12.762,2.562,18.687,5.5
				c1.234,0.606,2.73,0.684,3.873,0.955c1.131-3.873,2.157-7.391,3.299-11.354c-0.044-0.522-0.143-1.542-0.246-2.601
				c-0.438-0.175-0.852-0.433-1.279-0.478c-3.698-0.33-7.416-0.91-11.101-0.847c-4.737,0.084-9.412-0.187-14.059-0.993
				c-5.873-1.014-11.767-1.834-17.622-2.95c-4.621-0.891-9.218-1.976-13.774-3.195c-3.388-0.91-6.951-1.517-9.896-3.608
				c-2.652-1.885-5.066-4.117-8.333-4.963c-0.244-0.065-0.425-0.336-0.664-0.478c-1.227-0.742-2.479-1.479-3.698-2.233
				c-1.375-0.846-2.828-1.607-4.1-2.595c-2.419-1.885-4.704-3.983-7.132-5.874c-3.828-2.97-8.094-5.293-11.631-8.753
				c-4.5-4.415-9.528-8.333-13.207-13.503c-4.222-5.951-8.076-12.181-12.264-18.17c-3.383-4.854-5.075-10.503-7.644-15.718
				c-2.86-5.79-5.402-11.787-7.177-18.054c-1.176-4.138-2.712-8.263-3.233-12.49c-0.447-3.621-1.37-7.074-2.292-10.515
				c-1.363-5.138-3.215-10.128-4.712-15.22c-1.724-5.881-3.453-11.767-3.576-17.99c-0.051-2.885-0.543-5.757-0.71-8.636
				c-0.194-3.596-0.212-7.217-0.4-10.806c-0.212-4.041-0.425-8.081-0.865-12.097c-0.452-4.008-1.214-7.977-1.8-11.979
				c-0.324-2.221-0.543-4.473-0.827-6.707c-0.452-3.679-0.702-7.377-1.413-10.992c-1.084-5.493-2.324-10.96-3.834-16.343
				c-0.839-3.021-2.149-5.964-3.595-8.752c-1.917-3.692-4.08-7.268-6.332-10.754c-2.208-3.408-4.532-6.758-7.049-9.921
				c-2.479-3.098-5.203-6.022-7.952-8.894c-1.698-1.75-3.524-3.408-5.519-4.809c-2.272-1.607-4.802-2.859-7.19-4.299
				c-1.472-0.89-3.131-1.606-4.254-2.839c-1.168-1.272-2.569-1.905-3.989-2.673c-1.013-0.555-2.04-1.162-2.866-1.943
				c-1.82-1.723-3.886-2.839-6.325-3.465c-1.923-0.491-3.853-1.137-5.563-2.105c-2.989-1.685-5.823-3.653-8.688-5.538
				c-2.415-1.582-4.874-2.401-7.604-0.671c-0.349,0.219-0.865,0.174-1.278,0.31c-2.156,0.665-4.344,1.239-6.449,2.046
				c-4.608,1.762-9.159,3.686-13.903,5.093c-1.091,0.31-2.285,0.716-2.336,2.311c3.505,1.956,7.307,3.176,11.186,4.028
				c5.906,1.317,11.341,3.744,16.369,6.984c4.467,2.846,8.591,6.196,12.962,9.217c5.28,3.653,10.159,7.746,14.62,12.386
				c2.549,2.653,5.312,5.145,7.635,7.966c1.84,2.201,3.144,4.828,4.726,7.223c3.853,5.809,7.61,11.651,9.346,18.519
				c0.291,1.123,0.743,2.2,0.994,3.324c0.807,3.511,2.995,6.61,2.95,10.392c-0.019,1.079,0.51,2.259,2.111,2.982
				c0.077-1.265,0.297-2.311,0.187-3.311c-0.594-4.918-1.917-9.747-1.807-14.762c0.012-0.775-0.272-1.601-0.568-2.35
				c-0.523-1.311-1.13-2.602-1.756-3.867c-0.794-1.627-1.659-3.221-2.44-4.841c-0.342-0.723-0.561-1.498-0.857-2.24
				c-1.588-4.105-3.001-8.281-6.436-11.393c-2.059-1.872-3.848-3.995-5.365-6.448c-1.716-2.789-3.414-5.661-6.106-7.83
				c-2.64-2.137-4.841-4.816-7.449-7.004c-2.62-2.208-5.428-4.215-8.294-6.106c-2.846-1.872-5.848-3.531-8.811-5.242
				c-2.182-1.258-4.409-2.44-6.622-3.66c-2.401-1.33-5.223-4.563-6.158-7.313c1.517,0.781,2.736,1.459,4.021,2.053
				c4.396,2.052,8.862,4.009,13.207,6.171c2.982,1.498,6.048,2.989,8.688,4.977c6.661,5.042,12.96,10.508,18.505,16.776
				c3.331,3.776,6.784,7.481,9.818,11.49c3.091,4.073,5.66,8.546,7.745,13.264c1.046,2.375,2.337,4.674,3.254,7.113
				c2.917,7.752,3.396,15.957,4.001,24.103c0.42,5.46,0.414,10.953,0.704,16.42c0.193,3.763,1.026,7.565,0.761,11.302
				c-0.323,4.874,0.123,9.663,0.684,14.446c0.614,5.344,1.84,10.625,2.369,16.014c0.316,3.357,0.278,6.726,0.884,10.108
				c0.53,2.95,0.588,6.003,1.323,8.979c0.684,2.776,0.801,5.68,1.375,8.481c0.62,3.073,0.439,6.287,1.924,9.191
				c1.026,2.001,1.665,4.177,2.653,6.191c1.02,2.097,2.439,4.027,3.376,6.171c0.91,2.104,1.556,4.356,2.091,6.608
				c0.769,3.099,0.813,6.462,2.065,9.321c2.621,6.055,4.906,12.297,8.204,18.067c1.473,2.568,2.609,5.318,4.009,7.92
				c1.808,3.317,3.409,6.81,5.706,9.76c2.924,3.775,6.437,7.087,9.721,10.565c1.634,1.711,3.311,3.376,4.97,5.062
				c-2.361-0.414-4.027-1.788-5.364-3.415c-1.581-1.924-3.479-3.331-5.538-4.68c-2.091-1.375-4.485-2.808-5.712-4.828
				c-1.568-2.595-3.653-4.706-5.565-6.9c-3.362-3.859-5.73-8.313-8.617-12.438c-0.154-0.219-0.335-0.465-0.387-0.723
				c-0.425-2.194-1.981-3.782-3.065-5.615c-0.64-1.065-1.221-2.188-1.717-3.351c-0.574-1.322-1.149-2.665-1.518-4.061
				c-0.89-3.375-1.93-6.751-2.4-10.198c-0.33-2.439-1.104-4.473-2.543-6.402c-0.852-1.137-1.498-2.453-2.059-3.757
				c-0.581-1.317-0.852-2.763-1.407-4.086c-1.729-4.195-2.911-8.449-2.762-13.11c0.103-3.195-0.116-6.545-0.995-9.598
				c-1.285-4.544-1.407-9.179-2.046-13.768c-0.284-1.968-0.736-3.95-0.678-5.9c0.142-3.924-0.219-7.726-1.336-11.49
				c-0.53-1.788-0.891-3.64-1.195-5.492c-0.374-2.285-0.658-4.596-0.903-6.894c-0.31-2.95-0.749-5.919-0.761-8.881
				c0-3.15-0.756-6.048-1.911-8.928c1.259-1.594,0.974-3.169,0.148-4.866c-2.007,1.355-2.175,1.943-1.136,3.44
				C90.524,155.167,90.886,155.658,91.234,156.148z M367.111,86.54c0.194,1.208,0.154,2.194,0.543,2.988
				c0.477,0.995,0.497,1.808,0.192,2.847c-1.078,3.518-2.148,7.048-4.156,10.179c-1.342,2.111-2.614,4.35-4.324,6.139
				c-2.376,2.491-4.952,4.815-6.481,7.946c-1.742,3.524-3.504,7.093-3.137,11.27c0.136,1.575,0.206,3.195,0.129,4.789
				c-0.194,3.738,0.168,7.378,1.297,10.967c0.968,3.072,0.608,6.229-0.91,8.888c-1.865,3.26-4.099,6.397-6.654,9.141
				c-3.957,4.247-7.541,8.74-10.613,13.652c-1.143,1.839-2.627,3.562-3.291,5.557c-1.163,3.583-3.072,6.919-3.396,10.799
				c-0.257,3.227-1.006,6.417-1.232,9.644c-0.174,2.356,0.226,4.764,0.219,7.145c-0.026,4.944,1.071,9.734,2.621,14.284
				c1.446,4.273,1.969,8.585,2.446,12.949c0.284,2.575-0.089,5.073-1.536,7.301c-2.847,4.402-5.757,8.766-8.579,13.187
				c-1.219,1.91-2.31,3.886-3.408,5.868c-1.214,2.188-2.524,4.35-3.485,6.654c-1.084,2.569-1.581,5.408-2.789,7.9
				c-1.008,2.015-1.265,3.873-0.619,5.887c-1.531,2.389-1.594,5.003-1.757,7.623c-0.09,1.459-0.438,2.892-0.665,4.344
				c-0.304,1.253-0.329,2.557-0.311,3.854c0,0.82-0.005,1.628,0.053,2.434c0.186,2.04,0.452,4.073,0.606,6.101
				c0.362,4.479,0.968,8.984,0.896,13.471c-0.076,4.092-0.465,8.307-1.542,12.245c-1.026,3.775-3.325,7.139-5.925,10.159
				c-2.278,2.653-4.46,5.377-6.222,8.411c-1.744,2.969-3.543,5.912-5.312,8.868c-1.762,2.963-4.022,5.842-4.235,9.347
				c-0.329,5.325-0.394,10.702,0.045,16.021c0.277,3.15,0.781,6.28,0.711,9.464c-0.02,0.631-0.027,1.264,0.018,1.903
				c0.078,1.22,0.633,1.962,1.937,2.239c2.906,0.633,5.797,1.407,8.688,2.086c7.863,1.813,15.718,3.627,23.587,5.389
				c3.433,0.775,6.887,1.583,10.386,2.079c5.042,0.709,9.92,1.956,14.781,3.435c1.885,0.567,3.886,0.818,5.855,1.103
				c3.756,0.55,7.584,0.788,11.282,1.594c7.895,1.717,15.872,2.971,23.927,3.105c9.902,0.149,19.637,2.034,29.505,2.497
				c4.429,0.201,8.825,0.776,13.252,1.026c3.17,0.182,6.358,0.099,9.526,0.175c5.713,0.156,11.42,0.479,17.126,0.498
				c5.429,0.014,10.856-0.291,16.292-0.413c7.771-0.175,15.555-0.298,23.346-0.49c2.344-0.071,4.7-0.239,7.043-0.44
				c3.872-0.315,7.738-0.749,11.631-1.058c6.674-0.522,13.354-0.961,20.03-1.484c4.775-0.369,9.552-0.885,14.347-1.162
				c5.772-0.349,11.548-0.51,17.352-0.768c1.711-0.078,3.435-0.163,5.139-0.324c6.112-0.548,12.225-1.148,18.357-1.677
				c5.299-0.458,10.689-0.472,15.924-1.363c7.57-1.304,15.143-2.594,22.753-3.606c3.466-0.466,6.88-1.111,10.185-2.332
				c3.215-1.181,6.449-2.323,9.656-3.492c0.562-0.192,1.091-0.438,1.627-0.65c-0.619-2.726-0.787-5.145,0.232-7.638
				c0.479-1.2,0.562-2.685,0.438-3.987c-0.517-4.926-1.813-9.715-3.161-14.473c-0.492-1.703-1.201-3.395-2.086-4.951
				c-1.42-2.504-3.014-4.918-4.642-7.312c-1.665-2.439-3.511-4.757-5.163-7.223c-1.303-1.943-2.312-4.099-3.659-5.997
				c-1.241-1.755-2.041-3.614-2.453-5.68c-0.201-0.975-0.491-1.937-0.652-2.904c-1.04-5.823-1.427-11.587,1.607-17.041
				c0.432-0.794,0.832-1.652,1.006-2.524c0.841-4.272,1.782-8.533,2.337-12.838c0.396-3.008,0.375-6.094,0.266-9.127
				c-0.13-3.712-0.763-7.378-2.653-10.632c-3.911-6.731-7.564-13.548-10.075-20.958c-1.188-3.499-1.833-7.01-2.008-10.624
				c-0.434-8.27,0.645-16.396,2.408-24.464c0.541-2.53,0.747-5.164,0.812-7.759c0.052-1.394-0.561-2.794-0.78-4.228
				c-0.322-2.189-0.427-4.421-0.832-6.591c-0.505-2.562-1.433-5.073-1.833-7.642c-0.626-3.996-2.188-7.565-4.087-11.076
				c-1.413-2.602-2.589-5.339-3.904-8.004c-0.627-1.272-1.369-2.492-1.995-3.77c-1.265-2.582-2.756-5.08-3.665-7.778
				c-0.976-2.872-1.467-5.906-1.977-8.908c-0.407-2.408-0.749-4.86-0.709-7.287c0.069-4.7,0.555-9.386,0.645-14.072
				c0.04-2.33,0.098-4.859-0.723-6.964c-1.581-4.04-1.93-8.204-2.381-12.412c-0.246-2.149-0.563-4.299-1.08-6.377
				c-1.084-4.332-3.479-8.088-5.439-12.013c-0.943-1.853-1.905-3.776-3.26-5.306c-2.609-2.956-5.268-5.938-8.359-8.358
				c-2.538-2.021-4.597-4.338-6.352-6.965c-1.503-2.239-3.33-3.144-5.997-2.433c-1.109,0.296-2.388,0.503-3.459,0.231
				c-5.073-1.304-10.09-0.51-15.124,0.104c-1.697,0.219-3.415,0.374-5.111,0.581c-1.614,0.187-3.254,0.284-4.836,0.619
				c-3.879,0.833-7.738,1.781-11.617,2.646c-0.626,0.148-1.266,0.162-1.898,0.213c-1.878,0.18-3.776,0.354-5.661,0.491
				c-2.613,0.173-5.24,0.548-7.836,0.432c-5.248-0.238-10.476-0.484-15.736-0.006c-3.066,0.277-6.17,0.019-9.237,0.316
				c-6.699,0.645-13.386,0.38-20.073-0.026c-3.416-0.201-6.844-0.246-10.265-0.174c-3.4,0.051-6.803,0.342-10.211,0.503
				c-0.438,0.02-0.885-0.109-1.336-0.129c-2.697-0.161-5.454-0.761-8.067-0.368c-4.977,0.762-9.922,0.497-14.859,0.355
				c-6.333-0.207-12.639-0.833-18.959-1.233c-3.432-0.213-6.879-0.161-10.3-0.549c-4.292-0.464-8.585-1.213-12.878-1.897
				c-3.834-0.614-7.642-1.343-11.477-1.95C369.686,86.417,368.608,86.54,367.111,86.54z M284.941,402.43
				c-0.012,4.499-0.058,8.43-0.045,12.38c0,3.416,0.639,4.255,3.951,5.126c3.222,0.858,6.461,1.646,9.714,2.42
				c4.583,1.098,9.146,2.227,13.748,3.201c3.441,0.725,6.939,1.252,10.405,1.827c3.021,0.51,6.074,0.892,9.088,1.459
				c7.197,1.336,14.207,3.608,21.566,4.253c5.847,0.51,11.669,1.427,17.504,2.124c7.094,0.852,14.208,1.686,21.32,2.524
				c6.468,0.773,12.916,1.679,19.416,2.312c9.631,0.948,19.268,1.871,28.924,2.504c6.946,0.445,13.924,0.425,20.889,0.517
				c2.795,0.045,5.596-0.208,8.409-0.246c3.957-0.051,7.945,0.22,11.89-0.09c8.212-0.639,16.479-0.278,24.665-1.601
				c6.229-1.008,12.522-1.614,18.789-2.414c2.323-0.298,4.622-0.704,6.958-0.924c5.209-0.496,10.431-0.8,15.64-1.354
				c5.571-0.595,11.116-1.498,16.686-2.053c5.133-0.51,10.289-0.737,15.427-1.104c3.705-0.252,7.411-0.489,11.103-0.833
				c4.139-0.394,8.295-0.689,12.387-1.369c5.771-0.948,11.534-1.994,17.209-3.381c4.474-1.098,9.107-0.852,13.542-2.466
				c4.382-1.582,9.133-2.155,13.665-3.396c3.266-0.891,6.441-2.143,9.662-3.247c-0.174-4.498-0.478-8.649-4.066-11.456
				c-2.589,1.147-4.932,2.046-7.159,3.201c-5.209,2.724-10.875,3.88-16.582,4.383c-4.376,0.38-8.487,1.465-12.664,2.542
				c-4.015,1.033-8.049,2.145-12.16,2.647c-5.268,0.664-10.651,0.438-15.886,1.737c-1.258,0.315-2.698-0.182-4.015-0.014
				c-3.053,0.406-6.041,1.122-9.089,1.478c-5.292,0.62-10.611,1.123-15.916,1.557c-3.24,0.277-6.488,0.328-9.729,0.51
				c-2.53,0.147-5.048,0.387-7.59,0.51c-4.157,0.206-8.326,0.25-12.479,0.536c-5.686,0.367-11.359,0.903-17.039,1.361
				c-1.795,0.154-3.583,0.374-5.377,0.452c-5.422,0.251-10.851,0.465-16.267,0.684c-4.054,0.161-8.062,0.942-12.161,0.549
				c-10.102-0.942-20.242-0.917-30.389-0.736c-2.607,0.052-5.209,0.291-7.81,0.407c-1.001,0.045-2.001,0.078-2.982-0.014
				c-3.978-0.328-7.952-0.619-11.903-1.091c-7.635-0.896-15.246-1.937-22.881-2.847c-2.603-0.304-5.203-0.482-7.818-0.536
				c-2.891-0.051-5.809,0.331-8.682,0.13c-4.06-0.297-8.094-0.884-12.121-1.479c-2.492-0.354-5.081-0.605-7.411-1.464
				c-4.053-1.505-8.223-2.209-12.476-2.395c-2.848-0.13-5.544-0.685-8.25-1.512c-2.84-0.865-5.686-1.819-8.592-2.484
				c-7.313-1.658-14.716-2.841-21.946-5.055c-7.416-2.253-15.123-3.505-22.507-5.996
				C290.886,403.333,288.066,403.062,284.941,402.43z M353.517,75.683c1.433,0.788,2.466,1.575,3.615,1.943
				c4.563,1.485,9.126,2.976,13.748,4.215c6.578,1.749,13.349,2.504,20.095,3.027c9.203,0.736,18.427,1.246,27.646,1.807
				c2.627,0.155,5.261,0.304,7.888,0.226c3.608-0.103,7.209-0.568,10.817-0.613c8.488-0.097,16.982-0.161,25.472,0.084
				c2.801,0.083,5.614-0.045,8.402,0.135c3.706,0.246,7.371,0.516,11.084,0.051c2.498-0.303,5.047-0.103,7.564-0.154
				c3.246-0.071,6.513,0.045,9.721-0.297c4.745-0.497,9.457-1.349,14.195-1.994c1.885-0.252,3.788-0.361,5.673-0.529
				c4.422-0.388,8.83-1.027,13.251-1.104c7.463-0.135,14.731-1.42,21.966-3.104c2.73-0.639,5.454-1.272,8.197-1.808
				c2.918-0.581,5.875-0.98,8.779-1.601c0.697-0.149,1.735-0.787,1.813-1.311c0.375-2.743,0.723-5.57-1.549-7.958
				c-1.052,0.116-2.04,0.212-3.021,0.322c-1.69,0.207-3.376,0.484-5.086,0.626c-1.439,0.11-2.897-0.039-4.317,0.123
				c-6.662,0.736-13.316,1.562-19.966,2.304c-1.529,0.168-3.156-0.084-4.602,0.316c-3.369,0.949-6.785,1-10.212,1.014
				c-4.447,0.026-8.888,0.019-13.323,0.058c-3.439,0.039-6.866,0.142-10.294,0.187c-3.17,0.032-6.345-0.058-9.509,0.045
				c-2.982,0.116-5.958,0.536-8.934,0.568c-4.061,0.033-8.132-0.277-12.192-0.239c-6.513,0.058-13.025,0.226-19.538,0.432
				c-5.681,0.194-11.374-0.349-17.055,0.11c-1.793,0.155-3.62-0.277-5.396-0.103c-6.519,0.633-13-0.188-19.506-0.167
				c-2.788,0.006-5.603,0.006-8.391-0.039c-4.17-0.065-8.333,0-12.471-0.31c-3.872-0.284-7.731-0.897-11.579-1.53
				c-5.99-0.994-11.975-2.097-16.835-6.719c-0.767,0.503-1.554,1.013-2.433,1.581c0.762,1.775-0.083,2.976-0.89,4.325
				C355.292,71.358,354.595,73.333,353.517,75.683z M447.214,53.24c-1.064,0.064-1.872,0.045-2.634,0.18
				c-1.078,0.174-2.104,0.588-3.182,0.653c-4.687,0.329-9.386,0.793-14.072,0.773c-7.184-0.025-14.232,1.124-21.313,1.866
				c-7.099,0.749-14.175,1.698-21.255,2.543c-0.458,0.064-0.923,0.006-1.368,0.019c-5.796,0.291-11.521,1.04-17.144,2.492
				c-0.986,0.258-1.91,0.8-2.846,1.207c1.866,1.091,3.66,1.698,5.48,2.227c6.106,1.814,12.406,2.446,18.713,3.06
				c3.776,0.368,7.597,0.329,11.412,0.323c2.853-0.014,5.712-0.4,8.565-0.375c4.145,0.032,8.288,0.291,12.406,0.438
				c5.964,0.232,11.928,0.452,17.893,0.658c0.534,0.013,1.091-0.032,1.607-0.148c3.943-0.774,7.895-0.69,11.863-0.362
				c1.614,0.135,3.222-0.013,4.834-0.11c1.162-0.09,2.312-0.465,3.474-0.458c5.789,0.019,11.579,0.193,17.37,0.167
				c2.433-0.006,4.86-0.433,7.307-0.535c3.691-0.168,7.423-0.213,11.121-0.355c4.422-0.161,8.837-0.484,13.251-0.49
				c3.416-0.013,6.861,0.226,10.271,0.31c5.744,0.147,11.502-0.626,17.254-1.084c2.974-0.232,5.925-0.684,8.907-0.91
				c1.335-0.11,2.717,0.219,4.065,0.122c3.499-0.226,6.984-0.594,10.483-0.858c1.942-0.154,3.886-0.271,6.067-1.394
				c-1.453-0.717-2.524-1.446-3.698-1.782c-6.067-1.781-12.104-3.73-18.268-5.073c-4.912-1.065-9.992-1.439-15.014-1.982
				c-6.301-0.677-12.594-1.406-18.912-1.774c-5.293-0.316-10.594-1.143-15.931-0.516c-1.129,0.135-2.324-0.291-3.505-0.369
				c-0.568-0.026-1.156,0.143-1.847,0.252c0.071,1.278-0.025,2.388,0.239,3.414c0.316,1.303-0.291,2.014-0.787,2.408
				c-2.143,0.471-3.809,0.8-5.48,1.194c-1.742,0.426-3.454,1.129-5.216,1.349c-7.022,0.833-14.104,0.755-21.14,0.303
				c-3.007-0.187-6.093-0.742-8.223-3.156C447.717,56.112,447.499,54.867,447.214,53.24z M592.899,100.966
				c1.543,1.989,3.162,3.705,4.345,5.693c1.826,3.098,3.374,6.364,5.002,9.579c0.684,1.362,1.395,2.744,1.833,4.182
				c0.883,2.924,1.853,5.868,2.285,8.882c0.425,2.989,0.174,6.074,0.335,9.114c0.085,1.246,0.465,2.466,0.763,3.692
				c0.297,1.214,0.838,2.395,0.968,3.627c0.322,2.84,0.445,5.7,0.645,8.565c2.718,0.375,4.932-1,5.1-3.628
				c0.201-3.208,0.136-6.448-0.076-9.656c-0.123-2.039-0.595-4.086-1.176-6.054c-0.846-2.834-2.233-5.552-2.82-8.43
				c-0.55-2.672-1.35-5.415-0.769-8.249c0.562-2.795,1.207-5.577,0.588-8.469c-0.071-0.316,0.147-0.678,0.226-1.02
				c1.465-0.975,2.871-1.898,4.201-2.775c-0.031-2.582-0.096-2.543-1.31-4.376c-0.646-0.948-0.917-2.136-1.517-3.104
				c-0.903-1.471-0.529-3.679-2.77-4.57C603.593,96.248,598.308,98.585,592.899,100.966z M274.125,371.267
				c-0.007,1.277-0.052,2.55-0.007,3.802c0.051,1.233,0.749,2.001,1.93,2.33c1.278,0.349,2.388-0.013,3.124-1.071
				c0.452-0.64,0.787-1.459,0.91-2.24c0.587-3.75,1.142-7.494,1.594-11.257c0.188-1.518,0.085-3.021,0.917-4.44
				c1.576-2.731,2.944-5.57,4.558-8.275c1.194-2.001,2.013-4.061,1.827-6.391c-0.149-2.053-1.679-2.995-3.648-2.42
				c-1.704,0.51-2.736,1.903-2.969,3.775c-0.271,2.047-0.367,4.202-1.116,6.081c-1.272,3.175-2.839,6.255-4.602,9.178
				C274.583,363.76,274.02,367.413,274.125,371.267z M449.707,55.402c2.504,1.368,4.796,2.027,7.345,2.053
				c5.254,0.045,10.495,0.09,15.749,0.077c3.369,0,6.56-0.981,9.994-1.943c0.179-1.349,0.354-2.621,0.554-4.086
				c-0.8,0.116-1.258,0.123-1.685,0.246c-2.484,0.723-4.924,1.743-7.475,2.143c-3.014,0.478-6.126,0.678-9.179,0.575
				c-2.395-0.084-4.789-0.717-7.146-1.285c-1.736-0.407-3.396-1.182-5.138-1.626c-0.885-0.213-1.871-0.032-2.995-0.046
				C449.718,52.943,449.718,54.085,449.707,55.402z M90.247,143.375c0.194-0.045,0.4-0.116,0.607-0.162
				c0.039-0.613,0.071-1.227,0.142-2.375c-0.793,0.646-1.452,0.923-1.452,1.214C89.524,142.49,89.988,142.942,90.247,143.375z"/>
			<path fill-rule="evenodd" clip-rule="evenodd" fill="#DDC89D" d="M185.829,277.833c-0.174,0.472-0.349,0.931-0.575,1.562
				c0.252,0.329,0.6,0.807,1.149,1.523c-0.801,0.136-1.362,0.22-2.079,0.342c-0.013-0.522-0.013-0.903,0-1.388
				c-0.581-0.342-1.167-0.677-2.117-1.259c1.278-0.529,2.208-0.909,3.125-1.297C185.507,277.484,185.662,277.659,185.829,277.833z"
				/>
			<path fill-rule="evenodd" clip-rule="evenodd" fill="#DDC89D" d="M91.234,156.148c-0.349-0.49-0.71-0.981-1.065-1.479
				c-1.039-1.497-0.871-2.085,1.136-3.44c0.826,1.697,1.111,3.272-0.148,4.873C91.17,156.11,91.234,156.148,91.234,156.148z"/>
			<path fill-rule="evenodd" clip-rule="evenodd" fill="#DDC89D" d="M90.247,143.375c-0.258-0.433-0.723-0.884-0.704-1.323
				c0-0.291,0.659-0.568,1.452-1.214c-0.07,1.149-0.103,1.763-0.142,2.375C90.646,143.258,90.441,143.329,90.247,143.375z"/>
			<path fill-rule="evenodd" clip-rule="evenodd" fill="#DDC89D" d="M533.173,99.289c1.478-0.342,2.962-0.678,4.44-1.02
				c0.266-0.058,0.554,0.005,0.807-0.072c4.628-1.458,9.488-1.355,14.206-2.11c2.145-0.349,4.333-0.465,6.488-0.645
				c2.518-0.22,4.782,0.257,6.88,1.916c1.072,0.846,2.634,1.124,4.015,1.53c2.046,0.601,3.254,1.788,3.524,3.97
				c0.389,3.15,1.942,5.531,4.661,7.288c1.311,0.852,2.53,2.168,3.246,3.556c2.614,5.067,5.661,9.915,7.52,15.369
				c1.233,3.576,1.904,7.075,1.428,10.902c-0.826,6.487-2.988,12.632-4.325,18.978c-0.291,1.394-0.459,2.794-0.698,4.195
				c-0.999,6.042-0.489,12.063,0.563,18.021c0.528,3.001,1.632,5.861,3.497,8.442c3.338,4.583,6.662,9.192,8.966,14.44
				c0.795,1.808,1.814,3.518,2.757,5.267c3.467,6.339,4.086,13.271,3.879,20.261c-0.123,4.073-0.374,8.275-2.795,11.889
				c-1.503,2.247-2.866,4.57-4.402,6.791c-3.079,4.492-5.719,9.302-6.577,14.658c-0.808,5.003,0.574,9.786,3.642,14.014
				c2.497,3.44,5.254,6.784,7.17,10.554c2.209,4.292,4.687,8.669,4.525,13.807c-0.014,0.181-0.014,0.381,0.064,0.535
				c1.55,3.376,0.64,6.624-0.239,10.006c-1.167,4.46-2.278,9.018-2.64,13.606c-0.504,5.938-0.4,11.954-0.168,17.925
				c0.045,1.646,1.33,3.305,2.26,4.841c0.742,1.227,1.8,2.272,2.847,3.544c-0.007,0.981-0.014,2.143-0.021,3.415
				c-2.323,0.097-3.794-1.156-5.183-2.614c-1.42-1.511-2.879-2.995-4.292-4.506c-0.362-0.388-0.763-0.839-0.886-1.323
				c-0.941-3.576-2.336-7.042-2.162-10.869c0.253-5.629,0.304-11.245,0.51-16.867c0.047-1.245,0.253-2.562,0.718-3.698
				c1.283-3.17,1.69-6.448,1.639-9.844c-0.045-3.272,0.149-6.545-0.794-9.728c-0.349-1.194-0.838-2.362-1.381-3.485
				c-0.761-1.536-1.55-3.086-2.484-4.518c-1.033-1.589-2.202-3.105-3.421-4.532c-1.97-2.323-3.57-4.686-3.66-7.939
				c-0.162-4.789-0.756-9.559-0.93-14.349c-0.052-1.452,0.4-3.072,1.064-4.396c2.24-4.435,4.344-8.966,7.695-12.78
				c1.368-1.543,2.175-3.524,2.258-5.719c0.253-5.996,0.427-12-0.767-17.886c-0.492-2.336-1.822-4.519-2.75-6.759
				c-0.492-1.155-0.943-2.33-1.446-3.472c-0.839-1.904-1.595-3.841-2.607-5.642c-1.956-3.453-4.196-6.764-6.101-10.262
				c-1.685-3.092-3.098-6.345-4.551-9.56c-0.239-0.536-0.116-1.259-0.116-1.897c0.104-4.338,0.123-8.656,0.664-13.006
				c0.602-4.744,0.434-9.617,0.215-14.414c-0.324-7.242-0.879-14.471-1.583-21.687c-0.206-1.995-1.316-3.886-2.001-5.842
				c-0.541-1.536-1.271-3.034-1.509-4.621c-0.349-2.362-1.588-4.17-2.847-6.068c-1.815-2.704-4.371-4.583-6.844-6.539
				c-3.052-2.408-6.235-4.667-9.403-6.906c-0.879-0.614-1.905-1.091-2.925-1.401c-4.351-1.285-8.675-2.698-13.296-2.336
				c-1.078,0.084-2.138,0.335-3.215,0.4c-1.013,0.063-2.039,0.005-3.072,0.005C533.211,99.831,533.193,99.559,533.173,99.289z"/>
			<path fill-rule="evenodd" clip-rule="evenodd" fill="#DDC89D" d="M461.131,98.527c0.884-0.084,1.154-0.123,1.42-0.136
				c4.943-0.375,5.261,0.904,6.913,4.776c0.496,1.149,1.245,2.182,1.91,3.253c1.233,1.988,2.738,3.866,3.653,5.996
				c0.69,1.607,0.737,3.511,0.897,5.3c0.517,5.771,0.343,11.618-1.124,17.189c-1.632,6.222-4.156,12.212-6.305,18.299
				c-0.149,0.419-0.523,0.787-0.595,1.207c-0.581,3.809-3.027,6.624-5.028,9.682c-0.335,0.511-0.541,1.149-0.646,1.756
				c-0.535,3.021-1.49,5.919-1.981,8.979c-0.445,2.743-1,5.461-1.149,8.256c-0.103,1.807,0.239,3.472,0.872,5.254
				c1.406,3.893,2.292,7.953,3.466,11.941c0.484,1.62,1.207,3.188,1.809,4.782c2.466,6.487,4.42,13,4.266,20.152
				c-0.147,5.913-0.619,11.696-1.949,17.409c-0.497,2.092-1.311,4.104-2.008,6.145c-0.175,0.504-0.651,0.948-0.709,1.446
				c-0.465,3.893-1.026,7.804-1.408,11.683c-0.394,3.932,1.484,7.585,3.434,11.013c2.216,3.924,3.144,8.281,4.461,12.502
				c0.387,1.214,0.793,2.434,1.343,3.563c1.362,2.853,1.685,5.849,1.458,8.939c-0.076,1.091-0.188,2.182-0.188,3.254
				c0.014,4.737-0.069,9.404-1.587,14c-1.098,3.343-2.053,6.823-2.356,10.302c-0.388,4.383-0.354,8.862,0.091,13.252
				c0.298,3.13,1.04,6.222,0.962,9.437c-0.116,4.899-0.021,9.805-0.123,14.697c-0.038,1.982-0.36,3.964-0.465,5.938
				c-0.045,1.071,0.143,2.156,0.239,3.68c-1.885,3.098-4.067,6.493-6.075,10.004c-1.31,2.317-2.62,4.674-2.511,7.514
				c0.014,0.529-0.521,1.084-0.812,1.633c-0.342,0.646-0.704,1.304-1.247,2.33c-1.562,1.001-3.414,2.558-6.041,1.672
				c-0.497-4.698,0.143-9.242,1.651-13.645c0.421-1.246,1.279-2.401,2.176-3.401c2.641-3.002,4.331-6.371,5.131-10.328
				c1.266-6.261,1.699-12.51,1.48-18.899c-0.156-4.338-0.976-8.391-2.39-12.444c-0.678-1.943-0.976-4.048-1.304-6.101
				c-0.575-3.511,0.749-6.629,2.395-9.585c1.415-2.543,2.079-5.151,2.027-8.043c-0.064-4.086,0.076-8.179,0.019-12.27
				c-0.07-5.171-0.723-10.264-2.064-15.306c-1.026-3.879-2.356-7.597-3.938-11.263c-0.678-1.537-0.903-3.306-1.143-4.996
				c-0.748-5.022-1.355-10.062-0.432-15.137c0.109-0.633,0.031-1.343,0.316-1.871c1.387-2.499,1.277-5.235,1.38-7.946
				c0.105-2.834,0.841-5.5,1.686-8.218c0.82-2.64,1.014-5.524,1.208-8.307c0.309-4.622,0.438-9.236,0.561-13.858
				c0.078-2.679-0.406-5.241-1.987-7.488c-0.42-0.581-0.827-1.285-1.415-1.62c-3.227-1.917-4.389-5.261-5.583-8.437
				c-0.91-2.42-1.393-5.099-1.549-7.688c-0.244-3.801-0.109-7.623,0-11.431c0.149-5.235,2.137-9.935,4.771-14.304
				c1.892-3.137,3.072-6.545,4.44-9.901c0.438-1.084,0.968-2.136,1.512-3.183c0.928-1.755,2.006-3.453,2.871-5.248
				c5.222-11.005,4.228-7.243,4.435-18.687c0.09-4.286-0.323-8.462-1.323-12.651c-1.039-4.37-3.222-8.043-5.739-11.618
				C462.558,100.818,461.97,99.831,461.131,98.527z"/>
			<path fill-rule="evenodd" clip-rule="evenodd" fill="#DDC89D" d="M307.153,347.958c2.865-1.729,4.092-4.893,5.214-8.333
				c1.988-6.048,2.828-12.251,3.247-18.551c0.046-0.71-0.025-1.439-0.122-2.163c-0.388-2.813-0.93-5.647-1.142-8.494
				c-0.123-1.594,0.335-3.215,0.425-4.848c0.201-3.666,0.201-7.352,0.537-11.024c0.219-2.407,0.722-4.821,1.387-7.151
				c0.917-3.208,1.898-6.442,3.259-9.47c1.511-3.369,3.499-6.525,5.274-9.785c0.704-1.337,1.355-2.711,2.065-4.08
				c0.479-0.955,0.975-1.923,1.53-2.846c3.324-5.506,6.383-11.128,8.63-17.17c1.124-3.014,1.149-6.185,0.729-9.34
				c-0.6-4.661-1.084-9.366-1.994-13.962c-1.123-5.681-0.884-11.444-1.445-17.157c-0.375-3.795-0.355-7.565,0.387-11.29
				c0.825-4.228,2.976-7.926,4.99-11.67c1.936-3.608,4.582-6.648,7.249-9.747c3.568-4.15,6.931-8.591,8.487-14.02
				c0.297-1.026,0.516-2.117,0.548-3.182c0.174-6.397,0.581-12.754,1.395-19.125c1.033-8.043,4.59-14.931,8.74-21.611
				c1.078-1.743,2.575-3.253,4.015-4.744c2.162-2.213,4.324-4.389,5.254-7.029c-0.271-1.808-0.516-3.33-0.769-4.879
				c0.95-0.478,1.562-0.794,2.24-1.136c2.886,2.614,6.519,1.872,10.199,2.511c-2.215,3.763-4.042,7.655-6.598,10.959
				c-2.969,3.848-6.609,7.171-9.94,10.729c-0.548,0.587-1.026,1.271-1.484,1.943c-2.589,3.866-4.306,8.088-5.842,12.496
				c-2.634,7.597-2.013,15.389-2.176,23.146c0,0.284,0,0.549,0.04,0.826c0.322,2.531-0.639,4.447-2.408,6.281
				c-1.755,1.807-2.962,4.085-4.61,6.009c-2.471,2.872-5.008,5.706-7.707,8.365c-1.129,1.11-2.238,2.098-2.607,3.679
				c-0.903,3.88-1.878,7.752-2.717,11.651c-0.174,0.755-0.129,1.729,0.206,2.388c0.878,1.613,0.735,3.311,0.807,5.028
				c0.304,7.062,0.407,14.136,1.393,21.152c0.136,0.98,0.149,1.981,0.149,2.988c-0.013,6.622,0.02,13.252-0.109,19.874
				c-0.052,1.976-0.595,3.932-0.892,5.9c-0.696,4.635-2.897,8.552-5.86,12.058c-2.86,3.388-4.731,7.28-6.164,11.418
				c-1.06,3.085-1.963,6.222-3.072,9.301c-0.737,2.033-1.757,3.977-2.557,5.99c-1.787,4.486-2.833,9.146-3.653,13.91
				c-1.382,7.862-0.826,15.75-0.87,23.624c-0.02,4.622-0.95,8.992-2.234,13.349c-0.742,2.523-1.433,5.073-2.434,7.501
				c-0.651,1.562-1.697,2.988-2.73,4.344c-2.305,3.027-4.816,5.887-7.049,8.966c-2.401,3.311-3.504,7.106-3.614,11.225
				c-0.078,2.789,0.284,5.616-0.872,8.313c-0.562,1.298-0.896,2.691-1.446,4.002c-0.129,0.342-0.658,0.536-0.981,0.774
				c-1.458-0.812-1.858-1.969-1.968-3.439c-0.382-5.881,0.517-11.645,2.059-17.222c1.084-3.931,2.298-7.952,5.272-11.192
				C306.056,352.657,306.262,350.386,307.153,347.958z"/>
			<path fill-rule="evenodd" clip-rule="evenodd" fill="#DDC89D" d="M488.326,390.502c-0.729-0.981-1.266-1.691-1.562-2.085
				c0.529-1.582,1.2-2.814,1.316-4.105c0.175-2.06-0.064-4.15-0.024-6.216c0.038-2.156,0.16-4.306,0.302-6.448
				c0.342-5.409-1.149-10.541-2.193-15.77c-0.82-4.06-2.383-7.92-2.854-12.083c-0.29-2.569-1.542-5.009-1.924-7.572
				c-0.865-5.705-0.452-11.211,2.698-16.388c1.949-3.188,4.092-6.396,4.673-10.257c0.078-0.529,0.212-1.052,0.335-1.568
				c0.608-2.814,0.646-5.731,2.157-8.365c0.962-1.659,0.969-3.615,0.671-5.532c-0.201-1.323-0.342-2.679-0.574-4.008
				c-0.588-3.383-1.118-6.765-1.84-10.108c-0.736-3.44-2.705-6.307-4.622-9.179c-2.931-4.37-5.176-9.03-7.074-13.975
				c-1.703-4.461-2.271-8.889-1.846-13.491c0.271-3.039,0.664-6.145,1.601-9.042c1.292-4.021,1.071-8.088,0.865-12.123
				c-0.148-3.111-0.109-6.287-1.228-9.354c-1.077-2.911-1.8-5.951-2.672-8.933c-0.773-2.736-1.646-5.447-2.285-8.236
				c-1.104-4.88-2.135-9.798-3.078-14.729c-0.704-3.692,0.038-7.346,0.633-10.985c0.923-5.655,3.53-10.612,6.267-15.492
				c1.71-3.066,3.758-5.952,5.538-8.979c0.724-1.226,1.389-2.595,1.647-3.976c0.702-3.977,1.205-8.004,1.755-12.005
				c0.619-4.758,0.749-9.528-0.007-14.221c-0.567-3.485-0.78-7.197-3.479-10.05c-1.169-1.233-2.11-2.692-3.092-4.099
				c-0.271-0.4-0.317-0.948-0.085-1.736c0.917,0.651,1.982,1.168,2.705,1.968c3.563,3.925,5.726,8.456,6.913,13.717
				c1.053,4.751,1.361,9.437,1.272,14.214c-0.033,1.852-0.407,3.711-0.55,5.577c-0.083,1.213,0.064,2.479-0.07,3.705
				c-0.335,3.214-1.11,6.436-1.065,9.636c0.046,4.764-2.614,8.443-4.267,12.522c-1.911,4.725-4.208,9.263-5.596,14.227
				c-0.698,2.492-1.396,4.983-1.465,7.52c-0.098,3.485,0.168,7.003,0.528,10.489c0.427,4.009,1.33,7.953,2.582,11.786
				c0.865,2.653,1.634,5.345,2.504,7.985c0.336,0.994,0.84,1.956,1.356,2.879c0.606,1.11,0.832,2.362,1.277,3.453
				c1.084,2.673,1.304,5.364,1.408,8.159c0.103,2.749,0.387,5.492,0.483,8.235c0.201,5.338-0.846,10.521-2.079,15.666
				c-0.774,3.176-0.678,6.241,0.97,9.166c0.309,0.542,0.555,1.188,0.6,1.801c0.271,4.105,2.329,7.591,3.976,11.18
				c1.562,3.408,2.35,6.939,2.854,10.611c0.6,4.351,1.321,8.695,2.046,13.025c0.373,2.299,0.896,4.564,1.276,6.855
				c0.349,2.124,0.277,4.138-0.496,6.287c-0.742,2.047-0.865,4.396-0.858,6.604c0,2.872-1,5.428-1.968,7.984
				c-1.047,2.77-2.105,5.558-3.468,8.165c-1.174,2.214-1.051,4.467-0.574,6.597c0.697,3.053,1.498,6.101,1.433,9.23
				c-0.103,4.726,1.834,9.037,2.46,13.613c0.458,3.285,1.265,6.655,0.122,9.869c-0.852,2.369-0.961,4.635-0.722,7.055
				c0.058,0.568-0.221,1.182-0.376,1.763c-0.232,0.923-0.534,1.82-0.748,2.743c-0.426,1.995-0.768,4.002-1.253,5.977
				C489.481,389.966,488.86,390.14,488.326,390.502z"/>
			<path fill-rule="evenodd" clip-rule="evenodd" fill="#DDC89D" d="M561.749,198.053c-1.988-3.357-5.138-5.887-6.164-9.986
				c-1.351-5.383-2.737-10.695-2.377-16.337c0.208-3.253,0.137-6.532,0.085-9.798c-0.071-3.75,0.633-7.371,1.827-10.883
				c1.665-4.893,1.949-9.889,1.136-14.936c-0.465-2.827-1.078-5.674-2.091-8.333c-0.775-2.046-2.105-3.944-3.492-5.674
				c-1.989-2.511-4.261-4.815-6.598-7.404c0.735,0,1.292-0.135,1.71,0.025c2.949,1.13,5.914,2.215,8.767,3.557
				c0.955,0.452,1.711,1.543,2.323,2.479c1.071,1.678,1.755,3.615,2.963,5.164c2.284,2.943,3.46,6.371,4.512,9.812
				c0.588,1.93,0.749,4.067,0.659,6.087c-0.201,5.054-0.479,10.122-1.078,15.143c-0.406,3.46-1.46,6.841-2.124,10.276
				c-1.117,5.751-2.672,11.464-2.201,17.39c0.167,2.143,0.735,4.259,1.175,6.383c0.483,2.278,1.007,4.563,1.51,6.835
				C562.116,197.923,561.936,197.988,561.749,198.053z"/>
			<path fill-rule="evenodd" clip-rule="evenodd" fill="#DDC89D" d="M440.598,100.605c4.306-1.208,8.12-1.627,12.2-1.343
				c-0.549,3.369,0.903,5.867,2.865,8.217c3.557,4.312,4.945,9.398,5.133,14.872c0.051,1.717-0.182,3.459,0.012,5.15
				c0.782,7.268-3.221,12.768-6.661,18.486c-0.026,0.046-0.168,0.02-0.297,0.032c-0.31-1.503-0.865-3.027-0.865-4.537
				c0-4.222,0.232-8.443,0.368-12.671c0.065-2.53,0.077-5.066,0.182-7.603c0.083-2.569-0.931-4.744-2.233-6.861
				c-1.234-2.008-2.441-4.028-3.608-6.068c-1.375-2.381-2.977-4.544-5.306-6.068C441.871,101.883,441.477,101.399,440.598,100.605z"
				/>
			<path fill-rule="evenodd" clip-rule="evenodd" fill="#DDC89D" d="M324.993,352.419c0.394-1.627,0.633-2.834,0.988-4.009
				c1.026-3.485,2.207-6.92,3.137-10.412c0.981-3.614,1.169-7.325,1.104-11.057c-0.071-5.087-0.174-10.179,0.083-15.246
				c0.317-6.352,1.357-12.613,3.834-18.545c0.168-0.374,0.427-0.703,0.995-1.639c0.141,1.297,0.432,2.046,0.232,2.607
				c-0.478,1.304-0.143,2.505,0.271,3.686c0.548,1.658,0.465,3.311,0.452,5.048c-0.052,8.701,0.181,17.415,0.103,26.122
				c-0.025,2.679-0.651,5.37-1.051,8.056c-0.53,3.562-1.86,6.72-4.279,9.495c-1.466,1.685-2.453,3.788-4.286,5.163
				C326.265,351.94,325.845,352.038,324.993,352.419z"/>
			<path fill-rule="evenodd" clip-rule="evenodd" fill="#DDC89D" d="M368.944,172.989c-1.109,3.705-2.084,6.887-5.357,8.527
				c-2.182,1.084-3.15,3.13-4.447,4.945c-0.266,0.354-0.362,0.871-0.666,1.155c-3.517,3.202-3.77,7.662-4.434,11.871
				c-0.516,3.202-0.116,6.396,1.104,9.547c1.181,3.079,1.717,6.396,2.723,9.546c0.82,2.537,1.317,5.067,0.89,7.701
				c-0.291,1.723-0.774,3.415-1.174,5.105c-1.084,4.5-2.162,9.005-3.267,13.491c-0.096,0.419-0.291,0.812-0.845,1.226
				c-0.058-0.433-0.174-0.877-0.181-1.316c0.007-4.344-0.064-8.707,0.072-13.058c0.264-8.637-1.033-17.183-1.33-25.78
				c-0.161-4.809-0.155-9.611-0.116-14.42c0-0.717,0.516-1.491,0.968-2.117c1.194-1.685,2.479-3.318,3.745-4.951
				c1.208-1.562,2.239-3.317,3.698-4.615C362.928,177.521,365.781,175.474,368.944,172.989z"/>
			<path fill-rule="evenodd" clip-rule="evenodd" fill="#DDC89D" d="M427.89,101.322c-1.008,0.284-1.996,0.736-3.022,0.806
				c-6.479,0.427-12.968,0.762-19.46,1.143c-2.053,0.116-3.938-0.251-5.506-1.665c0.013-1.594,0.013-1.594,1.433-4.17
				c2.144-0.304,4.442-0.633,6.708-0.962c0.367,0.278,0.762,0.439,0.923,0.723c1.601,2.937,4.351,3.041,7.222,3.13
				c3.861,0.123,7.733,0.388,11.605,0.588C427.819,101.05,427.857,101.192,427.89,101.322z"/>
		</g>
	</g>
</g>
</svg>
