<?xml version="1.0" encoding="utf-8"?>
<!-- Generator: Adobe Illustrator 16.2.1, SVG Export Plug-In . SVG Version: 6.00 Build 0)  -->
<!DOCTYPE svg PUBLIC "-//W3C//DTD SVG 1.1//EN" "http://www.w3.org/Graphics/SVG/1.1/DTD/svg11.dtd">
<svg version="1.1" id="Kalita" xmlns="http://www.w3.org/2000/svg" xmlns:xlink="http://www.w3.org/1999/xlink" x="0px" y="0px"
	 width="380.266px" height="279.924px" viewBox="0 0 380.266 279.924" enable-background="new 0 0 380.266 279.924"
	 xml:space="preserve">
<g>
	<rect x="41.757" y="237.146" fill="#EBECD3" width="264" height="13.334"/>
</g>
<g>
	<path fill="#EBECD3" d="M19.257,175.979"/>
</g>
<g>
	<g>
		<path fill="#EBECD3" d="M178.46,279.924c-34.692,0-62.827-5.175-64.588-5.506l-3.81-0.716L38.39,117.858l13.628-6.268
			l68.396,148.718c13.928,2.207,63.89,8.942,107.583,0.186l68.485-150.775l13.656,6.203l-71.601,157.635l-3.651,0.812
			C216.154,278.535,196.427,279.924,178.46,279.924z"/>
	</g>
	<g>
		<path fill="#EBECD3" d="M59.838,128.594l-17.397-6.897c-18.038-7.15-27.184-16.031-27.184-26.396
			c0-14.019,16.626-25.229,49.417-33.318c28.761-7.096,66.879-11.003,107.333-11.003c40.454,0,78.572,3.907,107.333,11.003
			c32.791,8.09,49.417,19.3,49.417,33.318c0,9.407-7.516,17.598-22.339,24.346l-18.211,8.29l14.857-32.711
			c-6.418-2.158-16.83-5.357-30.451-8.532c-21.842-5.09-56.655-11.158-98.468-11.158c-44.357,0-87.899,6.689-129.561,19.896
			L59.838,128.594z"/>
	</g>
	<g>
		<path fill="#EBECD3" d="M38.391,117.858L23.964,86.491l7.887-2.672c79.87-27.062,152.764-25.622,199.85-19.649
			c51.132,6.486,83.042,19.262,84.375,19.803l7.242,2.937l-13.18,29.012l-13.656-6.203l6.58-14.487
			c-12.078-4.051-38.321-11.792-73.774-16.246c-43.837-5.506-110.866-6.933-184.702,16.446l7.433,16.16L38.391,117.858z"/>
	</g>
</g>
<g>
	<path fill="#EBECD3" d="M286.493,196.166l-1.474-14.929l0.736,7.465l-0.751-7.462c0.54-0.056,54.236-6.091,77.518-53.563
		l0.23-0.435c1.334-2.383,3.585-8.519,1.897-12.062c-1.384-2.904-5.752-4.22-9.175-4.812l-35.57-6.514l2.7-14.754l35.5,6.5
		c12.513,2.165,17.861,8.39,20.135,13.229c5.187,11.045-1.08,23.357-2.345,25.642C348.823,189.412,289.027,195.916,286.493,196.166z
		"/>
</g>
<g>
	<path fill="#EBECD3" d="M267.07,188.702"/>
</g>
<g>
	<line fill="none" x1="268.257" y1="188.479" x2="289.757" y2="188.479"/>
	<rect x="268.257" y="184.479" fill="#EBECD3" width="21.5" height="8"/>
</g>
<g>
	<path fill="#EBECD3" d="M316.685,92.481l-13.104-7.297l19.04-34.198c0.706-1.438,2.062-4.614,1.118-6.122
		c-1.821-2.911-10.25-4.46-15.381-4.387l-3.336,0.036l-2.278-2.451c-12.952-14.051-20.646-12.165-32.289-9.314
		c-10.972,2.688-24.623,6.031-42.575-4.816c-27.373-16.539-51.553-5.177-52.567-4.686l-0.137,0.065
		c-20.046,9.337-41.447,0.454-42.349,0.07l-0.189-0.084c-24.505-11.214-44.405,8.066-44.604,8.263l-3.299,3.264l-4.393-1.496
		c-20.901-7.115-31.453-5.015-36.625-2c-4.493,2.619-5.542,6.459-5.549,6.496l-1.271,6.709l-6.799-0.637
		c-6.24-0.555-13.663,0.757-14.957,2.656c-0.319,0.469-0.231,2.284,1.294,5.382l19.041,34.2L22.37,89.431L3.087,54.783
		C-1.972,44.668,0.119,37.94,2.763,34.078c5.245-7.662,16.146-9.18,23.082-9.309c1.837-3.307,4.988-7.294,10.316-10.4
		c10.69-6.231,25.785-6.419,44.91-0.567C89.5,7.18,111.769-6.665,138.742,5.597c1.036,0.413,16.563,6.384,30.041,0.144
		c2.432-1.176,32.917-15.153,66.854,5.354c12.647,7.643,21.266,5.529,31.248,3.085c12.573-3.078,26.758-6.558,44.648,11.381
		c6.504,0.374,19.225,2.29,24.898,11.315c2.545,4.047,4.53,10.968-0.466,20.958l-0.155,0.294L316.685,92.481z"/>
</g>
<g>
	<path fill="#EBECD3" d="M287.2,138.821c-62.537-24.171-120.826-22.881-158.712-17.541c-41.012,5.778-67.426,17.35-67.688,17.466
		l-3.244-7.312c1.112-0.493,27.707-12.142,69.815-18.075c38.826-5.471,98.57-6.789,162.713,18L287.2,138.821z"/>
</g>
<g>
	<path fill="#EBECD3" d="M71.038,180.011l-3.719-7.084c1.032-0.541,25.72-13.345,64.433-20.176
		c35.717-6.305,90.479-8.372,148.521,17.564l-3.264,7.306c-56.191-25.111-109.252-23.101-143.869-16.992
		C95.644,167.246,71.279,179.884,71.038,180.011z"/>
</g>
<g>
	<path fill="#EBECD3" d="M91.112,214.476l-3.87-7.002c0.738-0.408,18.433-10.068,48.544-15.437
		c27.67-4.933,71.491-6.954,123.142,11.417l-2.682,7.537c-49.833-17.725-92.054-15.844-118.695-11.143
		C108.635,204.95,91.284,214.381,91.112,214.476z"/>
</g>
</svg>
