<?xml version="1.0" encoding="utf-8"?>
<!-- Generator: Adobe Illustrator 16.2.1, SVG Export Plug-In . SVG Version: 6.00 Build 0)  -->
<!DOCTYPE svg PUBLIC "-//W3C//DTD SVG 1.1//EN" "http://www.w3.org/Graphics/SVG/1.1/DTD/svg11.dtd">
<svg version="1.1" xmlns="http://www.w3.org/2000/svg" xmlns:xlink="http://www.w3.org/1999/xlink" x="0px" y="0px"
	 width="211.894px" height="371.769px" viewBox="0 0 211.894 371.769" enable-background="new 0 0 211.894 371.769"
	 xml:space="preserve">
<g id="Kettle">
</g>
<g id="Chemex">
	<g>
		<path fill="#EBECD3" d="M99.526,353.449l-54.09-0.164l-7.926-6.401c-30.059-25.565-16.631-60.565-15.003-64.467l37.011-65.976
			l-15.838-6.404L6.436,273.929l-0.367,0.729c-7.812,17.376-13.733,57.747,19.771,86.153l13.149,10.622l75.677,0.243"/>
	</g>
	<g>
		<path fill="#EBECD3" d="M205.825,274.75l-0.168-0.371l-39.943-65.5l-13.339,8.154l37.008,65.469
			c1.682,4.041,15.002,38.958-15,64.475l-7.925,6.401l-51.062,0.163v-0.064H97.228v18.292l75.677-0.243l12.983-10.485l0.166-0.137
			C219.56,332.496,213.637,292.126,205.825,274.75z"/>
	</g>
	<path fill="#EBECD3" d="M165.265,263.042c0,0,13.249,15.593,14.777,32.916l-14.777,6.319l-7.133-12.737"/>
	<path fill="#EBECD3" d="M167.216,317.921l11.863-3.028c0,0,1.019,14.748-13.249,16.785"/>
	<polyline fill="#EBECD3" points="35.148,276.604 60.361,229.935 77.34,229.935 40.801,276.604 	"/>
	<g>
		<path fill="none" stroke="#EBECD3" stroke-width="15" stroke-miterlimit="10" d="M154.553,123.143H53.923
			c-3.006,0-5.45,2.421-5.45,5.396v15.966c4.767,5.676,7.772,13.941,7.772,23.15c0,9.207-3.006,17.474-7.772,23.148v14.556
			c0,2.975,2.444,5.395,5.45,5.395h100.63c3.006,0,5.45-2.42,5.45-5.395v-15.507c-4.321-5.63-7.009-13.491-7.009-22.197
			c0-8.705,2.688-16.569,7.009-22.197v-16.919C160.003,125.563,157.559,123.143,154.553,123.143z"/>
	</g>
	<g>
		<polygon fill="#EBECD3" points="123.77,34.717 115.989,18.168 95.126,18.168 88.265,34.463 73.886,15.944 86.202,0 124.285,0 
			137.5,15.247 		"/>
	</g>
	<g>
		<path fill="#EBECD3" d="M165.013,122.798l-18.295-6.156L183.346,57.4l0.186-0.262c2.772-3.991,6.2-11.854,4.694-15.971
			c-0.746-2.044-3.203-3.639-7.301-4.739l-0.619-0.168l-0.589-0.25c-0.274-0.116-28.138-11.796-57.534-11.796
			c-0.457,0-0.91,0.003-1.368,0.008l-0.227-18.166c31.741-0.391,61.019,11.088,65.663,12.994
			c12.23,3.473,17.121,10.57,19.068,15.959c5.072,14.03-4.799,29.477-6.741,32.312L165.013,122.798z"/>
	</g>
	<g>
		<path fill="#EBECD3" d="M42.792,122.798l18.295-6.156L24.459,57.4l-0.186-0.262c-2.772-3.991-6.2-11.854-4.694-15.971
			c0.746-2.044,3.203-3.639,7.301-4.739l0.619-0.168l0.589-0.25c0.274-0.116,28.138-11.796,57.534-11.796
			c0.457,0,0.91,0.003,1.368,0.008l0.227-18.166C55.476,5.666,26.198,17.145,21.554,19.051C9.323,22.523,4.433,29.621,2.485,35.01
			c-5.072,14.03,4.799,29.477,6.741,32.312L42.792,122.798z"/>
	</g>
	<g>
		<path fill="#EBECD3" d="M122.157,149.187c-5.117,0-9.604,2.614-12.191,6.556c2.665,2.167,4.745,6.399,5.277,11.442
			c0.329,3.113,0.01,6.042-0.782,8.465c2.231,1.386,4.862,2.202,7.696,2.202c8.027,0,14.535-6.418,14.535-14.334
			C136.692,155.603,130.185,149.187,122.157,149.187z"/>
	</g>
</g>
</svg>
