<?xml version="1.0" encoding="utf-8"?>
<!-- Generator: Adobe Illustrator 16.2.1, SVG Export Plug-In . SVG Version: 6.00 Build 0)  -->
<!DOCTYPE svg PUBLIC "-//W3C//DTD SVG 1.1//EN" "http://www.w3.org/Graphics/SVG/1.1/DTD/svg11.dtd">
<svg version="1.1" xmlns="http://www.w3.org/2000/svg" xmlns:xlink="http://www.w3.org/1999/xlink" x="0px" y="0px"
	 width="493.048px" height="259.724px" viewBox="0 0 493.048 259.724" enable-background="new 0 0 493.048 259.724"
	 xml:space="preserve">
<g id="Kettle">
</g>
<g id="Logos">
	<g>
		<path fill="none" stroke="#EBECD3" stroke-width="16" stroke-linejoin="round" stroke-miterlimit="10" d="M170.963,114.75
			c0-2.05,0.104-4.076,0.304-6.074c0.201-1.997,0.498-3.966,0.888-5.902L90.077,55.387L8,8l10,121.862L8,251.724l82.077-47.387
			l82.077-47.386c-0.39-1.937-0.687-3.905-0.888-5.902c-0.2-1.998-0.304-4.024-0.304-6.075v-15.111V114.75z"/>
		<path fill="none" stroke="#EBECD3" stroke-width="16" stroke-linejoin="round" stroke-miterlimit="10" d="M485.048,8
			l-82.077,47.387l-82.077,47.387c0.389,1.937,0.688,3.905,0.888,5.902c0.2,1.998,0.304,4.024,0.304,6.074v15.112v15.111
			c0,2.051-0.104,4.077-0.304,6.074c-0.2,1.998-0.499,3.967-0.888,5.902l82.077,47.387l82.077,47.387l-11-121.861L485.048,8z"/>
		<path fill="none" stroke="#EBECD3" stroke-width="16" stroke-linejoin="round" stroke-miterlimit="10" d="M172.154,156.951
			c5.558,27.647,29.974,48.472,59.258,48.472h30.224c29.285,0,53.7-20.824,59.258-48.473"/>
		<path fill="none" stroke="#EBECD3" stroke-width="16" stroke-linejoin="round" stroke-miterlimit="10" d="M320.894,102.773
			c-5.557-27.647-29.972-48.473-59.258-48.473h-30.224c-29.285,0-53.7,20.825-59.258,48.473"/>
	</g>
	
		<line fill="none" stroke="#EBECD3" stroke-width="16" stroke-miterlimit="10" x1="119.014" y1="113.571" x2="170.963" y2="129.862"/>
	
		<line fill="none" stroke="#EBECD3" stroke-width="16" stroke-miterlimit="10" x1="322.085" y1="129.862" x2="383.04" y2="104.388"/>
	
		<line fill="none" stroke="#EBECD3" stroke-width="16" stroke-miterlimit="10" x1="119.014" y1="156.95" x2="170.963" y2="144.974"/>
	<line fill="none" stroke="#EBECD3" stroke-width="16" stroke-miterlimit="10" x1="383.04" y1="156.95" x2="322.085" y2="144.974"/>
</g>
</svg>
