<?xml version="1.0" encoding="utf-8"?>
<!-- Generator: Adobe Illustrator 16.2.1, SVG Export Plug-In . SVG Version: 6.00 Build 0)  -->
<!DOCTYPE svg PUBLIC "-//W3C//DTD SVG 1.1//EN" "http://www.w3.org/Graphics/SVG/1.1/DTD/svg11.dtd">
<svg version="1.1" id="Logos" xmlns="http://www.w3.org/2000/svg" xmlns:xlink="http://www.w3.org/1999/xlink" x="0px" y="0px"
	 width="263.93px" height="247.138px" viewBox="0 0 263.93 247.138" enable-background="new 0 0 263.93 247.138"
	 xml:space="preserve">
<g>
	<path fill="#EBECD3" d="M190.742,125.522c0,43.354-4.169,74.617-12.505,93.791c-8.233,18.551-22.251,27.824-42.05,27.824
		c-19.801,0-33.869-9.325-42.205-27.98c-8.233-18.133-12.35-49.968-12.35-95.51c0-45.54,4.116-77.378,12.35-95.511
		C102.213,9.379,116.23,0,136.031,0c18.341,0,31.889,8.233,40.643,24.698C186.053,42.104,190.742,75.711,190.742,125.522z
		 M157.604,125.522c0-36.473-1.559-61.691-4.673-75.657c-3.116-13.858-8.775-20.79-16.978-20.79
		c-8.204,0-13.914,6.878-17.134,20.634c-3.116,13.756-4.672,38.508-4.672,74.251c0,35.745,1.556,60.549,4.672,74.407
		c3.22,13.756,8.93,20.634,17.134,20.634c8.1,0,13.705-6.824,16.821-20.478C155.994,185.497,157.604,161.163,157.604,125.522z"/>
</g>
<g>
	<path fill="#EBECD3" d="M28.137,42.411h8.206v12.355c7.755,0.842,13.707,2.886,17.855,6.132c4.148,3.188,7.184,8.087,9.108,14.699
		l-14.249,7.034c-2.225-8.717-7.575-13.076-16.052-13.076c-10.401,0-15.601,6.434-15.601,19.299c0,6.073,1.292,10.763,3.877,14.068
		c2.284,2.946,8.478,7.755,18.577,14.429c10.281,6.733,17.044,12.625,20.291,17.675c3.186,5.172,4.779,12.535,4.779,22.095
		c0,14.91-3.367,25.642-10.101,32.194c-3.728,3.548-9.89,6.103-18.486,7.665v12.444h-8.206V196.98
		c-7.697-0.843-13.498-2.796-17.405-5.862c-3.909-3.125-7.155-8.355-9.739-15.691l15.24-7.395c1.562,4.631,3.517,7.846,5.861,9.649
		s5.711,2.705,10.101,2.705c9.92,0,14.88-6.943,14.88-20.831c0-6.372-1.053-11.062-3.156-14.068
		c-2.105-3.066-7.305-7.214-15.602-12.444c-10.821-6.794-17.855-12.535-21.102-17.225C2.404,109.205,0,100.729,0,90.388
		c0-10.34,2.525-18.727,7.575-25.16c4.989-6.372,11.843-9.859,20.562-10.461V42.411z"/>
</g>
</svg>
