<?xml version="1.0" encoding="utf-8"?>
<!-- Generator: Adobe Illustrator 16.2.1, SVG Export Plug-In . SVG Version: 6.00 Build 0)  -->
<!DOCTYPE svg PUBLIC "-//W3C//DTD SVG 1.1//EN" "http://www.w3.org/Graphics/SVG/1.1/DTD/svg11.dtd">
<svg version="1.1" id="Kettle" xmlns="http://www.w3.org/2000/svg" xmlns:xlink="http://www.w3.org/1999/xlink" x="0px" y="0px"
	 width="598.341px" height="371px" viewBox="0 0 598.341 371" enable-background="new 0 0 598.341 371" xml:space="preserve">
<g>
	<g>
		<path fill="#EBECD3" d="M336.353,356c-0.004,0-0.015,0-0.018,0c-80.352-0.004-146.478-27.607-163.241-35.25V315h9.908l3.562-43.33
			c5.986-60.919,47.014-135.922,56.851-153.17h93.179v-15h-101.75l-2.185,3.646c-0.55,0.918-13.63,22.846-27.768,53.937
			c-19.087,41.976-30.278,78.711-33.263,109.187L169.186,300h-11.092v30.105l4.107,2.083c3.123,1.585,77.605,38.807,174.133,38.812
			c0.007,0,0.011,0,0.019,0c0.081,0,0.161-0.002,0.241-0.002v-15C336.514,355.998,336.434,356,336.353,356z"/>
	</g>
</g>
<g>
	<g>
		<path fill="#EBECD3" d="M325.084,356c0.004,0,0.016,0,0.018,0c80.352-0.004,146.478-27.607,163.242-35.25V315h-9.909l-3.562-43.33
			c-5.987-60.919-47.014-135.922-56.852-153.17h-93.178v-15h101.75l2.184,3.646c0.551,0.918,13.631,22.846,27.768,53.937
			c19.088,41.976,30.279,78.711,33.263,109.187l2.444,29.73h11.092v30.105l-4.107,2.083c-3.123,1.585-77.606,38.807-174.133,38.812
			c-0.008,0-0.012,0-0.02,0c-0.08,0-0.16-0.002-0.24-0.002v-15C324.924,355.998,325.004,356,325.084,356z"/>
	</g>
</g>
<g>
	<g>
		<path fill="#EBECD3" d="M482.665,285.012c-0.422,0-0.844-0.005-1.267-0.014l0.391-17.996c16.389,0.394,34.14-9.622,39.583-13.499
			c41.093-28.817,29.174-94.317,29.049-94.976l-0.111-0.746c-3.417-32.271,6.97-53.205,16.284-65.084
			c10.14-12.931,21.044-18.16,22.254-18.714l7.49,16.367l-3.745-8.184l3.803,8.157c-1.362,0.647-33.236,16.386-28.222,65.218
			c1.228,6.751,12.853,78.112-36.414,112.661C530.832,268.864,507.862,285.011,482.665,285.012z"/>
	</g>
</g>
<g>
	<g>
		<path fill="#EBECD3" d="M308.094,37.166c0-12.223,9.943-22.166,22.166-22.166s22.167,9.943,22.167,22.166
			c0,7.15-3.406,13.518-8.679,17.573l19.331-0.153c2.771-5.199,4.348-11.128,4.348-17.42C367.427,16.673,350.754,0,330.26,0
			c-20.493,0-37.166,16.673-37.166,37.166c0,6.502,1.683,12.616,4.629,17.938l19.322-0.153
			C311.617,50.906,308.094,44.44,308.094,37.166z"/>
	</g>
</g>
<g>
	<g>
		<path fill="#EBECD3" d="M266.51,98.833C266.51,79.951,295.895,64,330.677,64s64.167,15.951,64.167,34.833
			c0,3.702-1.144,7.288-3.222,10.666h16.461c1.145-3.428,1.761-6.993,1.761-10.666C409.844,70.89,375.069,49,330.677,49
			S251.51,70.89,251.51,98.833c0,3.673,0.616,7.238,1.762,10.666h16.461C267.654,106.121,266.51,102.535,266.51,98.833z"/>
	</g>
</g>
<g>
	<path fill="#EBECD3" d="M588.848,73.983c0,0,14.734,2.385,7.49,16.367l-2.743,1.568l-7.674-16.385L588.848,73.983z"/>
</g>
<g>
	<path fill="#EBECD3" d="M15.684,267.381c-3.939,0-7.547-1.673-10.158-4.712c-4.243-4.938-8.401-15.28-2.854-51.742
		c0.239-1.722,3.489-23.592,17.863-51.843c13.438-26.409,39.612-63.685,88.036-91.439c2.752-1.896,18.949-12.353,41.513-12.353
		c25.424,0,48.745,12.742,69.314,37.872l1.241,1.517l0.34,1.929c0.295,1.661,2.611,16.535-6.327,27.193
		c-3.669,4.375-10.7,9.591-23.353,9.591c-6.214,0-13.421-1.254-21.421-3.729l-0.588-0.182l-9.304-4.652l-1.1-1.622
		c-1.694-2.453-7.94-9.528-13.994-9.528c-5.037,0-9.57,5.179-12.598,9.771c-2.424,5.957-17.735,40.048-51.76,42.905
		c-5.241,3.729-24.623,20.254-23.445,59.92l0.07,2.341l-1.274,1.964c-0.231,0.356-5.739,8.817-12.888,17.406
		C31.986,261.219,23.307,267.381,15.684,267.381z M150.083,70.292c-19.456,0-32.94,9.656-33.073,9.754l-0.695,0.45
		c-45.145,25.788-69.575,60.36-82.121,84.822c-13.667,26.648-16.639,47.48-16.668,47.688l-0.018,0.123
		c-4.285,28.146-2.028,36.783-1.01,39.055c4.592-1.646,15.646-13.046,25.549-27.861c-0.607-52.558,30.984-71.074,32.35-71.848
		l1.564-0.887l1.797-0.08c28.219-1.264,40.688-33.803,40.81-34.131l0.278-0.746l0.43-0.671c7.33-11.466,15.949-17.279,25.617-17.279
		c12.612,0,21.847,10.155,25.166,14.416l4.829,2.415c6.321,1.912,11.84,2.882,16.41,2.882c5.594,0,9.474-1.384,11.86-4.23
		c3.326-3.965,3.41-10.183,3.222-13.193C189.171,80.611,170.239,70.292,150.083,70.292z"/>
</g>
<g>
	
		<rect x="209.417" y="113.973" transform="matrix(0.8188 0.5741 -0.5741 0.8188 109.759 -104.7458)" fill="#EBECD3" width="22.736" height="14.999"/>
</g>
<path fill="#EBECD3" d="M396.427,124.186v216.771c0,0,17.667,0,71.25-20.258v-9.592l-14.998-1.173c0,0,3.402-86.321-42.312-186.25
	L396.427,124.186z"/>
<line fill="none" stroke="#EBECD3" stroke-width="15" stroke-miterlimit="10" x1="213.964" y1="156.5" x2="400.594" y2="156.5"/>
<path fill="none" stroke="#E9E9E9" stroke-width="15" stroke-miterlimit="10" d="M332.659,280.762"/>
<path fill="none" stroke="#E9E9E9" stroke-width="15" stroke-miterlimit="10" d="M178.094,280.762"/>
<line fill="none" stroke="#EBECD3" stroke-width="15" stroke-miterlimit="10" x1="178.094" y1="294.417" x2="397.659" y2="294.417"/>
</svg>
