<?xml version="1.0" encoding="utf-8"?>
<!-- Generator: Adobe Illustrator 16.2.1, SVG Export Plug-In . SVG Version: 6.00 Build 0)  -->
<!DOCTYPE svg PUBLIC "-//W3C//DTD SVG 1.1//EN" "http://www.w3.org/Graphics/SVG/1.1/DTD/svg11.dtd">
<svg version="1.1" id="Beans" xmlns="http://www.w3.org/2000/svg" xmlns:xlink="http://www.w3.org/1999/xlink" x="0px" y="0px"
	 width="205.835px" height="370px" viewBox="0 0 205.835 370" enable-background="new 0 0 205.835 370" xml:space="preserve">
<polygon fill="none" stroke="#EBECD3" stroke-width="15" stroke-miterlimit="10" points="16.9,7.5 26.3,43.5 7.5,160.5 7.5,362.5 
	195.498,362.5 195.498,162.5 183.748,133.5 183.748,43.5 195.498,7.5 "/>
<polyline fill="none" stroke="#EBECD3" stroke-width="8" stroke-miterlimit="10" points="168.105,362.5 168.105,162.5 
	156.355,133.5 156.355,43.5 168.105,7.5 "/>
<ellipse transform="matrix(-0.8513 -0.5248 0.5248 -0.8513 -33.872 471.3987)" fill="#EBECD3" cx="49.875" cy="240.5" rx="9.625" ry="16"/>
<ellipse transform="matrix(0.9593 -0.2825 0.2825 0.9593 -73.4323 35.6568)" fill="#EBECD3" cx="86.946" cy="272.5" rx="8.446" ry="16"/>
<ellipse transform="matrix(0.8305 0.5571 -0.5571 0.8305 160.8182 -28.4342)" fill="#EBECD3" cx="127.125" cy="250" rx="9.375" ry="16.5"/>
<ellipse transform="matrix(0.9952 -0.0983 0.0983 0.9952 -22.5116 10.6187)" fill="#EBECD3" cx="96.5" cy="233.75" rx="9" ry="16.25"/>
<ellipse transform="matrix(0.9804 0.1969 -0.1969 0.9804 59.866 -6.2993)" fill="#EBECD3" cx="61.606" cy="297.862" rx="9" ry="16.25"/>
<ellipse transform="matrix(0.9815 -0.1917 0.1917 0.9815 -54.2334 27.5068)" fill="#EBECD3" cx="115.079" cy="294.111" rx="10.813" ry="12.5"/>
<line fill="none" stroke="#EBECD3" stroke-width="8" stroke-miterlimit="10" x1="56.375" y1="11.498" x2="56.375" y2="30.831"/>
<line fill="none" stroke="#EBECD3" stroke-width="8" stroke-miterlimit="10" x1="68.875" y1="11.498" x2="68.875" y2="30.831"/>
<line fill="none" stroke="#EBECD3" stroke-width="8" stroke-miterlimit="10" x1="81.625" y1="11.498" x2="81.625" y2="30.831"/>
<line fill="none" stroke="#EBECD3" stroke-width="8" stroke-miterlimit="10" x1="93.875" y1="11.498" x2="93.875" y2="30.831"/>
<line fill="none" stroke="#EBECD3" stroke-width="8" stroke-miterlimit="10" x1="106.625" y1="11.498" x2="106.625" y2="30.831"/>
<line fill="none" stroke="#EBECD3" stroke-width="8" stroke-miterlimit="10" x1="119.125" y1="11.498" x2="119.125" y2="30.831"/>
<line fill="none" stroke="#EBECD3" stroke-width="8" stroke-miterlimit="10" x1="131.875" y1="11.498" x2="131.875" y2="30.831"/>
<line fill="none" stroke="#EBECD3" stroke-width="8" stroke-miterlimit="10" x1="36.415" y1="163.498" x2="148.875" y2="163.498"/>
<line fill="none" stroke="#EBECD3" stroke-width="8" stroke-miterlimit="10" x1="31.415" y1="42.5" x2="153.875" y2="42.5"/>
</svg>
